<svg width="270" height="250" viewBox="0 0 270 250" fill="none" xmlns="http://www.w3.org/2000/svg">
<path d="M134.529 249.543C208.827 249.543 269.058 214.767 269.058 171.869C269.058 128.972 208.827 94.1959 134.529 94.1959C60.2306 94.1959 0 128.972 0 171.869C0 214.767 60.2306 249.543 134.529 249.543Z" fill="#F5F5F5" fill-opacity="0.8"/>
<path d="M37.4821 221.01L35.6526 219.933C35.3496 219.733 35.0976 219.465 34.9165 219.15C34.7354 218.835 34.6303 218.483 34.6096 218.12V82.5196C34.6312 82.1582 34.7367 81.8068 34.9178 81.4933C35.0988 81.1797 35.3504 80.9127 35.6526 80.7133L119.788 32.1317C120.112 31.9687 120.47 31.8839 120.834 31.8839C121.197 31.8839 121.555 31.9687 121.879 32.1317L123.709 33.1921C124.012 33.3909 124.265 33.6576 124.447 33.9712C124.629 34.2847 124.735 34.6364 124.758 34.9983V170.623C124.736 170.985 124.63 171.338 124.448 171.653C124.266 171.968 124.013 172.235 123.709 172.435L39.5738 221.01C39.2493 221.173 38.8911 221.258 38.528 221.258C38.1648 221.258 37.8066 221.173 37.4821 221.01Z" fill="#37474F"/>
<path d="M124.746 34.8294C124.67 34.2933 124.233 34.0952 123.709 34.3982L39.5738 82.974C39.2646 83.1643 39.0097 83.4313 38.8339 83.749L34.9126 81.4883C35.0901 81.1718 35.3446 80.9053 35.6526 80.7133L119.788 32.1317C120.112 31.9687 120.47 31.8839 120.834 31.8839C121.197 31.8839 121.555 31.9687 121.879 32.1317L123.709 33.1921C123.989 33.3746 124.227 33.6153 124.406 33.8978C124.585 34.1803 124.701 34.498 124.746 34.8294Z" fill="#455A64"/>
<path d="M39.3874 221.098C39.3682 221.103 39.3482 221.103 39.3291 221.098L39.2184 221.139H39.1776C39.1135 221.139 39.0494 221.174 38.9853 221.191C38.5708 221.271 38.1422 221.239 37.7443 221.098C37.664 221.069 37.5861 221.034 37.5112 220.993L35.6526 219.933C35.3496 219.733 35.0976 219.465 34.9165 219.15C34.7354 218.835 34.6303 218.483 34.6096 218.12V82.5196C34.6224 82.1558 34.7266 81.8012 34.9126 81.4883L38.8339 83.749C38.6442 84.0606 38.5378 84.4157 38.525 84.7803V220.41C38.5157 220.605 38.571 220.798 38.6824 220.958C38.7533 221.039 38.8453 221.099 38.9482 221.131C39.051 221.163 39.1607 221.165 39.265 221.139L39.3874 221.098Z" fill="#263238"/>
<path d="M68.8871 77.0776C68.86 76.9352 68.7957 76.8025 68.7007 76.693L68.6308 76.6348C68.5757 76.5933 68.5112 76.5662 68.443 76.5561C68.3748 76.5459 68.3052 76.5529 68.2404 76.5765C68.1884 76.589 68.1391 76.6107 68.0947 76.6406C67.836 76.8189 67.6338 77.0676 67.5121 77.3573C67.3563 77.6853 67.2729 78.0429 67.2674 78.406C67.2439 78.6774 67.3276 78.9472 67.5004 79.1577C67.5771 79.2317 67.6771 79.2768 67.7834 79.2853C67.8897 79.2938 67.9956 79.2652 68.0831 79.2043C68.2078 79.1291 68.3183 79.0324 68.4094 78.9188C68.4925 78.8104 68.5665 78.6955 68.6308 78.575C68.8097 78.2245 68.9073 77.8381 68.9163 77.4447C68.9195 77.3216 68.9097 77.1986 68.8871 77.0776ZM82.5678 46.5058C82.2642 46.3274 81.9178 46.2348 81.5657 46.2377C80.8972 46.2689 80.2476 46.4694 79.6779 46.8204C78.0876 47.7937 76.8597 49.261 76.182 50.998C76.0713 51.2427 75.9664 51.4991 75.8731 51.7496C75.7799 52.0002 75.6809 52.2565 75.5993 52.5187C75.5177 52.7809 75.4245 53.0431 75.3488 53.3053C75.3196 53.3927 75.2963 53.4859 75.2672 53.5675L75.1157 54.0977C75.1182 54.1229 75.1182 54.1483 75.1157 54.1735C75.0283 54.4939 74.9467 54.8261 74.8535 55.1523C74.8069 55.333 74.7661 55.5019 74.7195 55.6767L74.5855 56.1953C74.399 56.8886 74.2126 57.5529 74.0028 58.188L73.8688 58.5725C73.8047 58.7531 73.7406 58.9338 73.6707 59.1086C73.6008 59.2833 73.56 59.3766 73.5076 59.4989C73.4202 59.7145 73.3269 59.9184 73.2279 60.1165C73.1288 60.3146 73.1055 60.3671 73.0415 60.4894C71.5673 63.3211 69.7669 64.4282 68.724 65.8848C67.8092 67.155 67.5587 68.1688 66.3235 70.179C65.9331 70.8199 65.4437 71.5599 64.8027 72.4455C63.0256 74.8926 62.3905 76.1046 62.175 76.8387C62.1726 76.858 62.1726 76.8776 62.175 76.897C62.175 76.9552 62.175 77.0077 62.1342 77.0601C62.132 77.0775 62.132 77.0951 62.1342 77.1125C62.1318 77.1591 62.1318 77.2058 62.1342 77.2524C62.1138 77.3952 62.1041 77.5393 62.105 77.6835V83.1255L64.0628 84.2559V78.8081C64.0579 78.5236 64.0992 78.2402 64.1851 77.969C64.4007 77.2349 65.03 76.0288 66.8129 73.5817C67.4538 72.6902 67.9432 71.9502 68.3336 71.3093C69.5572 69.305 69.8194 68.2853 70.7341 67.0268C71.7771 65.5644 73.5775 64.4631 75.0516 61.6256C75.2642 61.1895 75.4529 60.7421 75.6168 60.2855C76.5607 57.9549 76.986 54.8144 78.1455 52.175C78.8221 50.4403 80.0505 48.9764 81.6414 48.009C82.8359 47.3215 83.7098 47.2632 84.3799 47.5778L82.5678 46.5058ZM91.1503 53.4626C90.9876 53.3699 90.8132 53.2993 90.6318 53.2529C89.8918 53.0781 88.7906 53.5093 87.6835 53.3811C89.2392 55.3912 91.4009 54.0977 92.5895 54.3832C92.7744 54.4275 92.9513 54.5002 93.1139 54.5988L91.1503 53.4626ZM95.2988 60.9381C95.2407 60.9736 95.1861 61.0146 95.1357 61.0604L95.0541 61.142L94.9784 61.2294C94.6515 61.6519 94.4715 62.1694 94.4656 62.7035C94.4462 62.9717 94.5272 63.2375 94.6929 63.4493C94.7149 63.4702 94.7383 63.4896 94.7628 63.5076C94.8167 63.549 94.8803 63.5761 94.9475 63.5863C95.0148 63.5965 95.0835 63.5895 95.1473 63.5659C95.201 63.5531 95.2522 63.5314 95.2988 63.5018C95.3571 63.4668 95.4095 63.4202 95.4678 63.3794C95.5524 63.3001 95.6286 63.2122 95.695 63.1172C95.9724 62.7116 96.1243 62.2334 96.132 61.7421C96.132 61.0371 95.7591 60.6701 95.2988 60.9381ZM96.5806 56.0147C95.9518 55.6639 95.2682 55.4216 94.5588 55.298C94.2559 55.2281 93.9762 55.1523 93.749 55.0766C94.5285 55.7704 95.484 56.236 96.5107 56.4225C97.1339 56.5438 97.7404 56.7394 98.317 57.0052L96.5806 56.0147Z" fill="#47969D"/>
<path d="M98.4744 57.1042L98.3171 57.011C97.7405 56.7453 97.1341 56.5496 96.5109 56.4284C95.4838 56.2431 94.5279 55.7772 93.7491 55.0824C93.554 54.9022 93.3413 54.7421 93.114 54.6047C92.9509 54.5084 92.7741 54.4377 92.5896 54.3949C91.4243 54.1094 89.2394 55.4029 87.6895 53.3927L87.6371 53.3287C86.5533 51.8662 86.1571 48.6033 84.5315 47.6478L84.3684 47.5546C83.6983 47.2399 82.8243 47.2982 81.6299 47.9857C77.3241 50.4737 77.1784 56.3818 75.6286 60.2681C74.0787 64.1544 71.8763 65.3721 70.6818 67.0443C69.4874 68.7165 69.4058 69.9576 66.7548 73.605C64.1037 77.2524 64.0046 78.1497 64.0046 78.8489V84.2909L99.2668 63.898V58.456C99.2881 58.1768 99.2236 57.8978 99.082 57.6562C98.9404 57.4147 98.7284 57.2221 98.4744 57.1042ZM68.0949 79.2043C67.6346 79.4723 67.2675 79.1169 67.2675 78.4061C67.2629 78.0709 67.3351 77.7391 67.4785 77.4361C67.6219 77.1331 67.8327 76.867 68.0949 76.6581C68.5552 76.3901 68.9222 76.7513 68.9222 77.4622C68.9268 77.7965 68.8546 78.1274 68.7112 78.4294C68.5677 78.7315 68.3569 78.9966 68.0949 79.2043ZM81.6299 62.8084C81.409 62.9765 81.1513 63.0896 80.8781 63.1383C80.6048 63.187 80.3239 63.1699 80.0585 63.0885C79.7932 63.0071 79.551 62.8636 79.3521 62.6701C79.1532 62.4765 79.0033 62.2383 78.9147 61.9752C78.6103 61.2862 78.4649 60.5374 78.4894 59.7845C78.4894 57.1101 79.8936 54.1327 81.6299 53.1306C81.8644 52.9906 82.1203 52.8902 82.3873 52.8334C83.7624 52.5595 84.7704 53.8763 84.7704 56.1545C84.7704 58.8289 83.3662 61.8063 81.6299 62.8084ZM95.2989 63.496C94.8387 63.764 94.4658 63.4086 94.4658 62.7035C94.4623 62.368 94.5355 62.036 94.68 61.7331C94.8244 61.4301 95.0361 61.1642 95.2989 60.9556C95.7592 60.6934 96.1321 61.0488 96.1321 61.7596C96.1356 62.0936 96.0622 62.4238 95.9178 62.7248C95.7733 63.0259 95.5616 63.2897 95.2989 63.496Z" fill="#47969D"/>
<path opacity="0.1" d="M98.4744 57.1042L98.3171 57.011C97.7405 56.7453 97.1341 56.5496 96.5109 56.4284C95.4838 56.2431 94.5279 55.7772 93.7491 55.0824C93.554 54.9022 93.3413 54.7421 93.114 54.6047C92.9509 54.5084 92.7741 54.4377 92.5896 54.3949C91.4243 54.1094 89.2394 55.4029 87.6895 53.3927L87.6371 53.3287C86.5533 51.8662 86.1571 48.6033 84.5315 47.6478L84.3684 47.5546C83.6983 47.2399 82.8243 47.2982 81.6299 47.9857C77.3241 50.4737 77.1784 56.3818 75.6286 60.2681C74.0787 64.1544 71.8763 65.3721 70.6818 67.0443C69.4874 68.7165 69.4058 69.9576 66.7548 73.605C64.1037 77.2524 64.0046 78.1497 64.0046 78.8489V84.2909L99.2668 63.898V58.456C99.2881 58.1768 99.2236 57.8978 99.082 57.6562C98.9404 57.4147 98.7284 57.2221 98.4744 57.1042ZM68.0949 79.2043C67.6346 79.4723 67.2675 79.1169 67.2675 78.4061C67.2629 78.0709 67.3351 77.7391 67.4785 77.4361C67.6219 77.1331 67.8327 76.867 68.0949 76.6581C68.5552 76.3901 68.9222 76.7513 68.9222 77.4622C68.9268 77.7965 68.8546 78.1274 68.7112 78.4294C68.5677 78.7315 68.3569 78.9966 68.0949 79.2043ZM81.6299 62.8084C81.409 62.9765 81.1513 63.0896 80.8781 63.1383C80.6048 63.187 80.3239 63.1699 80.0585 63.0885C79.7932 63.0071 79.551 62.8636 79.3521 62.6701C79.1532 62.4765 79.0033 62.2383 78.9147 61.9752C78.6103 61.2862 78.4649 60.5374 78.4894 59.7845C78.4894 57.1101 79.8936 54.1327 81.6299 53.1306C81.8644 52.9906 82.1203 52.8902 82.3873 52.8334C83.7624 52.5595 84.7704 53.8763 84.7704 56.1545C84.7704 58.8289 83.3662 61.8063 81.6299 62.8084ZM95.2989 63.496C94.8387 63.764 94.4658 63.4086 94.4658 62.7035C94.4623 62.368 94.5355 62.036 94.68 61.7331C94.8244 61.4301 95.0361 61.1642 95.2989 60.9556C95.7592 60.6934 96.1321 61.0488 96.1321 61.7596C96.1356 62.0936 96.0622 62.4238 95.9178 62.7248C95.7733 63.0259 95.5616 63.2897 95.2989 63.496Z" fill="black"/>
<path opacity="0.25" d="M64.1268 77.9923C64.0408 78.2636 63.9995 78.5469 64.0044 78.8314V84.2792L62.0467 83.1488V77.7068C62.0457 77.5626 62.0555 77.4185 62.0758 77.2757C62.0735 77.2291 62.0735 77.1824 62.0758 77.1358C62.0737 77.1184 62.0737 77.1008 62.0758 77.0834C62.0758 77.031 62.0758 76.9785 62.1166 76.9203V76.862L64.1268 77.9923Z" fill="black"/>
<path opacity="0.25" d="M70.6759 67.0501C69.7611 68.3087 69.5106 69.3283 68.2754 71.3326L66.3235 70.1906C67.5471 68.1805 67.8092 67.1667 68.724 65.8965L70.6759 67.0501Z" fill="black"/>
<path opacity="0.25" d="M78.1572 52.1284C76.9919 54.7678 76.5724 57.8792 75.6285 60.2389C75.4451 60.7108 75.235 61.1718 74.9992 61.6198L73.0415 60.4953C73.1056 60.3729 73.1697 60.2447 73.2279 60.1224C73.2862 60 73.4202 59.7203 73.5076 59.5048C73.5601 59.3824 73.6183 59.2484 73.6708 59.1144C73.7232 58.9804 73.8048 58.759 73.8689 58.5783L74.0029 58.1938C74.2126 57.5587 74.3991 56.8945 74.5855 56.2011L74.7195 55.6826C74.7662 55.5078 74.8069 55.3388 74.8536 55.1582C74.9468 54.8319 75.0284 54.4998 75.1157 54.1793C75.1183 54.1541 75.1183 54.1287 75.1157 54.1036L75.2672 53.5733C75.2964 53.4918 75.3197 53.3986 75.3488 53.3112C75.4246 53.049 75.512 52.7868 75.5994 52.5246C75.6867 52.2624 75.7741 52.0118 75.8732 51.7555C75.9723 51.4991 76.0713 51.2486 76.182 51.0038L78.1572 52.1284Z" fill="black"/>
<path d="M67.5062 77.3572C67.3504 77.6853 67.2669 78.0429 67.2614 78.406C67.238 78.6774 67.3216 78.9471 67.4945 79.1576C67.3269 78.9446 67.2458 78.6762 67.2673 78.406C67.2737 78.0437 67.3551 77.6866 67.5062 77.3572ZM68.9278 77.4446C68.9272 77.3212 68.9136 77.1981 68.887 77.0776C68.9116 77.1984 68.9233 77.3214 68.922 77.4446C68.9151 77.8377 68.8195 78.2241 68.6423 78.575C68.8213 78.2245 68.9189 77.8381 68.9278 77.4446ZM94.7627 63.5076C94.8166 63.549 94.8802 63.5761 94.9474 63.5863C95.0147 63.5965 95.0834 63.5895 95.1472 63.5658C95.0829 63.586 95.0149 63.5913 94.9482 63.5812C94.8816 63.5711 94.8181 63.5459 94.7627 63.5076Z" fill="#47969D"/>
<path d="M84.776 56.1545C84.776 58.8289 83.366 61.8062 81.6297 62.8084C81.4072 62.9704 81.1502 63.0784 80.8788 63.1241C80.6074 63.1698 80.3291 63.1518 80.0659 63.0716C79.8026 62.9913 79.5616 62.8511 79.3618 62.6618C79.162 62.4726 79.0089 62.2395 78.9146 61.981C79.184 61.9231 79.442 61.8207 79.6778 61.6781C81.4258 60.6701 82.8183 57.6985 82.8183 55.0242C82.8439 54.2705 82.6964 53.5211 82.3872 52.8334C83.7739 52.5595 84.776 53.8763 84.776 56.1545Z" fill="#47969D"/>
<path opacity="0.3" d="M84.776 56.1545C84.776 58.8289 83.366 61.8062 81.6297 62.8084C81.4072 62.9704 81.1502 63.0784 80.8788 63.1241C80.6074 63.1698 80.3291 63.1518 80.0659 63.0716C79.8026 62.9913 79.5616 62.8511 79.3618 62.6618C79.162 62.4726 79.0089 62.2395 78.9146 61.981C79.184 61.9231 79.442 61.8207 79.6778 61.6781C81.4258 60.6701 82.8183 57.6985 82.8183 55.0242C82.8439 54.2705 82.6964 53.5211 82.3872 52.8334C83.7739 52.5595 84.776 53.8763 84.776 56.1545Z" fill="black"/>
<path d="M68.6249 78.575C68.5661 78.6973 68.4938 78.8126 68.4093 78.9188C68.3182 79.0324 68.2078 79.1291 68.083 79.2043C67.9955 79.2652 67.8896 79.2938 67.7833 79.2853C67.6771 79.2768 67.5771 79.2317 67.5004 79.1577C67.3275 78.9472 67.2439 78.6774 67.2673 78.406C67.2728 78.043 67.3563 77.6853 67.512 77.3573C67.6337 77.0676 67.8359 76.8189 68.0947 76.6406C68.139 76.6107 68.1883 76.589 68.2403 76.5765C68.32 76.5488 68.4061 76.545 68.488 76.5657C68.5698 76.5864 68.6437 76.6307 68.7006 76.693C68.7956 76.8025 68.8599 76.9352 68.8871 77.0776C68.9136 77.1982 68.9273 77.3212 68.9279 77.4447C68.9189 77.8403 68.8149 78.2279 68.6249 78.575Z" fill="#37474F"/>
<path d="M96.1321 61.7422C96.1244 62.2335 95.9725 62.7116 95.6951 63.1172C95.6287 63.2123 95.5525 63.3001 95.4679 63.3794C95.4096 63.4202 95.3572 63.4668 95.2989 63.5018C95.2523 63.5314 95.2011 63.5531 95.1474 63.5659C95.0685 63.5924 94.9836 63.5955 94.9029 63.5748C94.8223 63.5542 94.7494 63.5106 94.693 63.4493C94.5273 63.2375 94.4463 62.9717 94.4657 62.7035C94.4716 62.1695 94.6516 61.6519 94.9784 61.2294L95.0542 61.142L95.1358 61.0605C95.1862 61.0146 95.2408 60.9737 95.2989 60.9381C95.7592 60.6701 96.1321 61.0372 96.1321 61.7422Z" fill="#37474F"/>
<path d="M45.0333 95.6584L118.25 53.3869C118.444 53.2891 118.658 53.2381 118.876 53.2381C119.093 53.2381 119.308 53.2891 119.502 53.3869L120.207 53.7948C120.39 53.9149 120.542 54.076 120.651 54.2651C120.76 54.4543 120.824 54.6663 120.837 54.8843V166.579C120.824 166.796 120.761 167.008 120.651 167.196C120.542 167.384 120.39 167.544 120.207 167.663L46.991 209.934C46.7976 210.035 46.5827 210.087 46.3647 210.087C46.1466 210.087 45.9318 210.035 45.7383 209.934L45.0333 209.526C44.8504 209.408 44.698 209.248 44.5887 209.06C44.4793 208.872 44.416 208.66 44.4041 208.443V96.748C44.4156 96.5296 44.4786 96.3171 44.588 96.1277C44.6974 95.9384 44.85 95.7776 45.0333 95.6584Z" fill="#F5F5F5"/>
<path d="M120.813 54.6921C120.732 54.4357 120.493 54.3541 120.231 54.5173L46.9911 96.7888C46.8056 96.9056 46.6531 97.0681 46.5483 97.2607L44.5906 96.1304C44.6916 95.9366 44.845 95.775 45.0334 95.6643L118.25 53.3928C118.442 53.2922 118.656 53.2397 118.873 53.2397C119.09 53.2397 119.304 53.2922 119.497 53.3928L120.207 53.7948C120.363 53.8966 120.497 54.0283 120.601 54.1824C120.705 54.3365 120.777 54.5097 120.813 54.6921Z" fill="#FAFAFA"/>
<path d="M46.8454 210.027C46.7702 210.056 46.692 210.075 46.6123 210.086H46.49C46.3641 210.1 46.2371 210.1 46.1112 210.086C46.0314 210.076 45.9531 210.056 45.8782 210.027L45.7383 209.958L45.0333 209.55C44.8497 209.432 44.6969 209.273 44.5874 209.084C44.478 208.896 44.4151 208.684 44.4041 208.466V96.748C44.4101 96.5292 44.4745 96.316 44.5905 96.1304L46.5482 97.2607C46.4379 97.4485 46.3758 97.6607 46.3676 97.8783V209.573C46.3676 209.917 46.5657 210.086 46.8454 210.027Z" fill="#E0E0E0"/>
<path d="M75.7683 70.0042L75.6693 70.1673C75.4357 70.5488 75.2664 70.9661 75.1682 71.4026C75.1682 71.4375 75.1682 71.455 75.1682 71.4725C75.1669 71.4821 75.1669 71.4919 75.1682 71.5016L73.9738 78.2254L73.6009 80.3754C73.6009 80.4628 73.5601 80.5502 73.5368 80.6434C73.5141 80.7303 73.4868 80.8158 73.4552 80.8998C73.4552 80.9581 73.4144 81.0163 73.3911 81.0746L75.3488 82.2049C75.4423 81.9801 75.5107 81.7456 75.5528 81.5058L75.9373 79.3558L77.1026 72.632C77.1911 72.0931 77.4003 71.5812 77.7144 71.1345L75.7683 70.0042Z" fill="#47969D"/>
<path d="M62.2857 91.6964C62.0876 92.011 61.9011 92.3256 61.703 92.6403C61.6214 92.7918 61.5399 92.9433 61.4641 93.0947C61.3884 93.2462 61.2777 93.4851 61.1961 93.6774C61.1145 93.8697 61.0097 94.1086 60.9281 94.33C60.8465 94.5514 60.7649 94.7728 60.6892 94.9942C60.6135 95.2156 60.5202 95.5128 60.4503 95.775C60.4037 95.9439 60.3571 96.1129 60.3105 96.2935C60.2017 96.7053 60.1027 97.1248 60.0133 97.552C60.0133 97.6977 59.9492 97.8492 59.9259 97.9949C59.9026 98.1405 59.8502 98.3561 59.821 98.5309C59.821 98.5309 59.821 98.5309 59.821 98.56C59.821 98.6999 59.821 98.7931 59.891 98.8339C59.9001 98.8381 59.91 98.8402 59.9201 98.8402C59.9302 98.8402 59.9401 98.8381 59.9492 98.8339L61.6331 97.5171L61.9069 97.3015L62.041 97.2025L62.1866 97.0859L62.3031 96.9985L62.4022 96.9169C62.8939 95.1357 63.714 93.462 64.8202 91.9819L62.8625 90.8515C62.6702 91.1312 62.4721 91.4167 62.2857 91.6964Z" fill="#47969D"/>
<path d="M83.4709 55.2106C83.3776 55.3621 83.2961 55.5136 83.2145 55.6651C83.161 55.7486 83.1142 55.8363 83.0747 55.9273C83.0047 56.0496 82.9465 56.1778 82.8824 56.306C82.8183 56.4342 82.7775 56.5099 82.7309 56.6148C82.6319 56.8129 82.5444 57.011 82.4629 57.1974C82.3813 57.3839 82.2764 57.6286 82.1949 57.8442C82.1133 58.0365 82.0492 58.2287 81.9851 58.4268C81.8802 58.7182 81.7928 59.0095 81.7113 59.3067C81.6646 59.464 81.6297 59.6155 81.5889 59.767C81.5899 59.7786 81.5899 59.7903 81.5889 59.8019C81.5889 59.8835 81.5481 59.9592 81.5365 60.0408C81.4898 60.2214 81.4549 60.4079 81.4258 60.5885C81.3966 60.7691 81.3675 60.874 81.3267 61.0197C81.2859 61.1653 81.251 61.3226 81.2043 61.4741C81.1577 61.6256 81.1111 61.7596 81.0645 61.9053C81.0645 61.9053 81.0645 61.9053 81.0645 61.9461C81.0062 62.1034 80.9422 62.2665 80.8722 62.4297C80.8023 62.5928 80.7441 62.7501 80.6625 62.9191C80.6425 62.9628 80.625 63.0075 80.61 63.0531C80.5518 63.1755 80.4877 63.2978 80.4294 63.426L80.1206 64.0087C80.0507 64.1485 79.9808 64.2767 79.905 64.4107L81.8686 65.541C82.5741 64.3505 83.0892 63.0569 83.3951 61.7072C83.7656 59.7994 84.4634 57.97 85.4577 56.3002L83.4709 55.2106Z" fill="#47969D"/>
<path d="M95.1181 59.5688C95.0207 59.5099 94.911 59.474 94.7976 59.464C94.9877 59.7674 95.2434 60.0244 95.5459 60.216C95.8484 60.4076 96.19 60.5289 96.5456 60.571C96.7141 60.5732 96.8804 60.6088 97.035 60.6759L95.1181 59.5688Z" fill="#47969D"/>
<path opacity="0.4" d="M95.1181 59.5688C95.0207 59.5099 94.911 59.474 94.7976 59.464C94.9877 59.7674 95.2434 60.0244 95.5459 60.216C95.8484 60.4076 96.19 60.5289 96.5456 60.571C96.7141 60.5732 96.8804 60.6088 97.035 60.6759L95.1181 59.5688Z" fill="white"/>
<path d="M102.419 68.0814C102.111 67.9311 101.772 67.8578 101.43 67.868C101.088 67.8781 100.753 67.9714 100.455 68.1397C98.1771 69.1418 97.1924 69.5963 96.0155 70.0857C95.7882 71.6006 96.6797 71.7405 97.1225 71.5599C98.7773 70.9073 99.6221 70.5052 102.419 69.2758C102.714 69.1101 103.045 69.0177 103.384 69.0065C103.723 68.9954 104.059 69.0658 104.365 69.2118L102.419 68.0814Z" fill="#47969D"/>
<path opacity="0.4" d="M102.419 68.0814C102.111 67.9311 101.772 67.8578 101.43 67.868C101.088 67.8781 100.753 67.9714 100.455 68.1397C98.1771 69.1418 97.1924 69.5963 96.0155 70.0857C95.7882 71.6006 96.6797 71.7405 97.1225 71.5599C98.7773 70.9073 99.6221 70.5052 102.419 69.2758C102.714 69.1101 103.045 69.0177 103.384 69.0065C103.723 68.9954 104.059 69.0658 104.365 69.2118L102.419 68.0814Z" fill="white"/>
<path d="M75.3372 82.2049C74.9155 83.1278 74.3223 83.9622 73.5892 84.6637L67.4597 89.2725C66.4799 90.0706 65.5961 90.9798 64.8261 91.9819L62.8684 90.8515C63.6366 89.8462 64.5206 88.9348 65.502 88.1363L71.6432 83.5334C72.3632 82.8271 72.946 81.9934 73.362 81.0746L75.3372 82.2049Z" fill="#47969D"/>
<path opacity="0.4" d="M75.3372 82.2049C74.9155 83.1278 74.3223 83.9622 73.5892 84.6637L67.4597 89.2725C66.4799 90.0706 65.5961 90.9798 64.8261 91.9819L62.8684 90.8515C63.6366 89.8462 64.5206 88.9348 65.502 88.1363L71.6432 83.5334C72.3632 82.8271 72.946 81.9934 73.362 81.0746L75.3372 82.2049Z" fill="white"/>
<path d="M81.8396 65.5877C80.9941 67.151 79.9525 68.6 78.7398 69.8993C78.3581 70.2731 78.0182 70.6872 77.726 71.1345L75.7683 70.0042C76.0556 69.5534 76.396 69.1387 76.7821 68.769C77.9926 67.4692 79.0323 66.0203 79.876 64.4573L81.8396 65.5877Z" fill="#47969D"/>
<path opacity="0.4" d="M81.8396 65.5877C80.9941 67.151 79.9525 68.6 78.7398 69.8993C78.3581 70.2731 78.0182 70.6872 77.726 71.1345L75.7683 70.0042C76.0556 69.5534 76.396 69.1387 76.7821 68.769C77.9926 67.4692 79.0323 66.0203 79.876 64.4573L81.8396 65.5877Z" fill="white"/>
<path d="M92.8982 51.1204C92.1758 50.7417 91.2144 50.8057 90.084 51.4001C88.406 52.2799 86.7163 54.1444 85.4228 56.3468L83.4651 55.1815C84.7469 52.979 86.4366 51.1029 88.1263 50.2347C88.6754 49.9248 89.2908 49.7509 89.9209 49.7278C90.298 49.723 90.6697 49.8174 90.9988 50.0017L92.8982 51.1204Z" fill="#47969D"/>
<path opacity="0.4" d="M92.8982 51.1204C92.1758 50.7417 91.2144 50.8057 90.084 51.4001C88.406 52.2799 86.7163 54.1444 85.4228 56.3468L83.4651 55.1815C84.7469 52.979 86.4366 51.1029 88.1263 50.2347C88.6754 49.9248 89.2908 49.7509 89.9209 49.7278C90.298 49.723 90.6697 49.8174 90.9988 50.0017L92.8982 51.1204Z" fill="white"/>
<path opacity="0.15" d="M64.8434 91.9819C63.7372 93.462 62.9172 95.1357 62.4254 96.9169L62.3264 96.9985L62.2099 97.0859L62.0642 97.2024L61.9302 97.3015L61.6563 97.5171L59.9958 98.8455C59.9866 98.8497 59.9767 98.8519 59.9666 98.8519C59.9566 98.8519 59.9466 98.8497 59.9375 98.8455C59.8734 98.8047 59.8443 98.7115 59.8676 98.5717C59.8676 98.5717 59.8676 98.5717 59.8676 98.5425C59.8676 98.3677 59.9317 98.1871 59.9725 98.0065C60.0133 97.8259 60.0307 97.7093 60.0599 97.5637C60.1492 97.1403 60.2483 96.7208 60.357 96.3051C60.4036 96.1245 60.4502 95.9555 60.4969 95.7866C60.5668 95.5244 60.6483 95.268 60.7357 95.0058C60.8231 94.7436 60.8872 94.563 60.9746 94.3416C61.062 94.1202 61.1436 93.9046 61.2427 93.689C61.3417 93.4734 61.4174 93.287 61.5107 93.1064C61.6039 92.9258 61.668 92.8034 61.7496 92.6519C61.9185 92.3373 62.105 92.0226 62.3322 91.708C62.5594 91.3934 62.7168 91.1254 62.9149 90.8632L64.8434 91.9819Z" fill="black"/>
<path opacity="0.15" d="M77.7261 71.1345C77.412 71.5812 77.2028 72.0931 77.1143 72.632L75.949 79.3558L75.5645 81.5058C75.5224 81.7456 75.454 81.9801 75.3605 82.2049L73.4028 81.0746C73.4028 81.0163 73.4494 80.9581 73.4669 80.8998C73.4986 80.8158 73.5258 80.7303 73.5485 80.6434C73.5485 80.5502 73.5951 80.4628 73.6126 80.3754L73.9855 78.2254L75.1799 71.5016C75.1786 71.4919 75.1786 71.4821 75.1799 71.4725C75.1799 71.4725 75.1799 71.4375 75.1799 71.4026C75.2781 70.9661 75.4474 70.5488 75.681 70.1673L75.7801 70.0042L77.7261 71.1345Z" fill="black"/>
<path opacity="0.15" d="M85.4287 56.3468C84.4344 58.0166 83.7365 59.846 83.3661 61.7538C83.0601 63.1035 82.545 64.3971 81.8395 65.5876L79.876 64.4573C79.9517 64.3233 80.0216 64.1951 80.0916 64.0553L80.4004 63.4726C80.4586 63.3444 80.5227 63.2221 80.581 63.0997C80.5959 63.0541 80.6134 63.0094 80.6334 62.9657C80.7092 62.8026 80.7791 62.6336 80.8432 62.4763C80.9073 62.319 80.9772 62.15 81.0355 61.9927C81.0355 61.9927 81.0355 61.9635 81.0355 61.9519C81.0821 61.8062 81.1345 61.6664 81.1753 61.5207C81.2161 61.3751 81.2627 61.2177 81.2977 61.0663C81.3326 60.9148 81.3676 60.7749 81.3967 60.6351C81.4258 60.4953 81.4608 60.268 81.5074 60.0874C81.5074 60.0058 81.5424 59.9301 81.5598 59.8485C81.5608 59.8369 81.5608 59.8252 81.5598 59.8136C81.6006 59.6621 81.6356 59.5106 81.6822 59.3533C81.7638 59.0561 81.8512 58.7706 81.9561 58.4734C82.0201 58.2753 82.0842 58.0831 82.1658 57.8908C82.2474 57.6752 82.3406 57.4596 82.4338 57.244C82.527 57.0285 82.6028 56.8478 82.7018 56.6614C82.7485 56.5565 82.8009 56.4575 82.8533 56.3526C82.9058 56.2477 82.9757 56.0962 83.0456 55.9739C83.0852 55.8829 83.132 55.7952 83.1855 55.7117C83.267 55.5602 83.3486 55.4087 83.4418 55.2572L85.4287 56.3468Z" fill="black"/>
<path d="M59.9783 98.8455L61.633 97.5171C60.9746 98.0473 60.0773 98.7407 59.9783 98.8455Z" fill="#47969D"/>
<path d="M104.371 69.2234C104.064 69.0774 103.727 69.0066 103.388 69.0167C103.048 69.0268 102.716 69.1177 102.419 69.2817C99.628 70.5169 98.7831 70.9189 97.1284 71.5773C96.6856 71.7521 95.7941 71.6123 96.0214 70.0974C96.0191 70.0644 96.0191 70.0313 96.0214 69.9983L96.4001 67.8483L97.4605 61.9868C97.4605 61.9868 97.6994 61.0604 97.0876 60.7167H97.041C96.8908 60.6428 96.7247 60.6067 96.5574 60.6118C96.2009 60.568 95.8588 60.4447 95.5563 60.2511C95.2538 60.0575 94.9985 59.7984 94.8094 59.4931C94.4823 59.0066 94.2555 58.4596 94.1424 57.8843C94.0294 57.3091 94.0323 56.717 94.151 56.1428C94.5997 53.6258 94.1103 51.8662 92.9857 51.2136L92.8983 51.1553C92.1758 50.7766 91.2145 50.8407 90.0841 51.435C87.1068 52.9965 84.1003 57.6286 83.3661 61.7887C82.9058 64.4107 80.2664 68.4485 78.7399 69.9459C77.2133 71.4433 77.1143 72.6785 77.1143 72.6785L75.949 79.4024L75.5644 81.5524C75.2847 83.1605 73.6358 84.7162 73.6358 84.7162L67.4597 89.2725C65.0092 91.2218 63.2405 93.8984 62.4081 96.9169C62.4081 96.9169 60.0775 98.6998 59.9609 98.8455L60.7475 98.3969L103.118 74.0361C103.118 74.0361 103.608 73.7739 103.701 73.704C103.794 73.6341 105.513 72.026 105.513 72.026C105.484 70.6392 105.082 69.6487 104.371 69.2234ZM92.1351 56.8653C91.6806 59.4232 89.8394 62.2723 88.0099 63.2337C86.7455 63.8921 85.8191 63.4843 85.5103 62.319C85.3748 61.6656 85.3748 60.9913 85.5103 60.3379C85.9589 57.7801 87.8118 54.9309 89.6413 53.9754C89.8106 53.8832 89.9881 53.8072 90.1715 53.7481C91.6689 53.2937 92.5138 54.5697 92.1234 56.8653H92.1351Z" fill="#47969D"/>
<path d="M59.9842 98.8513L103.147 74.042L103.73 73.7098C103.835 73.6457 105.542 72.026 105.542 72.026L62.4255 96.9169C62.4255 96.9169 59.8152 98.9446 59.9842 98.8513Z" fill="#47969D"/>
<path opacity="0.3" d="M59.9842 98.8513L103.147 74.042L103.73 73.7098C103.835 73.6457 105.542 72.026 105.542 72.026L62.4255 96.9169C62.4255 96.9169 59.8152 98.9446 59.9842 98.8513Z" fill="black"/>
<path d="M90.183 53.7481C89.9996 53.8072 89.8221 53.8832 89.6528 53.9754C87.8233 54.9309 85.9705 57.7801 85.5218 60.3379C85.3863 60.9913 85.3863 61.6656 85.5218 62.319C85.8306 63.4843 86.757 63.8921 88.0214 63.2337C89.8509 62.2723 91.6921 59.4232 92.1466 56.8653C92.5137 54.5697 91.6688 53.2936 90.183 53.7481ZM85.6383 62.2723C85.5095 61.6418 85.5095 60.9918 85.6383 60.3612C86.087 57.8325 87.9107 55.0183 89.7169 54.0802C89.8671 54.0009 90.0229 53.9327 90.183 53.8763C90.3024 54.4921 90.3024 55.125 90.183 55.7408C89.7344 58.2986 87.8874 61.1478 86.052 62.1092C85.9187 62.1794 85.7805 62.2398 85.6383 62.2898V62.2723Z" fill="#47969D"/>
<path opacity="0.4" d="M90.183 53.7481C89.9996 53.8072 89.8221 53.8832 89.6528 53.9754C87.8233 54.9309 85.9705 57.7801 85.5218 60.3379C85.3863 60.9913 85.3863 61.6656 85.5218 62.319C85.8306 63.4843 86.757 63.8921 88.0214 63.2337C89.8509 62.2723 91.6921 59.4232 92.1466 56.8653C92.5137 54.5697 91.6688 53.2936 90.183 53.7481ZM85.6383 62.2723C85.5095 61.6418 85.5095 60.9918 85.6383 60.3612C86.087 57.8325 87.9107 55.0183 89.7169 54.0802C89.8671 54.0009 90.0229 53.9327 90.183 53.8763C90.3024 54.4921 90.3024 55.125 90.183 55.7408C89.7344 58.2986 87.8874 61.1478 86.052 62.1092C85.9187 62.1794 85.7805 62.2398 85.6383 62.2898V62.2723Z" fill="black"/>
<path d="M56.197 131.771C56.1049 131.772 56.0145 131.747 55.9348 131.701C55.8389 131.64 55.762 131.552 55.7127 131.449C55.6633 131.347 55.6434 131.232 55.6551 131.119V128.631C55.6638 128.407 55.7267 128.189 55.8384 127.995C55.95 127.801 56.1071 127.638 56.2961 127.518L58.4694 126.265C58.5595 126.206 58.6644 126.172 58.7724 126.169C58.8804 126.165 58.9872 126.192 59.0809 126.246C59.1745 126.3 59.2514 126.378 59.3029 126.473C59.3544 126.568 59.3785 126.676 59.3725 126.784V129.295C59.3648 129.519 59.3023 129.737 59.1906 129.931C59.0788 130.125 58.9212 130.289 58.7315 130.408L56.5583 131.666C56.4491 131.732 56.3245 131.769 56.197 131.771ZM58.8306 126.679C58.7961 126.688 58.7628 126.702 58.7315 126.72L56.5583 127.972C56.449 128.046 56.3581 128.143 56.2925 128.258C56.2268 128.372 56.1882 128.499 56.1795 128.631V131.142C56.1698 131.176 56.1698 131.213 56.1795 131.247C56.2143 131.241 56.2478 131.229 56.2786 131.212L58.4519 129.953C58.5611 129.88 58.652 129.782 58.7176 129.668C58.7833 129.554 58.8219 129.426 58.8306 129.295V126.784C58.8335 126.759 58.8335 126.733 58.8306 126.708V126.679Z" fill="#455A64"/>
<path d="M61.2195 125.904L69.7845 120.957C70.07 120.794 70.2973 120.922 70.2973 121.249V121.919C70.287 122.095 70.2353 122.267 70.1462 122.42C70.0571 122.573 69.9332 122.702 69.7845 122.798L61.2195 127.745C60.9398 127.908 60.7068 127.78 60.7068 127.454V126.784C60.717 126.607 60.7688 126.435 60.8579 126.282C60.9469 126.13 61.0709 126 61.2195 125.904Z" fill="#E0E0E0"/>
<path d="M77.4229 119.518C77.3308 119.519 77.2402 119.495 77.1607 119.448C77.0638 119.387 76.9857 119.3 76.9353 119.197C76.8849 119.094 76.8641 118.98 76.8752 118.865V116.354C76.8851 116.13 76.949 115.912 77.0617 115.718C77.1743 115.524 77.3323 115.361 77.522 115.241L79.6953 113.989C79.7852 113.924 79.8915 113.887 80.0019 113.881C80.1123 113.874 80.2222 113.9 80.3187 113.954C80.4127 114.01 80.4888 114.092 80.5383 114.19C80.5878 114.288 80.6086 114.398 80.5984 114.507V117.018C80.5907 117.242 80.5282 117.461 80.4165 117.655C80.3048 117.849 80.1472 118.012 79.9575 118.131L77.7842 119.39C77.6774 119.464 77.5526 119.508 77.4229 119.518ZM80.0507 114.426C80.0188 114.437 79.9877 114.451 79.9575 114.466L77.7842 115.719C77.6742 115.792 77.5824 115.89 77.5158 116.004C77.4491 116.118 77.4094 116.246 77.3996 116.378V118.889C77.3881 118.923 77.3881 118.96 77.3996 118.994C77.4342 118.987 77.4675 118.975 77.4987 118.959L79.672 117.7C79.7818 117.627 79.8732 117.53 79.9389 117.416C80.0046 117.301 80.0429 117.173 80.0507 117.042V114.531C80.0611 114.496 80.0611 114.46 80.0507 114.426Z" fill="#455A64"/>
<path d="M82.4456 113.651L91.0106 108.704C91.2961 108.541 91.5233 108.669 91.5233 108.995V109.665C91.5131 109.842 91.4614 110.014 91.3723 110.167C91.2832 110.32 91.1593 110.449 91.0106 110.545L82.4456 115.492C82.1601 115.655 81.9329 115.527 81.9329 115.201V114.531C81.9462 114.355 81.9992 114.184 82.088 114.032C82.1769 113.879 82.2991 113.749 82.4456 113.651Z" fill="#E0E0E0"/>
<path d="M98.6432 107.265C98.5511 107.265 98.4606 107.241 98.381 107.195C98.286 107.132 98.2098 107.045 98.1606 106.942C98.1113 106.84 98.0909 106.726 98.1013 106.612V104.101C98.1105 103.878 98.1736 103.66 98.2852 103.466C98.3968 103.272 98.5536 103.108 98.7422 102.988L100.915 101.735C101.006 101.674 101.112 101.639 101.222 101.635C101.331 101.631 101.44 101.658 101.535 101.712C101.629 101.767 101.707 101.848 101.758 101.944C101.81 102.041 101.832 102.151 101.824 102.26V104.765C101.816 104.989 101.752 105.208 101.639 105.402C101.527 105.596 101.368 105.759 101.178 105.878L99.0044 107.137C98.8979 107.211 98.773 107.256 98.6432 107.265ZM99.0044 103.466C98.8961 103.54 98.8059 103.638 98.7403 103.752C98.6748 103.866 98.6356 103.993 98.6257 104.124V106.636C98.6141 106.67 98.6141 106.706 98.6257 106.74C98.6592 106.737 98.6912 106.725 98.7189 106.706L100.892 105.447C101.002 105.374 101.094 105.276 101.161 105.162C101.227 105.048 101.267 104.92 101.277 104.789V102.283C101.288 102.247 101.288 102.209 101.277 102.172C101.277 102.172 101.242 102.172 101.178 102.213L99.0044 103.466Z" fill="#455A64"/>
<path d="M103.671 101.398L112.236 96.4508C112.516 96.2877 112.749 96.4159 112.749 96.7422V97.4122C112.736 97.5881 112.683 97.7587 112.594 97.9111C112.505 98.0635 112.383 98.1937 112.236 98.292L103.671 103.239C103.386 103.402 103.159 103.274 103.159 102.947V102.277C103.169 102.101 103.221 101.929 103.31 101.776C103.399 101.623 103.523 101.494 103.671 101.398Z" fill="#E0E0E0"/>
<path d="M61.2427 113.645V114.624C61.2427 115.16 61.6156 115.375 62.0759 115.107L112.184 86.2019C112.427 86.0424 112.629 85.828 112.774 85.5759C112.918 85.3239 113.002 85.0414 113.017 84.7511V83.7664C113.017 83.2362 112.644 83.0206 112.184 83.2828L62.0759 112.194C61.8329 112.354 61.6309 112.568 61.4862 112.82C61.3415 113.072 61.258 113.355 61.2427 113.645Z" fill="#E0E0E0"/>
<path d="M57.4263 106V106.979C57.4263 107.515 57.7992 107.731 58.2653 107.463L108.344 78.5575C108.589 78.3993 108.793 78.1853 108.939 77.9331C109.084 77.6809 109.168 77.3977 109.183 77.1067V76.122C109.183 75.5918 108.81 75.3762 108.344 75.6384L58.2653 104.567C58.0229 104.724 57.8207 104.935 57.675 105.184C57.5292 105.433 57.4441 105.713 57.4263 106Z" fill="#455A64"/>
<path d="M61.2427 119.57V120.555C61.2427 121.085 61.6156 121.301 62.0759 121.039L112.184 92.1333C112.427 91.9738 112.629 91.7594 112.774 91.5073C112.918 91.2553 113.002 90.9728 113.017 90.6825V89.6978C113.017 89.1676 112.644 88.952 112.184 89.2142L62.0759 118.126C61.8337 118.284 61.6322 118.498 61.4875 118.749C61.3428 119 61.2589 119.281 61.2427 119.57Z" fill="#E0E0E0"/>
<path d="M55.7542 120.077C57.0652 118.778 57.3915 118.225 57.3915 117.747C57.3915 117.269 57.1992 117.013 56.6107 117.351C56.3563 117.499 56.1373 117.7 55.9692 117.942C55.8011 118.184 55.688 118.459 55.6377 118.749L54.2043 119.069C54.3291 118.318 54.6124 117.603 55.0354 116.97C55.4583 116.337 56.0112 115.801 56.6573 115.399C58.0906 114.571 58.9238 115.189 58.9238 116.564C58.8438 117.903 58.2611 119.162 57.2924 120.089V121.225L55.7542 122.111V120.077Z" fill="#455A64"/>
<path d="M55.7366 123.853C55.7343 123.573 55.8051 123.297 55.942 123.053C56.0789 122.809 56.2773 122.605 56.5174 122.46C57.0301 122.163 57.2923 122.426 57.2923 122.956C57.2967 123.237 57.2275 123.515 57.0916 123.761C56.9557 124.007 56.7577 124.214 56.5174 124.36C55.9988 124.657 55.7366 124.377 55.7366 123.853Z" fill="#455A64"/>
<path d="M56.5348 128.631L57.1757 129.114L56.5931 130.221C56.5429 130.289 56.5158 130.37 56.5158 130.454C56.5158 130.538 56.5429 130.62 56.5931 130.688C56.7038 130.769 56.8611 130.688 56.9543 130.513L57.537 129.412L58.1779 129.895C58.2711 129.965 58.4109 129.895 58.4925 129.744C58.5356 129.685 58.5588 129.615 58.5588 129.543C58.5588 129.47 58.5356 129.4 58.4925 129.342L57.8516 128.858L58.4342 127.751C58.4844 127.684 58.5114 127.602 58.5114 127.518C58.5114 127.434 58.4844 127.352 58.4342 127.285C58.3235 127.203 58.1662 127.285 58.073 127.46L57.4903 128.567L56.8494 128.083C56.7562 128.013 56.6164 128.083 56.5348 128.229C56.4917 128.287 56.4685 128.357 56.4685 128.43C56.4685 128.502 56.4917 128.573 56.5348 128.631Z" fill="#47969D"/>
<path d="M56.197 153.895C56.1055 153.897 56.0149 153.875 55.9348 153.831C55.8389 153.769 55.762 153.682 55.7127 153.579C55.6633 153.476 55.6434 153.361 55.6551 153.248V150.737C55.6628 150.513 55.7253 150.294 55.837 150.1C55.9488 149.906 56.1064 149.743 56.2961 149.624L58.4694 148.371C58.5595 148.311 58.6644 148.278 58.7724 148.275C58.8804 148.271 58.9872 148.298 59.0809 148.352C59.1745 148.406 59.2514 148.484 59.3029 148.579C59.3544 148.674 59.3785 148.782 59.3725 148.89V151.401C59.3648 151.625 59.3023 151.843 59.1906 152.037C59.0788 152.231 58.9212 152.395 58.7315 152.514L56.5583 153.766C56.4514 153.841 56.3267 153.885 56.197 153.895ZM58.8306 148.808C58.7951 148.815 58.7613 148.828 58.7315 148.849L56.5583 150.102C56.449 150.175 56.3581 150.273 56.2925 150.387C56.2268 150.501 56.1882 150.629 56.1795 150.76V153.271C56.1698 153.305 56.1698 153.342 56.1795 153.376C56.2143 153.37 56.2478 153.358 56.2786 153.341L58.4519 152.083C58.5611 152.009 58.652 151.911 58.7176 151.797C58.7833 151.683 58.8219 151.556 58.8306 151.424V148.913C58.8362 148.878 58.8362 148.843 58.8306 148.808Z" fill="#455A64"/>
<path d="M61.2195 148.027L69.7845 143.086C70.07 142.923 70.2973 143.051 70.2973 143.378V144.042C70.2879 144.22 70.2366 144.392 70.1475 144.546C70.0583 144.7 69.934 144.831 69.7845 144.928L61.2195 149.874C60.9398 150.037 60.7068 149.903 60.7068 149.577V148.913C60.7166 148.735 60.7681 148.563 60.8572 148.409C60.9463 148.255 61.0704 148.124 61.2195 148.027Z" fill="#E0E0E0"/>
<path d="M77.4229 141.641C77.3313 141.644 77.2406 141.622 77.1607 141.577C77.0638 141.516 76.9857 141.429 76.9353 141.327C76.8849 141.224 76.8641 141.109 76.8752 140.995V138.483C76.8841 138.259 76.9476 138.041 77.0604 137.847C77.1731 137.653 77.3316 137.489 77.522 137.371L79.6953 136.118C79.7852 136.053 79.8915 136.016 80.0019 136.01C80.1123 136.004 80.2222 136.029 80.3187 136.083C80.4127 136.139 80.4888 136.221 80.5383 136.319C80.5878 136.417 80.6086 136.527 80.5984 136.636V139.148C80.5907 139.371 80.5282 139.59 80.4165 139.784C80.3048 139.978 80.1472 140.142 79.9575 140.261L77.7842 141.513C77.6774 141.587 77.5526 141.632 77.4229 141.641ZM80.0507 136.555C80.0176 136.563 79.986 136.577 79.9575 136.596L77.7842 137.848C77.6742 137.922 77.5824 138.019 77.5158 138.133C77.4491 138.247 77.4094 138.375 77.3996 138.507V141.018C77.3881 141.052 77.3881 141.089 77.3996 141.123C77.4342 141.116 77.4675 141.104 77.4987 141.088L79.672 139.829C79.7812 139.756 79.8721 139.658 79.9377 139.544C80.0034 139.43 80.042 139.302 80.0507 139.171V136.66C80.0611 136.626 80.0611 136.589 80.0507 136.555Z" fill="#455A64"/>
<path d="M82.4456 135.774L91.0106 130.833C91.2961 130.67 91.5233 130.798 91.5233 131.124V131.789C91.514 131.966 91.4627 132.139 91.3736 132.293C91.2844 132.447 91.16 132.578 91.0106 132.674L82.4456 137.621C82.1601 137.784 81.9329 137.621 81.9329 137.324V136.66C81.9453 136.483 81.998 136.311 82.0868 136.158C82.1757 136.004 82.2984 135.873 82.4456 135.774Z" fill="#E0E0E0"/>
<path d="M98.6432 129.388C98.5516 129.391 98.4611 129.369 98.381 129.324C98.286 129.261 98.2098 129.174 98.1606 129.071C98.1113 128.969 98.0909 128.855 98.1013 128.741V126.23C98.1105 126.007 98.1736 125.789 98.2852 125.595C98.3968 125.401 98.5536 125.237 98.7422 125.117L100.915 123.865C101.006 123.803 101.111 123.769 101.22 123.764C101.329 123.76 101.437 123.787 101.532 123.841C101.626 123.895 101.704 123.974 101.756 124.07C101.807 124.166 101.831 124.274 101.824 124.383V126.894C101.816 127.119 101.752 127.337 101.639 127.531C101.527 127.725 101.368 127.889 101.178 128.007L99.0044 129.26C98.8979 129.335 98.773 129.379 98.6432 129.388ZM99.0044 125.595C98.8961 125.67 98.8059 125.767 98.7403 125.881C98.6748 125.995 98.6356 126.123 98.6257 126.254V128.765C98.6141 128.799 98.6141 128.836 98.6257 128.87C98.6582 128.862 98.6895 128.85 98.7189 128.835L100.892 127.576C101.002 127.503 101.094 127.406 101.161 127.291C101.227 127.177 101.267 127.05 101.277 126.918V124.407C101.287 124.372 101.287 124.336 101.277 124.302C101.242 124.31 101.208 124.324 101.178 124.342L99.0044 125.595Z" fill="#455A64"/>
<path d="M103.671 123.521L112.236 118.58C112.516 118.417 112.749 118.545 112.749 118.871V119.536C112.737 119.712 112.684 119.884 112.595 120.038C112.506 120.191 112.384 120.322 112.236 120.421L103.671 125.368C103.386 125.531 103.159 125.397 103.159 125.071V124.407C103.168 124.229 103.219 124.056 103.308 123.902C103.398 123.748 103.522 123.617 103.671 123.521Z" fill="#E0E0E0"/>
<path d="M61.2427 135.768V136.753C61.2427 137.283 61.6156 137.499 62.0759 137.237L112.184 108.331C112.427 108.172 112.629 107.957 112.774 107.705C112.918 107.453 113.002 107.171 113.017 106.88V105.896C113.017 105.365 112.644 105.15 112.184 105.412L62.0759 134.323C61.8337 134.482 61.6322 134.696 61.4875 134.947C61.3428 135.198 61.2589 135.479 61.2427 135.768Z" fill="#E0E0E0"/>
<path d="M61.2427 141.7V142.684C61.2427 143.215 61.6156 143.43 62.0759 143.168L112.184 114.257C112.428 114.099 112.63 113.886 112.775 113.635C112.92 113.383 113.003 113.101 113.017 112.812V111.827C113.017 111.291 112.644 111.075 112.184 111.343L62.0759 140.255C61.8337 140.414 61.6322 140.627 61.4875 140.878C61.3428 141.129 61.2589 141.41 61.2427 141.7Z" fill="#E0E0E0"/>
<path d="M55.7542 142.207C57.0652 140.907 57.3915 140.354 57.3915 139.876C57.3915 139.398 57.1992 139.142 56.6107 139.48C56.3563 139.628 56.1373 139.83 55.9692 140.071C55.8011 140.313 55.688 140.588 55.6377 140.878L54.2043 141.199C54.3291 140.448 54.6124 139.732 55.0354 139.099C55.4583 138.466 56.0112 137.93 56.6573 137.528C58.0906 136.701 58.9238 137.318 58.9238 138.722C58.8438 140.061 58.2611 141.32 57.2924 142.247V143.384L55.7542 144.269V142.207Z" fill="#455A64"/>
<path d="M55.7366 145.982C55.7343 145.702 55.8051 145.426 55.942 145.182C56.0789 144.938 56.2773 144.734 56.5174 144.59C57.0301 144.292 57.2923 144.555 57.2923 145.085C57.2962 145.366 57.2267 145.643 57.0908 145.89C56.955 146.136 56.7573 146.342 56.5174 146.489C55.9988 146.786 55.7366 146.518 55.7366 145.982Z" fill="#455A64"/>
<path d="M77.7609 138.483L78.4018 138.967L77.8192 140.074C77.769 140.141 77.742 140.223 77.742 140.307C77.742 140.391 77.769 140.473 77.8192 140.54C77.924 140.622 78.0872 140.54 78.1804 140.365L78.7631 139.264L79.404 139.748C79.4972 139.818 79.637 139.748 79.7128 139.596C79.7558 139.538 79.7791 139.468 79.7791 139.395C79.7791 139.323 79.7558 139.252 79.7128 139.194L79.0719 138.711L79.6545 137.604C79.7015 137.534 79.7241 137.45 79.7188 137.366C79.7136 137.281 79.6807 137.201 79.6254 137.137C79.5205 137.062 79.3574 137.138 79.2641 137.312L78.6815 138.419L78.0406 137.936C77.9532 137.866 77.8133 137.936 77.7318 138.081C77.6919 138.142 77.6731 138.215 77.6784 138.287C77.6836 138.36 77.7126 138.429 77.7609 138.483Z" fill="#47969D"/>
<path d="M56.197 176.024C56.1049 176.024 56.0144 176 55.9348 175.954C55.8408 175.897 55.7647 175.815 55.7152 175.717C55.6657 175.619 55.6449 175.51 55.6551 175.4V172.889C55.6628 172.665 55.7253 172.447 55.837 172.253C55.9488 172.059 56.1064 171.895 56.296 171.776L58.4693 170.524C58.5595 170.464 58.6644 170.431 58.7724 170.427C58.8803 170.424 58.9871 170.45 59.0808 170.504C59.1745 170.558 59.2514 170.637 59.3029 170.732C59.3544 170.827 59.3785 170.934 59.3725 171.042V173.553C59.3648 173.777 59.3023 173.996 59.1906 174.19C59.0788 174.384 58.9212 174.547 58.7315 174.666L56.5582 175.919C56.4491 175.985 56.3245 176.021 56.197 176.024ZM58.8306 170.937C58.7951 170.944 58.7613 170.958 58.7315 170.978L56.5582 172.231C56.449 172.304 56.3581 172.402 56.2925 172.516C56.2268 172.63 56.1882 172.758 56.1795 172.889V175.4C56.1706 175.435 56.1706 175.471 56.1795 175.505C56.215 175.499 56.2488 175.485 56.2786 175.464L58.4519 174.212C58.5611 174.138 58.652 174.041 58.7176 173.926C58.7833 173.812 58.8219 173.685 58.8306 173.553V171.042C58.8361 171.007 58.8361 170.972 58.8306 170.937Z" fill="#455A64"/>
<path d="M61.2195 170.156L69.7845 165.21C70.07 165.047 70.2973 165.181 70.2973 165.507V166.171C70.2879 166.349 70.2366 166.522 70.1475 166.676C70.0583 166.83 69.934 166.96 69.7845 167.057L61.2195 172.003C60.9398 172.167 60.7068 172.033 60.7068 171.706V171.042C60.7166 170.865 60.7681 170.692 60.8572 170.538C60.9463 170.384 61.0704 170.253 61.2195 170.156Z" fill="#E0E0E0"/>
<path d="M77.423 163.771C77.3309 163.772 77.2402 163.747 77.1608 163.701C77.0657 163.645 76.9884 163.563 76.9379 163.465C76.8873 163.367 76.8656 163.257 76.8753 163.147V160.636C76.8841 160.412 76.9477 160.193 77.0604 159.999C77.1731 159.805 77.3316 159.642 77.522 159.523L79.6953 158.27C79.7862 158.209 79.8919 158.172 80.0015 158.165C80.1111 158.158 80.2206 158.18 80.3188 158.23C80.4137 158.292 80.4899 158.38 80.5391 158.482C80.5884 158.585 80.6089 158.699 80.5984 158.812V161.323C80.5907 161.547 80.5283 161.766 80.4165 161.96C80.3048 162.154 80.1472 162.317 79.9575 162.436L77.7842 163.689C77.6728 163.747 77.5484 163.775 77.423 163.771ZM80.0507 158.684C80.0176 158.692 79.9861 158.706 79.9575 158.725L77.7842 159.978C77.6742 160.051 77.5824 160.148 77.5158 160.262C77.4492 160.376 77.4094 160.504 77.3997 160.636V163.147C77.3893 163.181 77.3893 163.218 77.3997 163.252C77.4349 163.245 77.4684 163.231 77.4987 163.211L79.6953 161.959C79.8045 161.885 79.8954 161.787 79.9611 161.673C80.0267 161.559 80.0654 161.432 80.074 161.3V158.789C80.0783 158.752 80.0701 158.715 80.0507 158.684Z" fill="#455A64"/>
<path d="M82.4456 157.903L91.0106 152.957C91.2961 152.799 91.5233 152.927 91.5233 153.254V153.918C91.514 154.096 91.4627 154.268 91.3736 154.422C91.2844 154.576 91.16 154.707 91.0106 154.804L82.4456 159.75C82.1601 159.913 81.9329 159.779 81.9329 159.453V158.789C81.9453 158.612 81.998 158.44 82.0868 158.287C82.1757 158.133 82.2984 158.002 82.4456 157.903Z" fill="#E0E0E0"/>
<path d="M98.6433 151.517C98.5512 151.518 98.4607 151.494 98.3811 151.447C98.2871 151.391 98.211 151.309 98.1615 151.211C98.112 151.113 98.0912 151.003 98.1014 150.894V148.383C98.1091 148.159 98.1716 147.94 98.2833 147.746C98.3951 147.552 98.5527 147.389 98.7423 147.27L100.916 146.017C101.005 145.954 101.11 145.916 101.219 145.91C101.328 145.903 101.437 145.927 101.533 145.98C101.629 146.032 101.708 146.11 101.762 146.205C101.815 146.301 101.841 146.409 101.836 146.518V149.029C101.827 149.254 101.764 149.472 101.651 149.666C101.538 149.86 101.38 150.024 101.189 150.142L99.0162 151.395C98.9057 151.47 98.7765 151.512 98.6433 151.517ZM99.0045 147.724C98.8962 147.799 98.806 147.897 98.7405 148.011C98.6749 148.124 98.6357 148.252 98.6258 148.383V150.894C98.6154 150.928 98.6154 150.965 98.6258 150.999C98.659 150.991 98.6905 150.977 98.719 150.958L100.892 149.705C101.002 149.632 101.094 149.535 101.161 149.421C101.227 149.307 101.267 149.179 101.277 149.047V146.518C101.287 146.484 101.287 146.448 101.277 146.413C101.243 146.421 101.209 146.433 101.178 146.448L99.0045 147.724Z" fill="#455A64"/>
<path d="M103.671 145.65L112.236 140.703C112.516 140.546 112.749 140.703 112.749 141V141.665C112.737 141.842 112.684 142.013 112.595 142.167C112.506 142.32 112.384 142.451 112.236 142.55L103.671 147.497C103.386 147.66 103.159 147.526 103.159 147.2V146.518C103.171 146.344 103.223 146.174 103.312 146.023C103.401 145.873 103.524 145.745 103.671 145.65Z" fill="#E0E0E0"/>
<path d="M61.2427 157.897V158.882C61.2427 159.412 61.6156 159.628 62.0759 159.366L112.184 130.454C112.428 130.297 112.63 130.084 112.775 129.832C112.92 129.581 113.003 129.299 113.017 129.009V128.025C113.017 127.495 112.644 127.273 112.184 127.541L62.0759 156.452C61.8337 156.611 61.6322 156.825 61.4875 157.076C61.3428 157.327 61.2589 157.608 61.2427 157.897Z" fill="#E0E0E0"/>
<path d="M61.2427 163.829V164.814C61.2427 165.344 61.6156 165.559 62.0759 165.291L112.184 136.386C112.427 136.228 112.629 136.014 112.774 135.763C112.918 135.512 113.002 135.23 113.017 134.941V133.956C113.017 133.42 112.644 133.205 112.184 133.473L62.0759 162.384C61.8331 162.542 61.631 162.755 61.4863 163.007C61.3415 163.258 61.258 163.539 61.2427 163.829Z" fill="#E0E0E0"/>
<path d="M55.7542 164.336C57.0652 163.036 57.3915 162.483 57.3915 162.005C57.3915 161.527 57.1992 161.265 56.6107 161.609C56.3563 161.757 56.1373 161.959 55.9692 162.2C55.8011 162.442 55.688 162.717 55.6377 163.007L54.2043 163.322C54.3299 162.572 54.6136 161.857 55.0365 161.226C55.4594 160.594 56.0119 160.059 56.6573 159.657C58.0906 158.83 58.9238 159.447 58.9238 160.822C58.8438 162.161 58.2611 163.42 57.2924 164.347V165.484L55.7542 166.369V164.336Z" fill="#455A64"/>
<path d="M55.7367 168.111C55.7339 167.83 55.8044 167.554 55.9413 167.308C56.0783 167.063 56.2768 166.858 56.5174 166.713C57.0301 166.422 57.2923 166.684 57.2923 167.214C57.2956 167.495 57.2259 167.772 57.0901 168.018C56.9543 168.264 56.757 168.471 56.5174 168.618C55.9988 168.915 55.7367 168.659 55.7367 168.111Z" fill="#455A64"/>
<path d="M98.9869 148.359L99.622 148.843L99.0394 149.95C98.9883 150.017 98.9607 150.099 98.9607 150.183C98.9607 150.267 98.9883 150.349 99.0394 150.416C99.1443 150.498 99.3074 150.416 99.4006 150.241L99.9833 149.134L100.624 149.618C100.717 149.688 100.851 149.618 100.933 149.472C100.977 149.414 101.001 149.344 101.001 149.271C101.001 149.199 100.977 149.128 100.933 149.07L100.292 148.587L100.875 147.48C100.919 147.409 100.94 147.325 100.935 147.242C100.93 147.158 100.898 147.078 100.846 147.013C100.741 146.932 100.578 147.013 100.484 147.188L99.9017 148.295L99.2608 147.806C99.1676 147.736 99.0277 147.806 98.952 147.957C98.9129 148.019 98.8951 148.092 98.9014 148.164C98.9077 148.237 98.9378 148.306 98.9869 148.359Z" fill="#47969D"/>
<path d="M56.197 198.153C56.1049 198.153 56.0144 198.129 55.9348 198.083C55.8408 198.026 55.7647 197.945 55.7152 197.847C55.6657 197.749 55.6449 197.639 55.6551 197.53V195.018C55.6628 194.795 55.7253 194.576 55.837 194.382C55.9488 194.188 56.1064 194.024 56.296 193.905L58.4693 192.647C58.5614 192.588 58.6672 192.554 58.7765 192.548C58.8857 192.541 58.9947 192.564 59.0928 192.612C59.1887 192.674 59.2655 192.761 59.3149 192.864C59.3643 192.967 59.3842 193.081 59.3725 193.195V195.706C59.3633 195.929 59.3002 196.147 59.1886 196.341C59.077 196.535 58.9202 196.699 58.7315 196.819L56.5582 198.071C56.4469 198.129 56.3224 198.157 56.197 198.153ZM58.8306 193.066C58.7958 193.072 58.7623 193.084 58.7315 193.101L56.5582 194.36C56.449 194.433 56.3581 194.531 56.2925 194.645C56.2268 194.759 56.1882 194.887 56.1795 195.018V197.53C56.1706 197.564 56.1706 197.6 56.1795 197.634C56.214 197.625 56.2473 197.611 56.2786 197.594L58.4519 196.341C58.5611 196.267 58.652 196.17 58.7176 196.056C58.7833 195.942 58.8219 195.814 58.8306 195.683V193.171C58.8369 193.137 58.8369 193.101 58.8306 193.066Z" fill="#455A64"/>
<path d="M61.2195 192.286L69.7845 187.339C70.07 187.176 70.2973 187.31 70.2973 187.636V188.3C70.2879 188.478 70.2366 188.651 70.1475 188.805C70.0583 188.959 69.934 189.089 69.7845 189.186L61.2195 194.133C60.9398 194.296 60.7068 194.133 60.7068 193.836V193.171C60.7166 192.994 60.7681 192.821 60.8572 192.667C60.9463 192.513 61.0704 192.383 61.2195 192.286Z" fill="#E0E0E0"/>
<path d="M77.4231 185.9C77.331 185.901 77.2403 185.877 77.1609 185.83C77.0609 185.772 76.9804 185.686 76.9296 185.582C76.8787 185.478 76.8599 185.362 76.8754 185.247V182.736C76.8842 182.512 76.9478 182.293 77.0605 182.099C77.1733 181.905 77.3317 181.742 77.5222 181.623L79.6955 180.365C79.786 180.305 79.8915 180.271 80 180.268C80.1086 180.265 80.2159 180.292 80.3098 180.346C80.4037 180.401 80.4805 180.481 80.5315 180.577C80.5825 180.672 80.6058 180.781 80.5986 180.889V183.4C80.5909 183.624 80.5284 183.842 80.4167 184.036C80.3049 184.23 80.1473 184.394 79.9576 184.513L77.7843 185.766C77.6781 185.842 77.5534 185.888 77.4231 185.9ZM80.0509 180.813C80.0184 180.821 79.987 180.832 79.9576 180.848L77.7843 182.107C77.6744 182.18 77.5826 182.277 77.5159 182.391C77.4493 182.505 77.4096 182.633 77.3998 182.765V185.276C77.3894 185.31 77.3894 185.347 77.3998 185.381C77.4339 185.37 77.467 185.357 77.4988 185.34L79.6721 184.088C79.7814 184.014 79.8723 183.917 79.9379 183.802C80.0036 183.688 80.0422 183.561 80.0509 183.429V180.895C80.0578 180.868 80.0578 180.84 80.0509 180.813Z" fill="#455A64"/>
<path d="M82.4456 180.032L91.0106 175.086C91.2961 174.923 91.5233 175.086 91.5233 175.383V176.047C91.514 176.225 91.4627 176.398 91.3736 176.552C91.2844 176.706 91.16 176.836 91.0106 176.933L82.4456 181.879C82.1601 182.043 81.9329 181.909 81.9329 181.582V180.895C81.9487 180.722 82.003 180.555 82.0917 180.406C82.1804 180.256 82.3013 180.129 82.4456 180.032Z" fill="#E0E0E0"/>
<path d="M98.6433 173.647C98.5512 173.647 98.4607 173.623 98.3811 173.577C98.2871 173.52 98.211 173.438 98.1615 173.34C98.112 173.242 98.0912 173.132 98.1014 173.023V170.512C98.1091 170.288 98.1716 170.07 98.2833 169.876C98.3951 169.682 98.5527 169.518 98.7423 169.399L100.916 168.14C101.009 168.081 101.116 168.047 101.226 168.041C101.336 168.035 101.446 168.057 101.545 168.106C101.64 168.168 101.716 168.256 101.765 168.358C101.815 168.461 101.835 168.575 101.825 168.688V171.199C101.815 171.423 101.751 171.642 101.638 171.835C101.526 172.029 101.368 172.193 101.178 172.312L99.0045 173.565C98.8933 173.623 98.7688 173.651 98.6433 173.647ZM99.0045 169.853C98.8962 169.928 98.806 170.026 98.7405 170.14C98.6749 170.254 98.6357 170.381 98.6258 170.512V173.023C98.6154 173.057 98.6154 173.094 98.6258 173.128C98.6577 173.116 98.6888 173.103 98.719 173.087L100.892 171.835C101.002 171.761 101.094 171.664 101.161 171.55C101.227 171.436 101.267 171.308 101.277 171.176V168.659C101.288 168.625 101.288 168.588 101.277 168.554C101.243 168.562 101.209 168.574 101.178 168.589L99.0045 169.853Z" fill="#455A64"/>
<path d="M103.671 167.779L112.236 162.833C112.516 162.669 112.749 162.803 112.749 163.13V163.794C112.737 163.971 112.684 164.143 112.595 164.296C112.506 164.449 112.384 164.581 112.236 164.68L103.671 169.626C103.386 169.789 103.159 169.626 103.159 169.329V168.659C103.169 168.482 103.221 168.311 103.31 168.158C103.399 168.005 103.523 167.875 103.671 167.779Z" fill="#E0E0E0"/>
<path d="M61.2427 180.027V181.011C61.2427 181.542 61.6156 181.757 62.0759 181.489L112.184 152.584C112.427 152.425 112.629 152.212 112.774 151.961C112.918 151.71 113.002 151.428 113.017 151.139V150.154C113.017 149.618 112.644 149.402 112.184 149.67L62.0759 178.582C61.8331 178.74 61.631 178.953 61.4863 179.204C61.3415 179.455 61.258 179.737 61.2427 180.027Z" fill="#E0E0E0"/>
<path d="M61.2427 185.958V186.943C61.2427 187.473 61.6156 187.689 62.0759 187.42L112.184 158.515C112.426 158.356 112.628 158.143 112.772 157.892C112.917 157.641 113.001 157.359 113.017 157.07V156.085C113.017 155.549 112.644 155.334 112.184 155.602L62.0759 184.513C61.8331 184.671 61.631 184.885 61.4863 185.136C61.3415 185.387 61.258 185.669 61.2427 185.958Z" fill="#E0E0E0"/>
<path d="M55.7542 186.465C57.0652 185.166 57.3915 184.612 57.3915 184.134C57.3915 183.657 57.1992 183.394 56.6107 183.738C56.3569 183.885 56.1384 184.086 55.9703 184.327C55.8023 184.567 55.6887 184.842 55.6377 185.131L54.2043 185.451C54.3299 184.701 54.6136 183.987 55.0365 183.355C55.4594 182.723 56.0119 182.188 56.6573 181.786C58.0906 180.959 58.9238 181.576 58.9238 182.981C58.8438 184.319 58.2611 185.578 57.2924 186.506V187.642L55.7542 188.527V186.465Z" fill="#455A64"/>
<path d="M55.7367 190.217C55.7339 189.936 55.8044 189.66 55.9413 189.414C56.0783 189.169 56.2768 188.964 56.5174 188.819C57.0301 188.528 57.2923 188.784 57.2923 189.32C57.2963 189.6 57.2269 189.877 57.091 190.122C56.955 190.368 56.7573 190.573 56.5174 190.718C55.9988 191.045 55.7367 190.8 55.7367 190.217Z" fill="#455A64"/>
<path d="M98.9869 170.582L99.622 171.065L99.0394 172.172C98.9883 172.239 98.9607 172.321 98.9607 172.405C98.9607 172.49 98.9883 172.572 99.0394 172.639C99.1443 172.72 99.3074 172.639 99.4006 172.464L99.9833 171.357L100.624 171.846C100.717 171.916 100.851 171.846 100.933 171.695C100.977 171.637 101.001 171.566 101.001 171.494C101.001 171.421 100.977 171.35 100.933 171.293L100.292 170.809L100.875 169.702C100.919 169.631 100.94 169.548 100.935 169.464C100.93 169.381 100.898 169.301 100.846 169.236C100.741 169.154 100.578 169.236 100.484 169.411L99.9017 170.518L99.2608 170.028C99.1676 169.964 99.0277 170.028 98.952 170.18C98.9129 170.241 98.8951 170.314 98.9014 170.387C98.9077 170.459 98.9378 170.528 98.9869 170.582Z" fill="#47969D"/>
<path d="M155.749 76.2852L151.467 73.8147L151.426 73.7856C149.294 72.5795 146.375 72.7601 143.141 74.6305C140.111 76.3784 137.349 79.2917 135.269 82.6536C132.863 86.5341 131.354 91.0205 131.354 95.0466C131.354 98.8048 132.665 101.456 134.791 102.674L139.144 105.161C141.288 106.531 144.324 106.408 147.686 104.468C154.2 100.704 159.478 91.5624 159.478 84.0461C159.473 80.1482 158.039 77.4505 155.749 76.2852Z" fill="#47969D"/>
<path opacity="0.1" d="M139.05 105.15L134.785 102.709C132.659 101.473 131.348 98.8339 131.348 95.0816C131.348 91.0555 132.857 86.569 135.263 82.6886L139.814 85.3163C137.407 89.191 135.898 93.6774 135.898 97.6977C135.887 101.264 137.087 103.833 139.05 105.15Z" fill="black"/>
<path opacity="0.4" d="M155.662 76.2386C153.564 75.219 150.762 75.4753 147.679 77.2524C144.597 79.0295 141.888 81.9136 139.802 85.293L135.251 82.6653C137.332 79.2917 140.099 76.3843 143.123 74.6421C146.357 72.7718 149.276 72.597 151.408 73.7973L151.449 73.8264L155.662 76.2386Z" fill="white"/>
<path d="M145.075 87.3556C145.083 87.8094 144.987 88.259 144.793 88.6693C144.598 89.0796 144.312 89.4396 143.956 89.7212C143.339 90.0766 142.838 89.5988 142.838 88.6491C142.829 88.1953 142.926 87.7457 143.12 87.3354C143.314 86.9251 143.6 86.5651 143.956 86.2835C144.574 85.9223 145.075 86.4059 145.075 87.3556Z" fill="#455A64"/>
<path d="M151.443 83.6791C151.452 84.1329 151.355 84.5824 151.161 84.9928C150.967 85.4031 150.681 85.7631 150.325 86.0446C149.707 86.4001 149.206 85.9223 149.206 84.9726C149.198 84.5187 149.295 84.0692 149.489 83.6589C149.683 83.2485 149.969 82.8886 150.325 82.607C150.942 82.2516 151.443 82.7293 151.443 83.6791Z" fill="#455A64"/>
<path d="M141.27 101.561C141.226 101.566 141.181 101.566 141.136 101.561C141.054 101.544 140.975 101.511 140.905 101.464C140.836 101.417 140.776 101.356 140.73 101.286C140.684 101.215 140.652 101.136 140.637 101.053C140.622 100.971 140.623 100.886 140.641 100.803C141.655 95.9847 144.236 91.7663 147.213 90.0475C147.819 89.645 148.511 89.3901 149.234 89.3031C149.956 89.2161 150.689 89.2994 151.373 89.5464C152.778 90.129 153.861 91.5332 154.421 93.5259C154.449 93.6844 154.417 93.8478 154.331 93.984C154.245 94.1203 154.112 94.2196 153.957 94.2626C153.801 94.3055 153.636 94.2891 153.492 94.2164C153.348 94.1438 153.237 94.0201 153.18 93.8697C152.737 92.2732 151.921 91.1603 150.89 90.735C150.387 90.5698 149.852 90.5228 149.328 90.5976C148.803 90.6724 148.303 90.8669 147.866 91.1662C145.232 92.6869 142.838 96.6664 141.911 101.071C141.876 101.213 141.793 101.339 141.676 101.428C141.56 101.517 141.417 101.564 141.27 101.561Z" fill="#455A64"/>
<path d="M155.749 39.0072L151.467 36.5367H151.426C149.293 35.3306 146.374 35.5112 143.141 37.3816C140.111 39.1295 137.349 42.0428 135.269 45.4047C132.863 49.2852 131.354 53.7716 131.354 57.7977C131.354 61.5558 132.664 64.2069 134.791 65.4247L139.144 67.9126C141.288 69.2818 144.323 69.1595 147.685 67.2192C154.199 63.4553 159.478 54.3135 159.478 46.8264C159.472 42.8702 158.039 40.1725 155.749 39.0072Z" fill="#47969D"/>
<path opacity="0.1" d="M139.05 67.86L134.785 65.4187C132.659 64.1835 131.348 61.5441 131.348 57.7918C131.348 53.7656 132.857 49.2792 135.263 45.3987L139.814 48.0265C137.407 51.9012 135.898 56.3876 135.898 60.4079C135.887 63.9854 137.087 66.5549 139.05 67.86Z" fill="black"/>
<path opacity="0.4" d="M155.662 38.9604C153.564 37.9408 150.762 38.1972 147.679 39.9743C144.597 41.7513 141.888 44.6355 139.802 48.0149L135.251 45.3871C137.332 42.0135 140.099 39.1061 143.123 37.364C146.357 35.4937 149.276 35.3189 151.408 36.5191H151.449L155.662 38.9604Z" fill="white"/>
<path d="M145.005 62.4355C144.452 62.4371 143.903 62.3302 143.391 62.1209C141.87 61.4975 140.705 59.9767 140.105 57.8267C140.064 57.6527 140.093 57.4698 140.184 57.316C140.275 57.1623 140.422 57.0496 140.594 57.0015C140.766 56.9534 140.95 56.9736 141.107 57.0579C141.265 57.1422 141.384 57.284 141.439 57.4538C141.923 59.2018 142.803 60.3671 143.916 60.8391C144.46 61.0206 145.039 61.0736 145.607 60.9937C146.175 60.9139 146.717 60.7034 147.19 60.3788C150.028 58.7415 152.615 54.4415 153.599 49.6871C153.638 49.5078 153.747 49.3511 153.9 49.2508C154.054 49.1505 154.241 49.1147 154.421 49.151C154.51 49.1697 154.595 49.2058 154.67 49.2573C154.745 49.3087 154.809 49.3744 154.859 49.4507C154.909 49.527 154.943 49.6124 154.96 49.7019C154.977 49.7915 154.976 49.8834 154.957 49.9726C153.861 55.1698 151.076 59.7262 147.866 61.5849C147.002 62.112 146.016 62.4052 145.005 62.4355Z" fill="#455A64"/>
<path d="M144.877 50.899C144.885 51.3893 144.781 51.8749 144.572 52.3184C144.363 52.7619 144.054 53.1514 143.671 53.4568C143.001 53.8414 142.465 53.3228 142.465 52.2915C142.455 51.8019 142.559 51.3166 142.768 50.8738C142.977 50.4311 143.286 50.0428 143.671 49.7395C144.335 49.355 144.877 49.8735 144.877 50.899Z" fill="#455A64"/>
<path d="M151.752 46.9311C151.761 47.4205 151.656 47.9054 151.447 48.3479C151.238 48.7905 150.93 49.1789 150.546 49.4831C149.882 49.8677 149.34 49.3491 149.34 48.3178C149.332 47.8284 149.436 47.3436 149.645 46.901C149.854 46.4584 150.163 46.07 150.546 45.7658C151.21 45.3813 151.752 45.9056 151.752 46.9311Z" fill="#455A64"/>
<path d="M164.512 143.931L133.632 161.76C133.321 161.919 132.978 162.001 132.629 162.001C132.281 162.001 131.938 161.919 131.627 161.76L129.99 160.811C129.697 160.619 129.453 160.361 129.279 160.057C129.104 159.753 129.005 159.413 128.988 159.063V123.404C129.005 123.054 129.104 122.714 129.279 122.41C129.453 122.106 129.697 121.848 129.99 121.656L160.871 103.827C161.18 103.669 161.522 103.587 161.87 103.587C162.217 103.587 162.56 103.669 162.869 103.827L164.506 104.783C164.8 104.973 165.045 105.231 165.219 105.535C165.393 105.839 165.493 106.181 165.509 106.531V142.195C165.49 142.542 165.391 142.88 165.218 143.182C165.045 143.484 164.803 143.74 164.512 143.931Z" fill="#455A64"/>
<path d="M133.463 161.836C133.169 161.954 132.853 162.008 132.537 161.995C132.22 161.982 131.91 161.902 131.627 161.76L129.99 160.805C129.697 160.614 129.453 160.356 129.28 160.052C129.107 159.748 129.008 159.407 128.994 159.057V123.399C129.002 123.049 129.103 122.707 129.285 122.408L132.921 124.523C132.741 124.821 132.641 125.16 132.629 125.508V161.166C132.629 161.755 132.985 162.023 133.463 161.836Z" fill="#263238"/>
<path d="M164.512 143.931L133.632 161.76C133.078 162.081 132.629 161.825 132.629 161.178V125.543C132.646 125.193 132.746 124.852 132.92 124.548C133.094 124.244 133.338 123.986 133.632 123.795L164.512 105.966C165.066 105.645 165.514 105.907 165.514 106.548V142.212C165.493 142.557 165.391 142.892 165.217 143.191C165.043 143.489 164.802 143.743 164.512 143.931Z" fill="#37474F"/>
<path fill-rule="evenodd" clip-rule="evenodd" d="M148.227 135.046L139.837 146.932C143.543 150.678 150.674 147.864 155.767 140.645C158.826 136.316 160.469 131.643 160.469 127.279L150.313 133.117C149.507 133.629 148.8 134.282 148.227 135.046Z" fill="#47969D"/>
<path opacity="0.3" fill-rule="evenodd" clip-rule="evenodd" d="M148.227 135.046L139.837 146.932C143.543 150.678 150.674 147.864 155.767 140.645C158.826 136.316 160.469 131.643 160.469 127.279L150.313 133.117C149.507 133.629 148.8 134.282 148.227 135.046Z" fill="black"/>
<path d="M139.411 146.629L147.802 134.743C148.418 133.924 149.181 133.227 150.051 132.686L160.206 126.825C160.286 126.778 160.377 126.754 160.469 126.754C160.561 126.754 160.651 126.779 160.731 126.825C160.811 126.871 160.877 126.937 160.923 127.017C160.969 127.096 160.993 127.187 160.993 127.279C160.993 131.777 159.332 136.508 156.198 140.948C152.824 145.726 148.489 148.767 144.603 149.105C143.667 149.214 142.718 149.109 141.829 148.799C140.939 148.489 140.13 147.983 139.464 147.316C139.383 147.235 139.332 147.129 139.317 147.016C139.302 146.902 139.325 146.787 139.382 146.687C139.386 146.665 139.396 146.645 139.411 146.629ZM159.921 128.2L150.598 133.595C149.858 134.057 149.206 134.649 148.676 135.343L140.548 146.85C141.099 147.302 141.737 147.639 142.422 147.839C143.106 148.039 143.824 148.099 144.533 148.016C148.064 147.724 152.212 144.776 155.353 140.319C155.889 139.567 156.372 138.804 156.815 138.041C158.609 135.05 159.673 131.678 159.921 128.2Z" fill="white"/>
<path fill-rule="evenodd" clip-rule="evenodd" d="M148.606 132.494L145.535 123.375C139.546 129.079 136.265 138.402 138.211 144.193C138.524 145.223 139.08 146.162 139.831 146.932L148.221 135.046C148.459 134.67 148.616 134.25 148.682 133.81C148.749 133.371 148.723 132.923 148.606 132.494Z" fill="#47969D"/>
<path d="M145.18 122.997C145.243 122.935 145.32 122.891 145.404 122.867C145.489 122.844 145.578 122.842 145.663 122.863C145.749 122.885 145.828 122.928 145.893 122.988C145.958 123.048 146.007 123.123 146.036 123.206L149.101 132.325C149.243 132.832 149.277 133.363 149.201 133.884C149.125 134.405 148.94 134.904 148.658 135.349L140.291 147.235C140.246 147.296 140.188 147.346 140.122 147.384C140.056 147.421 139.982 147.444 139.907 147.45C139.83 147.458 139.752 147.449 139.68 147.423C139.607 147.397 139.541 147.354 139.487 147.299C138.682 146.48 138.083 145.481 137.739 144.386C136.323 140.173 137.582 134.149 140.6 128.922C141.835 126.738 143.378 124.742 145.18 122.997ZM147.802 134.743C147.991 134.434 148.115 134.09 148.167 133.731C148.22 133.372 148.198 133.007 148.105 132.657L145.308 124.337C139.843 129.942 136.895 138.612 138.712 144.03C138.945 144.775 139.31 145.472 139.79 146.087L147.802 134.743Z" fill="white"/>
<path fill-rule="evenodd" clip-rule="evenodd" d="M149.899 132.68L158.289 120.794C155.33 117.799 150.33 118.807 145.541 123.375L148.606 132.494C148.856 133.251 149.439 133.333 149.899 132.68Z" fill="#47969D"/>
<path opacity="0.1" fill-rule="evenodd" clip-rule="evenodd" d="M149.899 132.68L158.289 120.794C155.33 117.799 150.33 118.807 145.541 123.375L148.606 132.494C148.856 133.251 149.439 133.333 149.899 132.68Z" fill="black"/>
<path d="M145.18 122.997C150.191 118.219 155.487 117.211 158.662 120.427C158.749 120.514 158.802 120.629 158.813 120.751C158.824 120.874 158.791 120.996 158.721 121.097L150.325 132.983C150.221 133.215 150.044 133.407 149.822 133.529C149.599 133.652 149.342 133.698 149.091 133.661C148.84 133.624 148.607 133.506 148.429 133.325C148.251 133.143 148.137 132.909 148.105 132.657L145.04 123.538C145.017 123.468 145.009 123.394 145.017 123.321C145.025 123.247 145.049 123.177 145.086 123.113C145.109 123.068 145.141 123.028 145.18 122.997ZM157.596 120.881C154.875 118.551 150.459 119.547 146.141 123.538L149.101 132.336C149.133 132.434 149.18 132.527 149.241 132.61C149.336 132.559 149.414 132.482 149.468 132.389L157.596 120.881Z" fill="white"/>
<path fill-rule="evenodd" clip-rule="evenodd" d="M150.313 133.117L160.469 127.291C160.469 124.377 159.769 122.309 158.29 120.806L149.899 132.692C149.439 133.333 149.614 133.537 150.313 133.117Z" fill="#47969D"/>
<path opacity="0.2" fill-rule="evenodd" clip-rule="evenodd" d="M150.313 133.117L160.469 127.291C160.469 124.377 159.769 122.309 158.29 120.806L149.899 132.692C149.439 133.333 149.614 133.537 150.313 133.117Z" fill="black"/>
<path d="M149.468 132.377L157.864 120.491C157.908 120.429 157.966 120.378 158.032 120.34C158.099 120.303 158.173 120.281 158.249 120.276C158.324 120.268 158.401 120.278 158.473 120.304C158.544 120.33 158.609 120.372 158.662 120.427C160.253 122.035 160.993 124.214 160.993 127.279C160.993 127.371 160.969 127.462 160.923 127.541C160.877 127.621 160.81 127.687 160.731 127.734L150.581 133.595C150.359 133.723 149.695 134.108 149.287 133.659C149.173 133.509 149.112 133.326 149.112 133.138C149.112 132.949 149.173 132.766 149.287 132.616L149.468 132.377ZM158.353 121.639L150.89 132.214L159.956 126.97C159.897 124.657 159.385 122.938 158.353 121.639Z" fill="white"/>
<path d="M229.292 90.2922C228.753 90.0322 228.161 89.9026 227.562 89.9137C226.964 89.9248 226.377 90.0764 225.848 90.3563L172.745 121.015C172.233 121.355 171.808 121.811 171.505 122.345C171.201 122.88 171.027 123.478 170.997 124.092V139.241C170.974 139.847 171.117 140.448 171.41 140.978C171.703 141.509 172.136 141.95 172.661 142.253C173.186 142.557 173.784 142.711 174.39 142.7C174.996 142.688 175.588 142.512 176.101 142.189L229.204 111.53C229.716 111.19 230.141 110.734 230.445 110.2C230.749 109.666 230.922 109.067 230.952 108.453V93.3045C230.931 92.7073 230.77 92.1236 230.481 91.6003C230.193 91.077 229.785 90.6289 229.292 90.2922Z" fill="#263238"/>
<path d="M230.935 92.984C230.789 92.0867 230.061 91.7721 229.187 92.2848L207.046 105.062L176.084 122.938C175.558 123.264 175.125 123.72 174.825 124.261L171.492 122.338C171.792 121.797 172.223 121.34 172.745 121.01L225.848 90.3563C226.337 90.0461 226.899 89.8694 227.477 89.8438C228.056 89.8183 228.631 89.9447 229.146 90.2104C229.66 90.4762 230.096 90.8721 230.41 91.3588C230.724 91.8454 230.905 92.4057 230.935 92.984Z" fill="#455A64"/>
<path d="M174.301 126.015V141.164C174.301 142.294 175.099 142.754 176.078 142.189L229.181 111.53C229.693 111.19 230.118 110.734 230.422 110.2C230.725 109.666 230.899 109.067 230.929 108.453V93.3045C230.929 92.1741 230.136 91.7138 229.181 92.279L207.04 105.062L176.072 122.938C175.556 123.276 175.127 123.73 174.819 124.265C174.511 124.799 174.334 125.399 174.301 126.015Z" fill="#37474F"/>
<path d="M183.332 123.795L184.2 125.636C184.21 125.662 184.226 125.686 184.245 125.706C184.265 125.727 184.289 125.742 184.315 125.753C184.342 125.763 184.37 125.768 184.398 125.767C184.426 125.766 184.454 125.759 184.48 125.747L186.42 125.007C186.729 124.884 186.851 125.321 186.63 125.741L185.225 128.374C185.141 128.527 185.102 128.701 185.115 128.875L185.447 131.264C185.499 131.643 185.179 132.138 184.905 132.103L183.157 131.888C183.087 131.891 183.018 131.911 182.957 131.947C182.896 131.982 182.845 132.032 182.807 132.092L181.059 134.312C180.786 134.661 180.477 134.533 180.518 134.096L180.85 131.328C180.864 131.261 180.862 131.191 180.842 131.125C180.823 131.059 180.788 130.999 180.739 130.95L179.335 129.936C179.113 129.773 179.236 129.196 179.545 128.963L181.485 127.465C181.621 127.352 181.718 127.199 181.764 127.028L182.633 124.185C182.825 123.736 183.192 123.509 183.332 123.795Z" fill="#47969D"/>
<path d="M193.15 118.178L194.018 120.019C194.027 120.046 194.042 120.071 194.062 120.091C194.082 120.112 194.106 120.128 194.132 120.139C194.159 120.149 194.187 120.154 194.216 120.152C194.244 120.151 194.272 120.143 194.297 120.13L196.238 119.39C196.546 119.268 196.669 119.704 196.447 120.124L195.061 122.758C194.976 122.912 194.937 123.088 194.95 123.265L195.282 125.648C195.334 126.026 195.014 126.522 194.74 126.487L192.992 126.277C192.922 126.277 192.853 126.296 192.792 126.331C192.731 126.365 192.679 126.415 192.643 126.475L190.895 128.695C190.621 129.044 190.312 128.922 190.353 128.479L190.685 125.712C190.699 125.644 190.697 125.574 190.678 125.508C190.658 125.442 190.623 125.382 190.574 125.333L189.17 124.319C188.949 124.156 189.071 123.585 189.38 123.346L191.32 121.849C191.456 121.735 191.554 121.583 191.6 121.412L192.468 118.568C192.613 118.114 193.01 117.887 193.15 118.178Z" fill="#47969D"/>
<path d="M202.967 112.561L203.835 114.402C203.846 114.429 203.861 114.453 203.881 114.473C203.901 114.493 203.925 114.509 203.951 114.519C203.977 114.53 204.005 114.534 204.034 114.533C204.062 114.532 204.09 114.525 204.115 114.513L206.055 113.767C206.364 113.651 206.487 114.082 206.265 114.501L204.861 117.135C204.777 117.29 204.738 117.466 204.75 117.642L205.082 120.025C205.135 120.404 204.814 120.905 204.54 120.87L202.793 120.654C202.722 120.657 202.654 120.678 202.593 120.713C202.532 120.749 202.48 120.798 202.443 120.858L200.695 123.072C200.421 123.428 200.112 123.299 200.153 122.862L200.485 120.095C200.5 120.027 200.497 119.956 200.478 119.889C200.459 119.822 200.423 119.76 200.375 119.71L198.97 118.696C198.749 118.539 198.871 117.962 199.18 117.723L201.12 116.226C201.256 116.113 201.354 115.96 201.4 115.789L202.268 112.946C202.431 112.497 202.827 112.264 202.967 112.561Z" fill="#47969D"/>
<path d="M212.785 106.939L213.653 108.78C213.663 108.806 213.679 108.83 213.699 108.85C213.718 108.87 213.742 108.886 213.769 108.897C213.795 108.907 213.823 108.912 213.851 108.911C213.88 108.91 213.907 108.903 213.933 108.89L215.873 108.145C216.182 108.028 216.304 108.459 216.083 108.879L214.679 111.512C214.594 111.667 214.556 111.843 214.568 112.019L214.9 114.402C214.952 114.781 214.632 115.282 214.358 115.247L212.61 115.032C212.54 115.035 212.471 115.055 212.41 115.091C212.349 115.126 212.298 115.176 212.261 115.236L210.513 117.45C210.239 117.805 209.93 117.677 209.971 117.24L210.303 114.472C210.317 114.405 210.315 114.335 210.296 114.269C210.276 114.203 210.241 114.142 210.192 114.094L208.788 113.08C208.567 112.917 208.689 112.34 208.998 112.101L210.938 110.609C211.071 110.494 211.169 110.342 211.218 110.172L212.086 107.329C212.249 106.898 212.645 106.647 212.785 106.939Z" fill="#47969D"/>
<path d="M222.603 101.316L223.471 103.157C223.481 103.184 223.496 103.208 223.516 103.228C223.536 103.248 223.56 103.264 223.586 103.274C223.613 103.284 223.641 103.289 223.669 103.288C223.697 103.287 223.725 103.28 223.751 103.268L225.691 102.528C226 102.406 226.122 102.842 225.901 103.262L224.496 105.896C224.412 106.048 224.373 106.222 224.386 106.397L224.718 108.786C224.77 109.164 224.45 109.66 224.176 109.625L222.428 109.409C222.358 109.412 222.289 109.433 222.228 109.468C222.167 109.504 222.116 109.553 222.078 109.613L220.33 111.833C220.056 112.182 219.748 112.054 219.788 111.617L220.121 108.85C220.135 108.782 220.133 108.712 220.113 108.646C220.094 108.58 220.058 108.52 220.01 108.471L218.629 107.48C218.408 107.317 218.53 106.74 218.839 106.507L220.779 105.01C220.915 104.896 221.013 104.744 221.059 104.573L221.927 101.73C222.067 101.252 222.445 101.025 222.603 101.316Z" fill="#47969D"/>
<path d="M181.869 114.105L178.956 112.427C178.898 112.401 178.85 112.359 178.816 112.305L178.28 111.373L180.028 110.376L179.976 110.528L181.869 114.105Z" fill="#47969D"/>
<path opacity="0.2" d="M181.869 114.105L178.956 112.427C178.898 112.401 178.85 112.359 178.816 112.305L178.28 111.373L180.028 110.376L179.976 110.528L181.869 114.105Z" fill="black"/>
<path d="M179.754 110.516L181.77 114.012C181.799 114.062 181.841 114.104 181.892 114.13C181.943 114.157 182.001 114.168 182.058 114.163C182.116 114.157 182.171 114.135 182.216 114.099C182.261 114.063 182.294 114.014 182.312 113.96L184.439 107.824L179.754 110.516Z" fill="#47969D"/>
<path d="M230.603 61.8004C230.577 61.3133 230.437 60.8392 230.193 60.4169C229.949 59.9945 229.608 59.636 229.199 59.3707C228.763 59.1523 228.282 59.0386 227.794 59.0386C227.307 59.0386 226.826 59.1523 226.39 59.3707L172.401 90.5252C171.993 90.7925 171.653 91.1522 171.409 91.5753C171.165 91.9984 171.024 92.473 170.997 92.9607V110.732C171.024 111.219 171.165 111.694 171.409 112.117C171.653 112.54 171.993 112.9 172.401 113.167C172.837 113.388 173.318 113.503 173.806 113.503C174.294 113.503 174.775 113.388 175.21 113.167L229.333 81.9253C230.597 81.2028 230.609 80.4803 230.609 79.5946L230.603 61.8004Z" fill="#47969D"/>
<path opacity="0.2" d="M170.974 110.726C171 111.214 171.141 111.688 171.385 112.111C171.629 112.534 171.969 112.894 172.378 113.161C172.773 113.363 173.207 113.478 173.65 113.499C174.093 113.52 174.535 113.447 174.948 113.284C174.289 113.534 173.782 113.155 173.782 112.351V94.5747C173.798 94.0864 173.941 93.6106 174.196 93.1938L171.382 91.5682C171.131 91.9888 170.991 92.4657 170.974 92.9549V110.726Z" fill="black"/>
<path opacity="0.4" d="M230.538 61.4042C230.375 60.8216 229.828 60.6176 229.181 60.9905L175.186 92.145C174.77 92.4013 174.428 92.7631 174.196 93.1938L171.387 91.5682C171.624 91.1411 171.965 90.7804 172.378 90.5194L226.367 59.3707C226.802 59.1497 227.283 59.0345 227.771 59.0345C228.259 59.0345 228.74 59.1497 229.175 59.3707C229.529 59.5989 229.832 59.8969 230.067 60.2466C230.301 60.5963 230.462 60.9902 230.538 61.4042Z" fill="white"/>
<path d="M177.581 94.8893L226.064 66.8403C226.536 66.5723 226.92 66.6947 226.92 67.12C226.885 67.382 226.79 67.6323 226.641 67.8508C226.492 68.0693 226.295 68.2501 226.064 68.3786L177.581 96.41C177.115 96.6838 176.73 96.5615 176.73 96.1362C176.767 95.877 176.863 95.6298 177.011 95.4136C177.158 95.1974 177.353 95.018 177.581 94.8893Z" fill="white"/>
<path d="M177.581 102.819L219.165 78.8139C219.637 78.5401 220.016 78.6624 220.016 79.0878C219.982 79.35 219.887 79.6007 219.739 79.8201C219.592 80.0395 219.395 80.2217 219.165 80.3521L177.581 104.352C177.115 104.625 176.73 104.497 176.73 104.072C176.769 103.813 176.866 103.566 177.013 103.349C177.16 103.132 177.354 102.951 177.581 102.819Z" fill="white"/>
<path d="M177.581 106.676L225.073 79.2217C225.539 78.9479 225.924 79.0761 225.924 79.5014C225.886 79.7617 225.79 80.01 225.642 80.2279C225.495 80.4458 225.301 80.6277 225.073 80.7599L177.581 108.209C177.115 108.483 176.73 108.36 176.73 107.935C176.765 107.674 176.861 107.424 177.008 107.206C177.156 106.987 177.352 106.806 177.581 106.676Z" fill="white"/>
<path d="M177.581 98.7406L225.073 71.286C225.539 71.0122 225.924 71.1403 225.924 71.5657C225.888 71.8267 225.793 72.0761 225.646 72.2944C225.498 72.5127 225.302 72.694 225.073 72.8242L177.581 100.302C177.115 100.57 176.73 100.448 176.73 100.022C176.762 99.7571 176.855 99.5029 177.003 99.2803C177.151 99.0577 177.349 98.8728 177.581 98.7406Z" fill="white"/>
<path d="M229.292 31.2635C228.753 31.0036 228.161 30.8739 227.562 30.8851C226.964 30.8962 226.377 31.0478 225.848 31.3276L172.745 61.981C172.234 62.322 171.81 62.7777 171.506 63.3119C171.203 63.8461 171.029 64.4439 170.997 65.0574V80.2064C170.974 80.8124 171.117 81.4132 171.41 81.944C171.703 82.4748 172.136 82.9157 172.661 83.219C173.186 83.5223 173.784 83.6766 174.39 83.6652C174.996 83.6539 175.588 83.4774 176.101 83.1547L229.204 52.4954C229.716 52.1555 230.141 51.7 230.445 51.1656C230.749 50.6312 230.922 50.0329 230.952 49.419V34.27C230.93 33.6739 230.768 33.0913 230.48 32.5691C230.192 32.0469 229.785 31.5997 229.292 31.2635Z" fill="#263238"/>
<path d="M230.935 33.9554C230.789 33.0581 230.061 32.7435 229.187 33.2504L207.046 46.028L176.084 63.9038C175.559 64.2339 175.126 64.6907 174.825 65.2322L171.492 63.3095C171.79 62.7672 172.221 62.3099 172.745 61.981L225.848 31.3276C226.337 31.0175 226.899 30.8408 227.477 30.8152C228.056 30.7896 228.631 30.916 229.146 31.1818C229.66 31.4476 230.096 31.8435 230.41 32.3301C230.724 32.8167 230.905 33.3771 230.935 33.9554Z" fill="#455A64"/>
<path d="M174.301 66.986V82.135C174.301 83.2654 175.099 83.7257 176.078 83.1605L229.181 52.5013C229.693 52.1614 230.118 51.7058 230.422 51.1714C230.725 50.637 230.899 50.0388 230.929 49.4249V34.2759C230.929 33.1455 230.136 32.6852 229.181 33.2504L207.04 46.028L176.072 63.9096C175.556 64.2473 175.127 64.7018 174.819 65.2363C174.511 65.7707 174.334 66.3702 174.301 66.986Z" fill="#37474F"/>
<path d="M183.332 64.772L184.2 66.6132C184.21 66.6396 184.226 66.6636 184.245 66.6838C184.265 66.7039 184.289 66.7196 184.315 66.7301C184.342 66.7405 184.37 66.7453 184.398 66.7442C184.426 66.7432 184.454 66.7362 184.48 66.7239L186.42 65.9781C186.729 65.8615 186.851 66.2985 186.63 66.7122L185.225 69.3458C185.141 69.5008 185.103 69.6766 185.115 69.8527L185.447 72.2358C185.499 72.6145 185.179 73.1156 184.905 73.0806L183.157 72.865C183.087 72.8683 183.018 72.8886 182.957 72.9241C182.896 72.9596 182.845 73.0093 182.807 73.069L181.059 75.283C180.786 75.6385 180.477 75.5103 180.518 75.0733L180.85 72.3057C180.864 72.2383 180.862 72.1684 180.842 72.1023C180.823 72.0361 180.788 71.9759 180.739 71.9269L179.335 70.9131C179.113 70.75 179.236 70.1732 179.545 69.9343L181.485 68.4427C181.619 68.328 181.717 68.1759 181.764 68.0057L182.633 65.1623C182.825 64.7079 183.192 64.4806 183.332 64.772Z" fill="#47969D"/>
<path d="M193.15 59.1493L194.018 60.9905C194.028 61.017 194.043 61.041 194.063 61.0611C194.083 61.0813 194.107 61.097 194.133 61.1074C194.159 61.1178 194.188 61.1227 194.216 61.1216C194.244 61.1205 194.272 61.1136 194.297 61.1012L196.238 60.3613C196.546 60.2389 196.669 60.6759 196.447 61.0954L195.061 63.729C194.976 63.8818 194.938 64.0559 194.95 64.2301L195.282 66.619C195.334 66.9977 195.014 67.4929 194.74 67.458L192.992 67.2424C192.922 67.2457 192.853 67.2659 192.792 67.3015C192.732 67.337 192.68 67.3867 192.643 67.4463L190.895 69.6662C190.621 70.0158 190.312 69.8935 190.353 69.4507L190.685 66.683C190.699 66.6157 190.697 66.5458 190.678 66.4796C190.658 66.4135 190.623 66.3532 190.574 66.3043L189.17 65.2905C188.949 65.1274 189.071 64.5505 189.38 64.3175L191.32 62.8201C191.456 62.7066 191.554 62.554 191.6 62.3831L192.468 59.5397C192.613 59.0853 193.01 58.858 193.15 59.1493Z" fill="#47969D"/>
<path d="M202.967 53.5267L203.835 55.3737C203.846 55.4002 203.861 55.4242 203.881 55.4443C203.901 55.4645 203.925 55.4802 203.951 55.4906C203.977 55.501 204.005 55.5059 204.034 55.5048C204.062 55.5037 204.09 55.4968 204.115 55.4844L206.055 54.7386C206.364 54.6221 206.487 55.0533 206.265 55.4728L204.861 58.1064C204.776 58.2611 204.737 58.4372 204.75 58.6133L205.082 60.9963C205.135 61.3751 204.814 61.8703 204.54 61.8412L202.793 61.6256C202.722 61.6262 202.653 61.6447 202.592 61.6794C202.531 61.714 202.48 61.7637 202.443 61.8237L200.695 64.0436C200.421 64.3932 200.112 64.2708 200.153 63.828L200.485 61.0604C200.499 60.9931 200.496 60.9233 200.477 60.8572C200.458 60.7912 200.423 60.7309 200.375 60.6817L198.97 59.6679C198.749 59.5106 198.871 58.9337 199.18 58.6949L201.12 57.1974C201.256 57.0839 201.354 56.9314 201.4 56.7604L202.268 53.9171C202.431 53.4685 202.827 53.2354 202.967 53.5267Z" fill="#47969D"/>
<path d="M212.785 47.91L213.653 49.7511C213.663 49.7776 213.679 49.8016 213.699 49.8217C213.719 49.8419 213.742 49.8576 213.769 49.8681C213.795 49.8785 213.823 49.8833 213.851 49.8822C213.88 49.8812 213.907 49.8742 213.933 49.8619L215.873 49.1161C216.182 48.9995 216.304 49.4307 216.083 49.8502L214.679 52.4838C214.594 52.6388 214.556 52.8146 214.568 52.9907L214.9 55.3738C214.953 55.7525 214.632 56.2536 214.358 56.2186L212.61 56.003C212.54 56.0063 212.471 56.0266 212.41 56.0621C212.35 56.0976 212.298 56.1473 212.261 56.207L210.513 58.421C210.239 58.7765 209.93 58.6483 209.971 58.2113L210.303 55.4437C210.323 55.3743 210.325 55.3009 210.308 55.2306C210.292 55.1603 210.258 55.0952 210.21 55.0416L208.806 54.0278C208.584 53.8705 208.706 53.2937 209.015 53.0548L210.956 51.5632C211.09 51.4462 211.187 51.2922 211.235 51.1204L212.103 48.277C212.249 47.8459 212.645 47.6128 212.785 47.91Z" fill="#47969D"/>
<path d="M222.603 42.2873L223.471 44.1285C223.481 44.155 223.496 44.179 223.516 44.1991C223.536 44.2193 223.56 44.235 223.586 44.2454C223.613 44.2558 223.641 44.2607 223.669 44.2596C223.697 44.2585 223.725 44.2516 223.75 44.2392L225.691 43.4934C225.999 43.3769 226.122 43.8139 225.9 44.2276L224.496 46.8845C224.412 47.0395 224.373 47.2153 224.385 47.3914L224.718 49.7744C224.77 50.1532 224.45 50.6543 224.176 50.6193L222.428 50.4037C222.357 50.407 222.289 50.4273 222.228 50.4628C222.167 50.4983 222.116 50.548 222.078 50.6076L220.33 52.8217C220.056 53.1771 219.748 53.049 219.788 52.612L220.12 49.8444C220.135 49.777 220.133 49.7071 220.113 49.641C220.094 49.5748 220.058 49.5146 220.01 49.4656L218.606 48.4518C218.384 48.2887 218.507 47.7119 218.815 47.473L220.756 45.9814C220.891 45.8679 220.989 45.7153 221.035 45.5444L221.903 42.701C222.067 42.2233 222.445 41.996 222.603 42.2873Z" fill="#455A64"/>
<path d="M181.869 55.0766L178.956 53.3986C178.898 53.3728 178.85 53.3301 178.816 53.2762L178.28 52.344L180.028 51.3476L179.976 51.4991L181.869 55.0766Z" fill="#47969D"/>
<path opacity="0.2" d="M181.869 55.0766L178.956 53.3986C178.898 53.3728 178.85 53.3301 178.816 53.2762L178.28 52.344L180.028 51.3476L179.976 51.4991L181.869 55.0766Z" fill="black"/>
<path d="M179.754 51.4875L181.77 54.9834C181.799 55.0338 181.841 55.0749 181.892 55.1017C181.943 55.1285 182.001 55.1398 182.058 55.1343C182.116 55.1287 182.171 55.1065 182.216 55.0704C182.261 55.0343 182.294 54.9858 182.312 54.9309L184.439 48.7956L179.754 51.4875Z" fill="#47969D"/>
<path d="M230.603 2.77179C230.576 2.28411 230.435 1.80952 230.191 1.38641C229.947 0.963296 229.607 0.603558 229.198 0.336299C228.763 0.115226 228.282 0 227.794 0C227.306 0 226.825 0.115226 226.39 0.336299L172.378 31.4908C171.969 31.758 171.629 32.1178 171.385 32.5409C171.141 32.964 171 33.4386 170.974 33.9263V51.6972C171 52.1849 171.141 52.6595 171.385 53.0826C171.629 53.5057 171.969 53.8654 172.378 54.1327C172.813 54.3538 173.294 54.469 173.782 54.469C174.27 54.469 174.751 54.3538 175.186 54.1327L229.309 22.885C230.573 22.1683 230.585 21.4458 230.585 20.5544L230.603 2.77179Z" fill="#47969D"/>
<path opacity="0.2" d="M170.974 51.6972C171 52.1849 171.141 52.6595 171.385 53.0826C171.629 53.5057 171.969 53.8654 172.378 54.1327C172.773 54.3345 173.207 54.4494 173.65 54.4695C174.093 54.4896 174.536 54.4145 174.948 54.2492C174.289 54.4998 173.782 54.1269 173.782 53.3228V35.546C173.799 35.056 173.942 34.5786 174.196 34.1593L171.382 32.5396C171.131 32.9602 170.991 33.4371 170.974 33.9263V51.6972Z" fill="black"/>
<path opacity="0.4" d="M230.538 2.37557C230.375 1.79292 229.828 1.58899 229.181 1.96189L175.186 33.1164C174.77 33.3727 174.428 33.7345 174.196 34.1651L171.387 32.5395C171.624 32.1124 171.965 31.7518 172.378 31.4908L226.367 0.336282C226.803 0.117894 227.283 0.00418091 227.771 0.00418091C228.258 0.00418091 228.739 0.117894 229.175 0.336282C229.53 0.56503 229.833 0.863998 230.068 1.21474C230.302 1.56548 230.463 1.96054 230.538 2.37557Z" fill="white"/>
<path d="M177.581 35.8549L226.064 7.81175C226.536 7.54373 226.92 7.66609 226.92 8.09142C226.885 8.35344 226.79 8.6037 226.641 8.82222C226.492 9.04074 226.295 9.22146 226.064 9.34996L177.581 37.3931C177.115 37.6669 176.73 37.5446 176.73 37.1192C176.768 36.8579 176.863 36.6084 177.011 36.3895C177.158 36.1705 177.353 35.9877 177.581 35.8549Z" fill="white"/>
<path d="M177.581 43.7848L219.165 19.7795C219.637 19.5056 220.016 19.628 220.016 20.0533C219.982 20.3149 219.888 20.565 219.74 20.7835C219.592 21.0021 219.395 21.183 219.165 21.3118L177.581 45.323C177.115 45.591 176.73 45.4686 176.73 45.0433C176.766 44.7822 176.861 44.5329 177.009 44.3146C177.156 44.0963 177.352 43.915 177.581 43.7848Z" fill="white"/>
<path d="M177.581 47.6419L225.073 20.1931C225.539 19.9193 225.924 20.0475 225.924 20.467C225.887 20.7283 225.791 20.9778 225.644 21.1967C225.496 21.4157 225.301 21.5985 225.073 21.7313L177.581 49.1801C177.115 49.454 176.73 49.3316 176.73 48.9063C176.768 48.645 176.863 48.3955 177.011 48.1765C177.158 47.9576 177.353 47.7748 177.581 47.6419Z" fill="white"/>
<path d="M177.581 39.7353L225.073 12.2807C225.539 12.0069 225.924 12.135 225.924 12.5604C225.886 12.8206 225.79 13.069 225.642 13.2869C225.495 13.5048 225.301 13.6866 225.073 13.8189L177.581 41.2677C177.115 41.5416 176.73 41.4192 176.73 40.9939C176.765 40.7327 176.861 40.4831 177.008 40.2648C177.156 40.0464 177.352 39.8652 177.581 39.7353Z" fill="white"/>
<path d="M197.729 146.81L218.151 142.807C218.28 142.786 218.412 142.805 218.53 142.861C218.648 142.918 218.745 143.01 218.809 143.124C218.872 143.238 218.899 143.369 218.886 143.498C218.873 143.628 218.82 143.751 218.734 143.85L204.884 159.535L197.729 146.81Z" fill="#FFA8A7"/>
<path d="M218.746 143.85C218.831 143.751 218.884 143.628 218.898 143.498C218.911 143.369 218.884 143.238 218.82 143.124C218.757 143.01 218.659 142.918 218.542 142.861C218.424 142.805 218.292 142.786 218.163 142.807L214.166 143.605C214.713 143.944 215.156 144.427 215.446 145.002C215.736 145.577 215.862 146.22 215.809 146.862V147.223L218.746 143.85Z" fill="#47969D"/>
<path d="M128.749 203.205L130.415 202.243L132.437 201.078L204.89 159.517C205.555 157.267 205.347 154.85 204.308 152.747C202.857 149.507 200.048 146.92 197.718 146.798L125.323 188.353L121.472 190.561C124.047 189.267 131.313 201.87 128.749 203.205Z" fill="#37474F"/>
<path d="M135.118 199.575L138.847 197.431C139.948 196.848 139.319 194.139 138.031 191.342C136.324 187.624 132.973 184.024 131.511 184.799L128.761 186.378L127.788 186.96C129.25 186.185 132.606 189.78 134.308 193.503C135.537 196.184 136.166 198.788 135.228 199.499C135.199 199.534 135.161 199.56 135.118 199.575Z" fill="#EBEBEB"/>
<path d="M136.044 199.033C138.602 197.675 131.278 185.049 128.714 186.412L124.979 188.545C127.537 187.193 134.884 199.808 132.303 201.165L136.044 199.033Z" fill="#47969D"/>
<path d="M128.749 203.205L132.437 201.095C134.96 199.779 127.992 187.543 125.323 188.353C125.269 188.363 125.218 188.383 125.172 188.411L121.472 190.561C124.047 189.267 131.313 201.87 128.749 203.205Z" fill="#EBEBEB"/>
<path opacity="0.15" d="M218.839 143.162L218.151 142.807L203.334 150.911L126.716 194.878C126.57 194.651 126.453 194.634 126.36 194.791C128.539 198.188 130.182 202.465 128.749 203.21L130.415 202.249L132.437 201.084L204.89 159.523L218.74 143.838C218.825 143.75 218.881 143.637 218.899 143.516C218.917 143.395 218.896 143.271 218.839 143.162Z" fill="black"/>
<path d="M113.093 212.16L128.749 203.205C129.845 202.622 129.239 199.953 127.974 197.174C126.279 193.451 122.94 189.815 121.472 190.561L105.752 199.54C102.629 201.34 105.501 208.111 108.98 211.14C110.273 212.3 111.741 212.807 113.093 212.16Z" fill="#F28F8F"/>
<path opacity="0.1" d="M114.025 207.306C113.128 203.776 110.273 200.315 107.645 199.575C107.26 199.438 106.847 199.396 106.441 199.452C106.036 199.507 105.649 199.659 105.315 199.895C102.984 202.08 105.705 208.291 108.997 211.158C110.262 212.276 111.677 212.778 113.029 212.189C114.183 211.501 114.655 209.695 114.025 207.306Z" fill="black"/>
</svg>
