<svg width="287" height="318" viewBox="0 0 287 318" fill="none" xmlns="http://www.w3.org/2000/svg">
<g opacity="0.3">
<path d="M273.378 40.4626H207.596V135.112H273.378V40.4626Z" stroke="black" stroke-miterlimit="10"/>
<path d="M261.307 57.8293H219.667V117.745H261.307V57.8293Z" stroke="black" stroke-miterlimit="10"/>
</g>
<path d="M192.186 29.8551H18.0254V199.701H192.186V29.8551Z" fill="#263238" stroke="#263238" stroke-miterlimit="10"/>
<path d="M188.884 25.7198H14.7236V195.566H188.884V25.7198Z" fill="white" stroke="#263238" stroke-linecap="round" stroke-linejoin="round"/>
<path d="M154.971 94.2629H163.632V84.7749H154.971V94.2629Z" fill="white" stroke="#263238" stroke-linecap="round" stroke-linejoin="round"/>
<path d="M166.307 94.2629H174.968V84.7749H166.307V94.2629Z" fill="white" stroke="#263238" stroke-linecap="round" stroke-linejoin="round"/>
<path d="M151.51 90.0927H107.513" stroke="#263238" stroke-linecap="round" stroke-linejoin="round"/>
<path d="M154.971 116.66H163.632V107.172H154.971V116.66Z" fill="white" stroke="#263238" stroke-linecap="round" stroke-linejoin="round"/>
<path d="M166.307 116.66H174.968V107.172H166.307V116.66Z" fill="white" stroke="#263238" stroke-linecap="round" stroke-linejoin="round"/>
<path d="M151.51 112.483H107.513" stroke="#263238" stroke-linecap="round" stroke-linejoin="round"/>
<path d="M154.971 139.058H163.632V129.57H154.971V139.058Z" fill="white" stroke="#263238" stroke-linecap="round" stroke-linejoin="round"/>
<path d="M166.307 139.058H174.968V129.57H166.307V139.058Z" fill="white" stroke="#263238" stroke-linecap="round" stroke-linejoin="round"/>
<path d="M151.51 134.881H107.513" stroke="#263238" stroke-linecap="round" stroke-linejoin="round"/>
<path d="M72.1768 94.2629H80.8369V84.7749H72.1768V94.2629Z" fill="white" stroke="#263238" stroke-linecap="round" stroke-linejoin="round"/>
<path d="M83.5191 94.2629H92.1792V84.7749H83.5191V94.2629Z" fill="white" stroke="#263238" stroke-linecap="round" stroke-linejoin="round"/>
<path d="M68.7152 90.0927H24.7185" stroke="#263238" stroke-linecap="round" stroke-linejoin="round"/>
<path d="M72.1768 116.66H80.8369V107.172H72.1768V116.66Z" fill="white" stroke="#263238" stroke-linecap="round" stroke-linejoin="round"/>
<path d="M83.5191 116.66H92.1792V107.172H83.5191V116.66Z" fill="white" stroke="#263238" stroke-linecap="round" stroke-linejoin="round"/>
<path d="M68.7152 112.483H24.7185" stroke="#263238" stroke-linecap="round" stroke-linejoin="round"/>
<path d="M72.1768 139.058H80.8369V129.57H72.1768V139.058Z" fill="white" stroke="#263238" stroke-linecap="round" stroke-linejoin="round"/>
<path d="M83.5191 139.058H92.1792V129.57H83.5191V139.058Z" fill="white" stroke="#263238" stroke-linecap="round" stroke-linejoin="round"/>
<path d="M68.7152 134.881H24.7185" stroke="#263238" stroke-linecap="round" stroke-linejoin="round"/>
<path d="M36.9934 171.678H27.4519V182.132H36.9934V171.678Z" fill="white" stroke="#263238" stroke-linecap="round" stroke-linejoin="round"/>
<path d="M75.9321 171.678H66.3906V182.132H75.9321V171.678Z" fill="white" stroke="#263238" stroke-linecap="round" stroke-linejoin="round"/>
<path d="M116.416 171.678H106.875V182.132H116.416V171.678Z" fill="white" stroke="#263238" stroke-linecap="round" stroke-linejoin="round"/>
<path d="M86.3611 87.9515L87.8364 91.1982L94.9829 83.6344" stroke="#263238" stroke-width="2" stroke-linecap="round" stroke-linejoin="round"/>
<path d="M86.3611 110.097L87.8364 113.337L94.9829 105.773" stroke="#263238" stroke-width="2" stroke-linecap="round" stroke-linejoin="round"/>
<path d="M74.0352 133.32L75.5168 136.56L82.6633 128.996" stroke="#263238" stroke-width="2" stroke-linecap="round" stroke-linejoin="round"/>
<path d="M168.677 87.6857L170.152 90.9253L177.299 83.3615" stroke="#263238" stroke-width="2" stroke-linecap="round" stroke-linejoin="round"/>
<path d="M156.747 110.363L158.222 113.603L165.369 106.046" stroke="#263238" stroke-width="2" stroke-linecap="round" stroke-linejoin="round"/>
<path d="M156.747 133.117L158.222 136.357L165.369 128.8" stroke="#263238" stroke-width="2" stroke-linecap="round" stroke-linejoin="round"/>
<path d="M188.884 25.7198H14.7236V52.2526H188.884V25.7198Z" fill="#4FB3B7" stroke="#263238" stroke-linecap="round" stroke-linejoin="round"/>
<path d="M188.884 25.7198H182.325V195.566H188.884V25.7198Z" fill="#DBDBDB" stroke="#263238" stroke-linecap="round" stroke-linejoin="round"/>
<path d="M188.884 51.2451H182.325V84.0262H188.884V51.2451Z" fill="#949494" stroke="#263238" stroke-linecap="round" stroke-linejoin="round"/>
<path d="M188.884 25.7198H14.7236V38.6224H188.884V25.7198Z" fill="#DBDBDB" stroke="#263238" stroke-linecap="round" stroke-linejoin="round"/>
<path d="M92.2367 29.4772H23.5562V34.851H92.2367V29.4772Z" fill="white" stroke="#263238" stroke-linecap="round" stroke-linejoin="round"/>
<path d="M178.602 29.7291H184.63" stroke="#263238" stroke-linecap="round" stroke-linejoin="round"/>
<path d="M178.602 32.521H184.63" stroke="#263238" stroke-linecap="round" stroke-linejoin="round"/>
<path d="M178.602 35.3198H184.63" stroke="#263238" stroke-linecap="round" stroke-linejoin="round"/>
<path d="M75.5615 62.9861C75.5615 61.3278 76.3598 60.3832 77.816 60.3832C79.2721 60.3832 80.064 61.3278 80.064 62.9861V68.3598C80.064 70.0111 79.2721 70.9557 77.816 70.9557C76.3598 70.9557 75.5615 70.0111 75.5615 68.3598V62.9861ZM77.0496 68.4648C77.0496 69.1995 77.3434 69.4794 77.816 69.4794C78.2886 69.4794 78.5824 69.1995 78.5824 68.4648V62.8672C78.5824 62.1255 78.2886 61.8456 77.816 61.8456C77.3434 61.8456 77.0496 62.1255 77.0496 62.8672V68.4648Z" fill="#263238"/>
<path d="M82.3441 63.3569V70.8368H81.0093V60.5021H82.8678L84.3941 66.6875V60.5021H85.7161V70.8368H84.1898L82.3441 63.3569Z" fill="#263238"/>
<path d="M86.7764 60.5021H88.2644V69.3604H90.7232V70.8368H86.7955L86.7764 60.5021Z" fill="#263238"/>
<path d="M91.3618 60.5021H92.8435V70.8368H91.3618V60.5021Z" fill="#263238"/>
<path d="M95.2321 63.3569V70.8368H93.9165V60.5021H95.775L97.3014 66.6875V60.5021H98.617V70.8368H97.1098L95.2321 63.3569Z" fill="#263238"/>
<path d="M101.146 64.8613H103.183V66.3377H101.146V69.3604H103.701V70.8368H99.6643V60.5021H103.707V61.9785H101.152L101.146 64.8613Z" fill="#263238"/>
<path d="M106.287 60.5021H110.866V61.9785H109.314V70.8368H107.833V61.9785H106.287V60.5021Z" fill="#263238"/>
<path d="M112.999 64.8613H115.03V66.3377H112.999V69.3604H115.554V70.8368H111.511V60.5021H115.554V61.9785H112.999V64.8613Z" fill="#263238"/>
<path d="M118.466 60.3832C119.91 60.3832 120.65 61.3278 120.65 62.9861V63.308H119.252V62.8812C119.252 62.1395 118.984 61.8596 118.511 61.8596C118.038 61.8596 117.77 62.1395 117.77 62.8812C117.77 64.9803 120.663 65.4071 120.663 68.3598C120.663 70.0111 119.91 70.9557 118.453 70.9557C116.997 70.9557 116.269 70.0111 116.269 68.3598V67.7231H117.674V68.4648C117.674 69.1995 117.968 69.4654 118.441 69.4654C118.913 69.4654 119.207 69.1995 119.207 68.4648C119.207 66.3657 116.314 65.9389 116.314 62.9861C116.269 61.3278 117.029 60.3832 118.466 60.3832Z" fill="#263238"/>
<path d="M121.085 60.5021H125.664V61.9785H124.118V70.8368H122.656V61.9785H121.104L121.085 60.5021Z" fill="#263238"/>
<path d="M34.8795 169.159H33.3787L33.1232 167.284H31.3286L31.0731 169.159H29.6873L31.1945 158.825H33.3659L34.8795 169.159ZM31.4946 165.878H32.9252L32.2099 160.651L31.4946 165.878Z" fill="#263238"/>
<path d="M73.192 161.183V161.546C73.192 162.61 72.8982 163.289 72.234 163.646C73.0323 163.981 73.3389 164.765 73.3389 165.857V166.703C73.3389 168.299 72.5725 169.152 71.0908 169.152H68.7598V158.825H70.995C72.5342 158.825 73.192 159.608 73.192 161.183ZM70.2414 160.28V163.009H70.8226C71.3718 163.009 71.7103 162.743 71.7103 161.917V161.344C71.7103 160.602 71.4804 160.28 70.9567 160.28H70.2414ZM70.2414 164.478V167.655H71.0908C71.589 167.655 71.8572 167.403 71.8572 166.633V165.738C71.8572 164.772 71.5762 164.478 70.9056 164.478H70.2414Z" fill="#263238"/>
<path d="M114.059 165.304V166.703C114.059 168.362 113.306 169.306 111.85 169.306C110.394 169.306 109.64 168.362 109.64 166.703V161.33C109.64 159.678 110.394 158.734 111.85 158.734C113.306 158.734 114.059 159.678 114.059 161.33V162.337H112.661V161.183C112.661 160.441 112.361 160.161 111.888 160.161C111.415 160.161 111.122 160.441 111.122 161.183V166.78C111.122 167.522 111.422 167.788 111.888 167.788C112.354 167.788 112.661 167.522 112.661 166.78V165.304H114.059Z" fill="#263238"/>
<path d="M25.3892 153.318H138.59" stroke="#263238" stroke-linecap="round" stroke-linejoin="round"/>
<path opacity="0.3" d="M211.32 26.5525H223.818V12.8593L211.32 12.8593V26.5525Z" stroke="black" stroke-linecap="round" stroke-linejoin="round"/>
<path opacity="0.3" d="M227.689 26.5525H240.187V12.8593L227.689 12.8593V26.5525Z" stroke="black" stroke-linecap="round" stroke-linejoin="round"/>
<path opacity="0.3" d="M214.009 18.275L216.142 22.949L222.413 15.3852" stroke="black" stroke-width="2" stroke-linecap="round" stroke-linejoin="round"/>
<path opacity="0.3" d="M22.1195 227.452H34.6179V213.758H22.1195V227.452Z" stroke="black" stroke-linecap="round" stroke-linejoin="round"/>
<path opacity="0.3" d="M38.4816 227.452H50.98V213.758H38.4816V227.452Z" stroke="black" stroke-linecap="round" stroke-linejoin="round"/>
<path opacity="0.3" d="M24.7952 219.174L26.9283 223.848L33.1998 216.284" stroke="black" stroke-width="2" stroke-linecap="round" stroke-linejoin="round"/>
<path opacity="0.3" d="M81.3287 227.452H93.8271V213.758H81.3287V227.452Z" stroke="black" stroke-linecap="round" stroke-linejoin="round"/>
<path opacity="0.3" d="M97.6974 227.452H110.196V213.758H97.6974V227.452Z" stroke="black" stroke-linecap="round" stroke-linejoin="round"/>
<path opacity="0.3" d="M84.011 219.174L86.1441 223.848L92.4156 216.284" stroke="black" stroke-width="2" stroke-linecap="round" stroke-linejoin="round"/>
<g opacity="0.3">
<path d="M100.712 19.708C105.086 18.9337 108.058 14.4217 107.351 9.6302C106.645 4.83873 102.526 1.58219 98.1529 2.35652C93.7795 3.13085 90.8071 7.64283 91.5138 12.4343C92.2206 17.2258 96.3389 20.4823 100.712 19.708Z" stroke="black" stroke-linecap="round" stroke-linejoin="round"/>
<path d="M101.676 14.2097L99.4346 11.033V6.03015" stroke="black" stroke-linecap="round" stroke-linejoin="round"/>
</g>
<g opacity="0.3">
<path d="M249.16 179.599H247.972L247.768 178.115H246.324L246.12 179.599H245.041L246.241 171.405H247.959L249.16 179.599ZM246.478 177.003H247.608L247.04 172.854L246.478 177.003Z" fill="black"/>
<path d="M265.886 173.287V173.581C265.932 173.908 265.883 174.242 265.748 174.538C265.614 174.834 265.398 175.076 265.133 175.233C265.433 175.382 265.68 175.634 265.838 175.951C265.996 176.268 266.055 176.632 266.008 176.989V177.689C266.037 177.953 266.011 178.221 265.931 178.472C265.851 178.723 265.72 178.951 265.548 179.138C265.375 179.325 265.165 179.467 264.935 179.551C264.705 179.636 264.46 179.662 264.219 179.627H262.374V171.405H264.149C265.363 171.405 265.886 172.021 265.886 173.287ZM263.549 172.588V174.757H264.009C264.443 174.757 264.711 174.547 264.711 173.889V173.434C264.711 172.847 264.532 172.588 264.111 172.588H263.549ZM263.549 175.925V178.444H264.219C264.615 178.444 264.858 178.248 264.858 177.64V176.94C264.858 176.184 264.628 175.946 264.098 175.946L263.549 175.925Z" fill="black"/>
<path d="M282.823 176.576V177.661C282.823 178.976 282.229 179.725 281.073 179.725C279.917 179.725 279.317 178.976 279.317 177.661V173.399C279.317 172.084 279.917 171.335 281.073 171.335C282.229 171.335 282.823 172.084 282.823 173.399V174.197H281.712V173.287C281.712 172.7 281.476 172.483 281.105 172.483C280.735 172.483 280.467 172.7 280.467 173.287V177.717C280.467 178.304 280.703 178.514 281.105 178.514C281.508 178.514 281.712 178.304 281.712 177.717V176.576H282.823Z" fill="black"/>
<path d="M251.497 184.07H242.409V194.027H251.497V184.07Z" stroke="black" stroke-miterlimit="10"/>
<path d="M268.403 184.07H259.315V194.027H268.403V184.07Z" stroke="black" stroke-miterlimit="10"/>
<path d="M285.308 184.07H276.22V194.027H285.308V184.07Z" stroke="black" stroke-miterlimit="10"/>
</g>
<path d="M36.0801 299.416H16.8503" stroke="#263238" stroke-miterlimit="10"/>
<path d="M287 299.416H42.3452" stroke="#263238" stroke-miterlimit="10"/>
<path d="M213.114 299.178L217.227 230.747L220.254 198.211L211.952 188.058L207.788 184.742C207.788 184.742 201.925 190.339 197.767 191.578C193.61 192.816 189.612 194.069 189.612 194.069C189.612 194.069 175.427 223.288 174.284 236.548C173.141 249.807 171.257 298.926 171.257 298.926L172.835 299.178H213.114Z" fill="#9E9E9E" stroke="#263238" stroke-miterlimit="10"/>
<path d="M193.616 242.761C193.616 242.761 192.907 242.362 194.325 238.36" stroke="#263238" stroke-miterlimit="10"/>
<path d="M191.949 193.369C192.655 198.897 193.045 204.468 193.118 210.05C193.118 210.05 197.378 208.182 200.782 201.654C202.663 198.15 204.282 194.486 205.623 190.696L191.949 193.369Z" fill="#263238" stroke="#263238" stroke-miterlimit="10"/>
<path d="M213.114 299.178L216.812 237.653C213.185 239.682 206.025 243.034 198.125 243.181C188.66 243.356 176.941 235.302 176.941 235.302L174.304 236.436C174.304 236.471 174.304 236.513 174.304 236.548C173.167 249.842 171.276 298.926 171.276 298.926L172.854 299.178H213.114Z" fill="white" stroke="#263238" stroke-miterlimit="10"/>
<path d="M206.958 264.739C206.958 280.587 207.456 295.834 207.596 299.164H235.474C235.857 294.224 238.258 263.479 239.491 252.459C240.838 240.417 249.677 222.491 249.677 216.074C249.677 209.658 251.472 210.673 243.399 206.006C235.327 201.339 217.521 191.263 215.056 190.031C212.591 188.8 209.896 185.833 209.896 185.833C209.896 185.833 210.79 191.977 210.534 208.679C210.279 225.381 206.958 246.819 206.958 264.739Z" fill="#4FB3B7"/>
<g opacity="0.2">
<path d="M209.896 185.896C210.228 188.803 210.42 191.727 210.47 194.656V186.491C210.113 186.134 209.896 185.896 209.896 185.896Z" fill="black"/>
<path d="M246.554 225.884V227.983C246.771 227.347 246.988 226.731 247.193 226.122V225.87H247.276C247.359 225.639 247.435 225.401 247.512 225.171H247.193V216.459H249.664C249.664 216.354 249.664 216.242 249.664 216.137C249.664 216.032 249.664 215.886 249.664 215.76H247.193V208.301C246.995 208.168 246.784 208.042 246.554 207.902V215.76H239.848V207.013H245.034L243.833 206.314H239.848V204.005L239.21 203.634V206.293H232.504V199.813L231.865 199.449V206.293H225.159V197.567H228.499L227.26 196.868H225.159V195.685L224.521 195.321V196.868H217.815V191.585C217.591 191.459 217.38 191.34 217.176 191.235V196.868H210.534C210.534 197.098 210.534 197.329 210.534 197.567H217.176V206.314H210.592C210.592 206.544 210.592 206.775 210.592 207.013H217.176V215.76H210.47V212.436C210.342 215.851 210.113 219.433 209.832 223.078V225.178H209.666L209.608 225.877H209.832V234.652H208.874L208.81 235.351H209.863V244.098H208.05L207.992 244.797H209.863V253.544H207.373L207.334 254.243H209.889V262.99H207.06C207.06 263.228 207.06 263.458 207.06 263.689H209.895V272.436H207.079C207.079 272.674 207.079 272.904 207.079 273.135H209.889V281.882H207.207C207.207 282.12 207.207 282.35 207.207 282.581H209.876V299.199H210.515V282.56H217.176V299.178H217.815V282.56H224.521V299.178H225.159V282.56H231.865V299.178H232.504V282.56H236.802C236.802 282.329 236.802 282.099 236.859 281.861H232.504V273.135H237.613C237.613 272.904 237.658 272.674 237.677 272.436H232.504V263.689H238.405C238.405 263.451 238.443 263.228 238.469 262.99H232.504V254.243H239.21V255.174L239.491 252.494C239.58 251.71 239.701 250.899 239.848 250.066V244.797H241.042L241.234 244.098H239.848V235.351H243.999C244.082 235.12 244.159 234.882 244.242 234.652H239.848V225.905L246.554 225.884ZM239.848 216.459H246.554V225.206H239.848V216.459ZM217.176 281.861H210.47V273.135H217.176V281.861ZM217.176 272.415H210.47V263.668H217.176V272.415ZM217.176 262.969H210.47V254.243H217.176V262.969ZM217.176 253.523H210.47V244.776H217.176V253.523ZM217.176 244.077H210.47V235.351H217.176V244.077ZM217.176 234.631H210.47V225.884H217.176V234.631ZM217.176 225.185H210.47V216.459H217.176V225.185ZM224.521 281.861H217.815V273.135H224.521V281.861ZM224.521 272.415H217.815V263.668H224.521V272.415ZM224.521 262.969H217.815V254.243H224.521V262.969ZM224.521 253.523H217.815V244.776H224.521V253.523ZM224.521 244.077H217.815V235.351H224.521V244.077ZM224.521 234.631H217.815V225.884H224.521V234.631ZM224.521 225.185H217.815V216.459H224.521V225.185ZM224.521 215.739H217.815V206.992H224.521V215.739ZM224.521 206.293H217.815V197.567H224.521V206.293ZM231.865 281.861H225.159V273.135H231.865V281.861ZM231.865 272.415H225.159V263.668H231.865V272.415ZM231.865 262.969H225.159V254.243H231.865V262.969ZM231.865 253.523H225.159V244.776H231.865V253.523ZM231.865 244.077H225.159V235.351H231.865V244.077ZM231.865 234.631H225.159V225.884H231.865V234.631ZM231.865 225.185H225.159V216.459H231.865V225.185ZM231.865 215.739H225.159V206.992H231.865V215.739ZM239.21 253.523H232.504V244.776H239.21V253.523ZM239.21 244.077H232.504V235.351H239.21V244.077ZM239.21 234.631H232.504V225.884H239.21V234.631ZM239.21 225.185H232.504V216.459H239.21V225.185ZM239.21 215.739H232.504V206.992H239.21V215.739Z" fill="black"/>
</g>
<path d="M206.958 264.739C206.958 280.587 207.456 295.834 207.596 299.164H235.474C235.857 294.224 238.258 263.479 239.491 252.459C240.838 240.417 249.677 222.491 249.677 216.074C249.677 209.658 251.472 210.673 243.399 206.006C235.327 201.339 217.521 191.263 215.056 190.031C212.591 188.8 209.896 185.833 209.896 185.833C209.896 185.833 210.79 191.977 210.534 208.679C210.279 225.381 206.958 246.819 206.958 264.739Z" stroke="#263238" stroke-miterlimit="10"/>
<path d="M209.896 185.896C209.896 185.896 210.79 192.04 210.534 208.742C210.483 212.94 210.221 217.474 209.896 222.148C210.662 220.993 213.133 217.306 213.727 217.096C214.398 216.851 217.987 220.539 220.899 221.028C223.812 221.518 224.936 221.518 221.8 217.831C218.664 214.143 217.329 203.34 216.193 195.23C215.976 193.494 215.628 191.781 215.152 190.108H215.075C212.584 188.849 209.896 185.896 209.896 185.896Z" fill="#263238" stroke="#263238" stroke-miterlimit="10"/>
<path d="M228.295 261.884C230.358 260.855 231.98 259.967 231.98 259.967L232.74 266.39C232.74 266.39 221.576 271.778 215.337 272.191C209.097 272.604 208.529 272.813 208.529 272.813L208.714 266.6" stroke="#263238" stroke-miterlimit="10"/>
<path d="M222.707 264.396C223.85 263.976 225.191 263.382 226.5 262.759" stroke="#263238" stroke-miterlimit="10"/>
<path d="M210.79 265.977C214.054 265.887 217.31 265.562 220.535 265.005" stroke="#263238" stroke-miterlimit="10"/>
<path d="M232.74 266.39L233.117 271.365" stroke="#263238" stroke-miterlimit="10"/>
<path d="M147.173 299.178H178.544C178.614 296.485 179.521 262.248 180.134 244.776C180.773 226.584 192.039 198.988 192.039 198.988C192.039 198.988 193.546 195.097 191.949 193.348C190.353 191.599 186.521 192.298 183.647 194.747C180.773 197.196 154.269 209.791 152.672 211.54C151.076 213.29 151.395 219.237 150.756 226.234C150.118 233.231 139.58 281.511 139.58 281.511C139.58 281.511 136.706 282.211 135.748 282.91C134.79 283.61 134.79 285.709 134.79 285.709C134.79 285.709 136.067 286.059 139.899 288.158C143.425 290.089 146.675 297.926 147.173 299.178Z" fill="#4FB3B7"/>
<path opacity="0.2" d="M187.798 206.992V210.568C188.015 209.924 188.226 209.301 188.437 208.7V206.992H189.037L189.286 206.293H188.437V197.567H192.46C192.505 197.35 192.556 197.112 192.588 196.868H188.437V192.473C188.226 192.508 188.015 192.543 187.798 192.599V196.868H181.092V196.392L180.454 196.749V196.868H180.236L178.959 197.567H180.454V206.314H173.748V200.296L173.109 200.625V206.293H166.403V204.061L165.765 204.389V206.293H162.054L160.7 206.992H165.765V215.76H159.059V207.853L158.42 208.189V215.76H151.714V213.996C151.355 216.545 151.142 219.115 151.076 221.693V225.192H150.846L150.788 225.891H151.076V234.652H149.358L149.224 235.351H151.076V244.098H147.493C147.448 244.329 147.397 244.566 147.352 244.797H151.076V253.544H145.551C145.5 253.782 145.456 254.012 145.404 254.243H151.076V262.99H144.37V259.141L143.731 262.164V262.955H143.565L143.418 263.654H143.731V272.436H141.547L141.394 273.135H143.731V281.882H138.309C137.658 282.072 137.018 282.306 136.393 282.581V286.388C136.585 286.472 136.795 286.57 137.032 286.689V282.581H143.731V292.377C143.955 292.727 144.165 293.077 144.37 293.434V282.588H151.076V299.206H151.714V282.56H158.42V299.178H159.059V282.56H165.765V299.178H166.403V282.56H173.109V299.178H173.748V282.56H178.991V281.861H173.748V273.135H179.259V272.436H173.748V263.689H179.534V262.99H173.748V254.243H179.821C179.821 254.012 179.821 253.775 179.821 253.544H173.748V244.797H180.134C180.134 244.566 180.134 244.336 180.166 244.098H173.748V235.351H180.454V240.522C180.62 239.032 180.83 237.499 181.092 235.946V235.351H181.194C181.233 235.12 181.278 234.89 181.316 234.652H181.092V225.905H183.232C183.289 225.674 183.353 225.444 183.411 225.206H181.092V216.459H185.882C185.959 216.228 186.029 215.991 186.099 215.76H181.092V207.013L187.798 206.992ZM181.092 197.567H187.798V206.314H181.092V197.567ZM151.076 281.882H144.37V273.135H151.076V281.882ZM151.076 272.436H144.37V263.689H151.076V272.436ZM158.42 281.882H151.714V273.135H158.42V281.882ZM158.42 272.436H151.714V263.689H158.42V272.436ZM158.42 262.99H151.714V254.243H158.42V262.99ZM158.42 253.544H151.714V244.797H158.42V253.544ZM158.42 244.098H151.714V235.351H158.42V244.098ZM158.42 234.652H151.714V225.905H158.42V234.652ZM158.42 225.206H151.714V216.459H158.42V225.206ZM165.765 281.882H159.059V273.135H165.765V281.882ZM165.765 272.436H159.059V263.689H165.765V272.436ZM165.765 262.99H159.059V254.243H165.765V262.99ZM165.765 253.544H159.059V244.797H165.765V253.544ZM165.765 244.098H159.059V235.351H165.765V244.098ZM165.765 234.652H159.059V225.905H165.765V234.652ZM165.765 225.206H159.059V216.459H165.765V225.206ZM173.109 281.882H166.403V273.135H173.109V281.882ZM173.109 272.436H166.403V263.689H173.109V272.436ZM173.109 262.99H166.403V254.243H173.109V262.99ZM173.109 253.544H166.403V244.797H173.109V253.544ZM173.109 244.098H166.403V235.351H173.109V244.098ZM173.109 234.652H166.403V225.905H173.109V234.652ZM173.109 225.206H166.403V216.459H173.109V225.206ZM173.109 215.76H166.403V207.013H173.109V215.76ZM180.454 234.652H173.748V225.905H180.454V234.652ZM180.454 225.206H173.748V216.459H180.454V225.206ZM180.454 215.76H173.748V207.013H180.454V215.76Z" fill="black"/>
<path d="M147.173 299.178H178.544C178.614 296.485 179.521 262.248 180.134 244.776C180.773 226.584 192.039 198.988 192.039 198.988C192.039 198.988 193.546 195.097 191.949 193.348C190.353 191.599 186.521 192.298 183.647 194.747C180.773 197.196 154.269 209.791 152.672 211.54C151.076 213.29 151.395 219.237 150.756 226.234C150.118 233.231 139.58 281.511 139.58 281.511C139.58 281.511 136.706 282.211 135.748 282.91C134.79 283.61 134.79 285.709 134.79 285.709C134.79 285.709 136.067 286.059 139.899 288.158C143.425 290.089 146.675 297.926 147.173 299.178Z" stroke="#263238" stroke-miterlimit="10"/>
<path d="M134.79 285.73C134.79 285.73 136.067 286.08 139.899 288.179C143.731 290.278 147.244 299.374 147.244 299.374H153.432C153.822 298.101 154.773 293.469 150.437 287.829C145.328 281.182 139.58 281.532 139.58 281.532C139.58 281.532 136.706 282.231 135.748 282.931C134.79 283.631 134.79 285.73 134.79 285.73Z" fill="#263238" stroke="#263238" stroke-miterlimit="10"/>
<path d="M188.092 192.515C186.719 196.497 183.468 205.502 180.773 209.791C177.26 215.389 170.874 219.937 173.109 222.036C175.344 224.135 181.731 217.488 181.731 217.488C181.731 217.488 183.328 222.386 183.647 223.785C183.664 223.849 183.692 223.908 183.73 223.96C186.035 215.46 188.808 207.121 192.032 198.988C192.032 198.988 193.54 195.097 191.943 193.348C191.119 192.438 189.714 192.201 188.092 192.515Z" fill="#263238" stroke="#263238" stroke-miterlimit="10"/>
<path d="M164.768 226.29C164.951 224.997 165.071 223.693 165.126 222.386" stroke="#263238" stroke-miterlimit="10"/>
<path d="M159.698 300.053C159.698 300.053 160.655 277.662 160.655 264.718C160.655 255.391 162.974 239.703 164.277 230.096" stroke="#263238" stroke-miterlimit="10"/>
<path d="M161.294 259.841C161.294 259.841 166.403 261.59 168.958 261.94L176.622 262.99L176.041 270.917C176.041 270.917 175.664 270.686 169.916 268.587C164.168 266.488 160.656 264.739 160.656 264.739" stroke="#263238" stroke-miterlimit="10"/>
<path d="M176.041 270.896C176.041 270.896 175.664 286.43 175.664 288.529C175.664 290.628 169.916 289.229 169.916 289.229" stroke="#263238" stroke-miterlimit="10"/>
<path d="M180.626 185.127C180.626 185.127 186.648 194.615 192.039 198.988C197.429 203.361 202.027 197.238 205.623 190.675C209.218 184.112 211.613 179.298 213.408 173.609C215.203 167.921 213.408 158.517 206.223 151.079C199.038 143.641 182.255 132.698 178.065 138.386C173.875 144.075 169.877 156.579 172.668 167.263C174.336 173.686 177.03 179.735 180.626 185.127Z" fill="#9E9E9E" stroke="#263238" stroke-miterlimit="10"/>
<path d="M178.091 164.716C180.363 163.97 182.786 163.97 185.059 164.716" stroke="#263238" stroke-width="2" stroke-miterlimit="10" stroke-linecap="round"/>
<path d="M183.245 170.573C183.436 171.706 183.193 172.707 182.702 172.805C182.21 172.903 181.667 172.063 181.475 170.923C181.284 169.782 181.527 168.788 182.018 168.69C182.51 168.592 183.053 169.432 183.245 170.573Z" fill="#263238"/>
<path d="M201.012 170.874C201.197 172.007 200.954 172.973 200.469 173.106C199.984 173.239 199.434 172.364 199.243 171.223C199.051 170.083 199.294 169.089 199.786 168.991C200.277 168.893 200.82 169.733 201.012 170.874Z" fill="#263238"/>
<path d="M187.849 186.302C190.157 187.173 192.597 187.544 195.034 187.394C199.23 187.177 202.826 183.895 202.826 183.895" stroke="#263238" stroke-miterlimit="10"/>
<path d="M178.685 143.221C178.685 143.221 187.556 165.388 188.667 165.997C189.778 166.605 191.994 159.314 191.994 159.314C191.994 159.314 195.041 165.381 198.655 167.207C202.27 169.033 203.369 165.997 203.369 165.997C205.18 167.114 206.938 168.331 208.637 169.642L210.023 170.853L211.409 176.317C211.409 176.317 207.252 191.2 208.637 193.026C210.023 194.852 217.783 192.417 217.783 192.417C217.783 192.417 215.867 195.454 218.339 195.454C220.81 195.454 225.268 196.063 231.642 186.645C238.015 177.227 238.571 162.05 238.571 162.05C238.571 162.05 241.617 165.689 241.898 161.134C242.179 156.579 238.296 148.987 238.296 148.987C238.296 148.987 244.389 155.669 243.84 148.686C243.291 141.703 239.682 133.803 238.296 131.984C236.911 130.165 228.589 124.987 228.589 124.987C228.589 124.987 231.916 124.378 229.426 120.124C226.935 115.87 217.783 114.659 214.456 114.659C211.128 114.659 204.199 115.877 204.199 115.877C204.199 115.877 208.637 106.459 203.924 105.85C199.211 105.241 190.896 115.268 190.896 115.268C190.896 115.268 182.593 107.977 180.083 109.495C177.573 111.014 179.253 113.141 179.253 113.141C179.253 113.141 168.447 114.051 165.394 119.214C162.342 124.378 165.95 127.415 165.95 127.415C165.95 127.415 146.548 141.99 149.594 147.454C152.64 152.919 158.19 147.762 158.19 147.762C158.19 147.762 150.424 169.628 151.536 171.146C152.647 172.665 157.922 170.538 157.922 170.538C157.922 170.538 157.647 188.149 161.805 189.975C165.963 191.802 166.793 188.457 166.793 188.457C166.793 188.457 169.009 190.885 174.003 191.186C178.998 191.487 180.652 185.113 180.652 185.113C180.652 185.113 175.108 170.839 175.389 159C175.67 147.161 178.685 143.221 178.685 143.221Z" fill="#263238" stroke="#263238" stroke-miterlimit="10"/>
<path d="M189.848 168.795C189.848 168.795 187.849 180.173 189.446 182.58C191.042 184.987 196.637 182.58 197.033 181.271" fill="#9E9E9E"/>
<path d="M189.848 168.795C189.848 168.795 187.849 180.173 189.446 182.58C191.042 184.987 196.637 182.58 197.033 181.271" stroke="#263238" stroke-miterlimit="10"/>
<path d="M181.558 175.799C185.915 175.799 189.446 172.958 189.446 169.453C189.446 165.948 185.915 163.107 181.558 163.107C177.202 163.107 173.671 165.948 173.671 169.453C173.671 172.958 177.202 175.799 181.558 175.799Z" stroke="#263238" stroke-miterlimit="10"/>
<path d="M200.527 175.366C204.883 175.366 208.414 172.524 208.414 169.019C208.414 165.514 204.883 162.673 200.527 162.673C196.17 162.673 192.639 165.514 192.639 169.019C192.639 172.524 196.17 175.366 200.527 175.366Z" stroke="#263238" stroke-miterlimit="10"/>
<path d="M189.848 168.795C189.848 168.795 191.445 167.487 192.639 169.019" stroke="#263238" stroke-miterlimit="10"/>
<path d="M124.131 289.865C124.131 289.865 134.158 286.766 137.243 286.206C140.327 285.646 146.503 291.838 147.531 295.218C148.56 298.598 147.244 299.353 147.244 299.353L126.698 298.605L124.131 289.865Z" fill="#9E9E9E" stroke="#263238" stroke-miterlimit="10"/>
<path d="M127.765 288.774C127.765 288.774 135.333 291.88 137.223 293.126C139.114 294.371 138.545 296.855 137.415 298.094C136.051 299.343 134.425 300.199 132.683 300.585C130.919 300.695 129.152 300.695 127.388 300.585C125.121 300.375 123.039 300.795 121.148 300.795C119.258 300.795 113.58 300.172 113.58 300.172L111.875 298.926C111.875 298.926 108.682 299.962 106.204 301.026C103.726 302.089 104.499 299.78 106.389 298.122C108.28 296.463 113.012 292.321 113.772 291.908C114.532 291.496 124.176 288.41 124.176 288.41L127.765 288.774Z" fill="#9E9E9E" stroke="#263238" stroke-miterlimit="10"/>
<path d="M130.6 289.599C130.6 289.599 125.676 287.115 124.354 287.115C123.032 287.115 113.574 290.614 112.252 291.671C110.93 292.727 109.602 302.656 110.547 303.279C111.492 303.901 112.252 302.033 112.463 300.795C112.674 299.556 115.305 292.916 115.305 292.916L113.389 303.489C113.389 303.489 114.149 305.14 114.902 303.691C115.656 302.243 120.388 292.293 120.765 291.671C121.261 291.093 121.836 290.604 122.47 290.222C122.47 290.222 121.525 294.784 120.765 299.136C120.005 303.489 120.58 304.734 121.717 304.937C122.854 305.14 123.416 302.243 123.984 300.795C124.552 299.346 127.011 291.048 127.011 291.048" fill="#9E9E9E"/>
<path d="M130.6 289.599C130.6 289.599 125.676 287.115 124.354 287.115C123.032 287.115 113.574 290.614 112.252 291.671C110.93 292.727 109.602 302.656 110.547 303.279C111.492 303.901 112.252 302.033 112.463 300.795C112.674 299.556 115.305 292.916 115.305 292.916L113.389 303.489C113.389 303.489 114.149 305.14 114.902 303.691C115.656 302.243 120.388 292.293 120.765 291.671C121.261 291.093 121.836 290.604 122.47 290.222C122.47 290.222 121.525 294.784 120.765 299.136C120.005 303.489 120.58 304.734 121.717 304.937C122.854 305.14 123.416 302.243 123.984 300.795C124.552 299.346 127.011 291.048 127.011 291.048" stroke="#263238" stroke-miterlimit="10"/>
<path d="M136.067 293.749C136.067 293.749 130.396 300.172 129.636 301.62C128.876 303.069 128.883 303.279 130.965 303.279C133.047 303.279 139.478 298.717 140.04 298.094C140.602 297.471 140.423 295.61 139.095 294.364C138.672 294.004 138.176 293.76 137.649 293.653C137.123 293.546 136.58 293.579 136.067 293.749Z" fill="#9E9E9E" stroke="#263238" stroke-miterlimit="10"/>
<path d="M171.487 293.035C171.487 293.035 163.919 295.715 162.06 297.233C160.202 298.751 157.52 300.424 158.101 300.935C158.682 301.445 160.547 300.935 161.128 300.424C161.709 299.913 164.385 299.402 164.385 299.402C164.385 299.402 167.527 297.359 169.973 295.708C172.419 294.056 174.278 292.265 171.487 293.035Z" fill="#9E9E9E" stroke="#263238" stroke-miterlimit="10"/>
<path d="M213.261 278.999C213.261 278.999 192.186 283.197 184.56 286.129C176.935 289.061 173.901 291.104 170.088 294.057C166.276 297.009 158.548 302.586 159.697 303.566C160.847 304.545 164.851 301.11 165.528 300.375C166.205 299.64 171.129 297.429 171.129 297.429L174.425 295.582C174.425 295.582 169.462 302.278 167.674 303.978C165.886 305.679 167.093 306.742 168.441 306.252C169.788 305.763 172.33 302.831 172.33 302.831L180.524 296.925C180.524 296.925 177.158 302.089 175.587 303.559C174.016 305.028 177.382 306.266 178.059 305.035C178.736 303.803 182.095 300.613 182.095 300.613C182.095 300.613 187.696 297.422 189.043 296.191C190.391 294.959 193.75 291.524 193.75 291.524L218.862 293.735C218.862 293.735 220.433 292.755 219.539 287.101C218.645 281.448 213.261 278.999 213.261 278.999Z" fill="#9E9E9E" stroke="#263238" stroke-miterlimit="10"/>
<path d="M230.301 235.519L242.633 268.937L222.675 276.55L228.282 294.483C228.282 294.483 242.614 294.525 253.828 293.784C265.043 293.042 272.911 285.632 271.117 276.795C269.322 267.958 262.597 255.174 257.213 239.941C251.83 224.709 253.496 215.627 251.031 210.96C248.566 206.293 241.611 205.061 241.611 205.061L237.779 204.361" fill="#4FB3B7"/>
<path opacity="0.2" d="M269.226 286.087V282.588H270.893C270.963 282.357 271.021 282.127 271.072 281.889H269.226V273.135H270.184C270.114 272.911 270.037 272.674 269.967 272.436H269.226V270.302C269.022 269.721 268.811 269.126 268.588 268.531V272.436H261.882V263.689H266.697C266.601 263.458 266.512 263.228 266.416 262.99H261.882V254.243H262.776C262.674 254.012 262.578 253.782 262.482 253.544H261.882V252.081C261.671 251.563 261.454 251.046 261.243 250.521V253.544H254.537V244.797H259.008C258.918 244.566 258.829 244.336 258.746 244.098H254.537V235.351H255.732C255.661 235.12 255.597 234.883 255.534 234.652H254.537V230.663C254.295 229.558 254.084 228.501 253.899 227.487V234.652H247.193V225.905H253.63L253.515 225.206H247.193V216.459H252.436L252.34 215.76H247.193V207.181C246.633 206.852 246.057 206.555 245.468 206.293H239.848V204.725L239.21 204.599V206.293H237.326L237.153 206.992H239.21V215.76H235.058L234.892 216.459H239.216V225.206H232.785L232.612 225.905H239.21V234.652H232.504V226.353L231.865 229.005V234.603H230.511L230.345 235.302H231.865V239.731L232.504 241.46V235.351H239.21V244.098H233.462L233.717 244.797H239.21V253.544H236.974L237.236 254.243H239.242V259.68L239.88 261.408V254.243H246.554V262.99H240.429L240.691 263.689H246.554V272.436H239.848V270.015L239.21 270.26V272.436H233.5L231.661 273.135H231.865V281.882H225.159V275.584L224.521 275.829V281.847H224.335L225.159 284.478V282.546H231.865V294.441H232.504V282.546H239.21V294.35H239.848V282.56H246.554V294.127H247.193V282.56H253.899V293.756L254.537 293.7V282.56H261.243V292.16L261.882 291.894V282.56H268.588V286.955C268.811 286.668 269.028 286.381 269.226 286.087ZM239.21 281.889H232.504V273.135H239.21V281.889ZM246.554 281.889H239.848V273.135H246.554V281.889ZM246.554 253.551H239.848V244.804H246.554V253.551ZM246.554 244.105H239.848V235.351H246.554V244.105ZM246.554 234.659H239.848V225.912H246.554V234.659ZM246.554 225.213H239.848V216.459H246.554V225.213ZM246.554 215.767H239.848V207.02H246.554V215.767ZM253.899 281.889H247.193V273.135H253.899V281.889ZM253.899 272.443H247.193V263.696H253.899V272.443ZM253.899 262.997H247.193V254.243H253.899V262.997ZM253.899 253.551H247.193V244.804H253.899V253.551ZM253.899 244.105H247.193V235.351H253.899V244.105ZM261.243 281.889H254.537V273.135H261.243V281.889ZM261.243 272.443H254.537V263.696H261.243V272.443ZM261.243 262.997H254.537V254.243H261.243V262.997ZM261.882 281.889V273.135H268.588V281.882L261.882 281.889Z" fill="#263238"/>
<path d="M230.301 235.519L242.633 268.937L222.675 276.55L228.282 294.483C228.282 294.483 242.614 294.525 253.828 293.784C265.043 293.042 272.911 285.632 271.117 276.795C269.322 267.958 262.597 255.174 257.213 239.941C251.83 224.709 253.496 215.627 251.031 210.96C248.566 206.293 241.611 205.061 241.611 205.061L237.779 204.361" stroke="#263238" stroke-miterlimit="10"/>
<path d="M254.639 265.537C250.57 266.362 246.559 267.496 242.633 268.93C242.633 268.93 251.152 262.787 255.859 262.297" stroke="#263238" stroke-miterlimit="10"/>
<path d="M260.349 265.243C259.465 265.104 258.57 265.071 257.679 265.145" stroke="#263238" stroke-miterlimit="10"/>
<path d="M228.506 273.835C228.506 273.835 233.04 278.586 234.381 282.266C235.723 285.947 235.231 295.946 234.337 296.925C233.443 297.905 216.755 297.786 214.008 294.028C213.293 293.049 218.192 290.789 215.726 285.38C213.261 279.971 212.137 279.489 212.137 279.489C212.137 279.489 210.119 278.257 213.932 275.556C217.745 272.855 226.488 270.896 228.506 273.835Z" fill="#263238" stroke="#263238" stroke-miterlimit="10"/>
<path d="M268.262 311.717H251.708L249.639 275.864H270.331L268.262 311.717Z" fill="#263238" stroke="#263238" stroke-linejoin="round"/>
<path d="M271.251 275.92H248.726V281.14H271.251V275.92Z" fill="white" stroke="#263238" stroke-linejoin="round"/>
<path d="M271.251 276.116H248.726L250.974 273.023H268.996L271.251 276.116Z" fill="white" stroke="#263238" stroke-linejoin="round"/>
<path d="M268.869 301.201L269.693 286.92H250.278L251.101 301.201H268.869Z" fill="white" stroke="#263238" stroke-linejoin="round"/>
<path d="M172.866 314.103L193.265 308.198V311.22L172.866 317.483V314.103Z" fill="#263238" stroke="#263238" stroke-linejoin="round"/>
<path d="M193.265 308.198H86.6167L66.001 314.103H172.867L193.265 308.198Z" fill="white" stroke="#263238" stroke-linejoin="round"/>
<path d="M172.867 246.582H66.001V317.483H172.867V246.582Z" fill="white" stroke="#263238" stroke-linejoin="round"/>
<path d="M172.866 256.839C149.619 258.05 135.774 281.525 115.203 297.254C96.4517 311.598 73.2942 314.047 66.0264 314.432V317.483H172.866V256.839Z" fill="#263238" stroke="#263238" stroke-linejoin="round"/>
<path d="M172.867 314.103H66.001V317.483H172.867V314.103Z" fill="white" stroke="#263238" stroke-miterlimit="10"/>
<path d="M34.3623 290.712C34.3623 290.712 25.4595 275.109 32.606 266.327C39.7525 257.546 51.2993 261.772 53.6815 269.903C56.0637 278.033 51.0119 291.692 51.0119 291.692L34.3623 290.712Z" fill="#4FB3B7" stroke="#263238" stroke-linecap="round" stroke-linejoin="round"/>
<path d="M34.6561 272.828C33.1744 272.828 27.5351 270.554 25.7533 267.629C23.9714 264.704 23.6649 258.197 28.723 258.197C33.7811 258.197 35.5502 267.951 35.5502 267.951L35.844 271.526" fill="#4FB3B7"/>
<path d="M34.6561 272.828C33.1744 272.828 27.5351 270.554 25.7533 267.629C23.9714 264.704 23.6649 258.197 28.723 258.197C33.7811 258.197 35.5502 267.951 35.5502 267.951L35.844 271.526" stroke="#263238" stroke-linecap="round" stroke-linejoin="round"/>
<path d="M39.2224 266.754C37.894 266.054 33.7747 261.24 33.3724 257.749C32.97 254.257 35.3586 248.296 39.8738 250.752C44.3891 253.208 42.0069 262.822 42.0069 262.822L40.8127 266.166" fill="#4FB3B7"/>
<path d="M39.2224 266.754C37.894 266.054 33.7747 261.24 33.3724 257.749C32.97 254.257 35.3586 248.296 39.8738 250.752C44.3891 253.208 42.0069 262.822 42.0069 262.822L40.8127 266.166" stroke="#263238" stroke-linecap="round" stroke-linejoin="round"/>
<path d="M44.6128 268.391C43.8719 266.992 42.8756 260.492 44.3062 257.343C45.7368 254.194 50.7438 250.682 53.2473 255.482C55.7508 260.282 48.9109 266.817 48.9109 266.817L46.2222 268.874" fill="#4FB3B7"/>
<path d="M44.6128 268.391C43.8719 266.992 42.8756 260.492 44.3062 257.343C45.7368 254.194 50.7438 250.682 53.2473 255.482C55.7508 260.282 48.9109 266.817 48.9109 266.817L46.2222 268.874" stroke="#263238" stroke-linecap="round" stroke-linejoin="round"/>
<path d="M46.3816 280.048C46.1389 278.439 47.2502 271.974 49.5749 269.553C51.8996 267.132 57.7177 265.739 58.5543 271.19C59.3909 276.641 50.8905 280.188 50.8905 280.188L47.6972 281.098" fill="#4FB3B7"/>
<path d="M46.3816 280.048C46.1389 278.439 47.2502 271.974 49.5749 269.553C51.8996 267.132 57.7177 265.739 58.5543 271.19C59.3909 276.641 50.8905 280.188 50.8905 280.188L47.6972 281.098" stroke="#263238" stroke-linecap="round" stroke-linejoin="round"/>
<path d="M26.4048 263.703L27.4075 265.432" stroke="white" stroke-linecap="round" stroke-linejoin="round"/>
<path d="M29.2722 267.944L30.8433 269.35" stroke="white" stroke-linecap="round" stroke-linejoin="round"/>
<path d="M27.5542 260.408L29.1253 262.92" stroke="white" stroke-linecap="round" stroke-linejoin="round"/>
<path d="M31.2776 264.963L32.9956 268.412" stroke="white" stroke-linecap="round" stroke-linejoin="round"/>
<path d="M35.282 256.643L35.8568 258.526" stroke="white" stroke-linecap="round" stroke-linejoin="round"/>
<path d="M37.2874 261.975L38.29 263.549" stroke="white" stroke-linecap="round" stroke-linejoin="round"/>
<path d="M36.8594 252.879L38.1494 256.014" stroke="white" stroke-linecap="round" stroke-linejoin="round"/>
<path d="M31.8459 275.004L32.2802 277.823" stroke="white" stroke-linecap="round" stroke-linejoin="round"/>
<path d="M33.136 280.489L33.7108 282.847" stroke="white" stroke-linecap="round" stroke-linejoin="round"/>
<path d="M34.5667 275.158L35.1414 278.292" stroke="white" stroke-linecap="round" stroke-linejoin="round"/>
<path d="M36.4316 280.489L36.8595 282.847" stroke="white" stroke-linecap="round" stroke-linejoin="round"/>
<path d="M37.4343 271.078L38.2901 275.472" stroke="white" stroke-linecap="round" stroke-linejoin="round"/>
<path d="M39.4397 279.706L39.5802 281.749" stroke="white" stroke-linecap="round" stroke-linejoin="round"/>
<path d="M41.0107 269.665L41.726 273.744" stroke="white" stroke-linecap="round" stroke-linejoin="round"/>
<path d="M41.7258 277.984L42.0132 282.218" stroke="white" stroke-linecap="round" stroke-linejoin="round"/>
<path d="M45.1682 271.232V274.689" stroke="white" stroke-linecap="round" stroke-linejoin="round"/>
<path d="M44.7339 279.083L44.8808 281.749" stroke="white" stroke-linecap="round" stroke-linejoin="round"/>
<path d="M48.7448 254.915L48.0295 256.804" stroke="white" stroke-linecap="round" stroke-linejoin="round"/>
<path d="M47.7421 258.994L47.0269 261.667" stroke="white" stroke-linecap="round" stroke-linejoin="round"/>
<path d="M51.8934 258.526L50.7502 261.038" stroke="white" stroke-linecap="round" stroke-linejoin="round"/>
<path d="M48.3169 263.864L47.0269 265.432" stroke="white" stroke-linecap="round" stroke-linejoin="round"/>
<path d="M45.5961 258.372L45.1682 260.408" stroke="white" stroke-linecap="round" stroke-linejoin="round"/>
<path d="M51.8933 269.665L50.3223 272.492" stroke="white" stroke-linecap="round" stroke-linejoin="round"/>
<path d="M49.3195 274.213L48.4573 276.725" stroke="white" stroke-linecap="round" stroke-linejoin="round"/>
<path d="M50.6096 277.984L53.1834 276.41" stroke="white" stroke-linecap="round" stroke-linejoin="round"/>
<path d="M54.7608 269.665L53.4707 272.023" stroke="white" stroke-linecap="round" stroke-linejoin="round"/>
<path d="M56.051 272.331L54.333 273.744" stroke="white" stroke-linecap="round" stroke-linejoin="round"/>
<path d="M54.1989 285.268H29.8535V311.941H54.1989V285.268Z" fill="#263238" stroke="#263238" stroke-linecap="round" stroke-linejoin="round"/>
</svg>
