<svg width="355" height="263" viewBox="0 0 355 263" fill="none" xmlns="http://www.w3.org/2000/svg">
<path d="M354.861 230.765H0V230.941H354.861V230.765Z" fill="#EBEBEB"/>
<path d="M319.304 242.106H295.798V242.282H319.304V242.106Z" fill="#EBEBEB"/>
<path d="M235.074 244.023H228.907V244.199H235.074V244.023Z" fill="#EBEBEB"/>
<path d="M295.089 235.565H281.469V235.741H295.089V235.565Z" fill="#EBEBEB"/>
<path d="M67.8849 236.749H37.2319V236.925H67.8849V236.749Z" fill="#EBEBEB"/>
<path d="M78.701 236.749H74.2085V236.925H78.701V236.749Z" fill="#EBEBEB"/>
<path d="M159.794 239.724H93.3071V239.9H159.794V239.724Z" fill="#EBEBEB"/>
<path d="M168.204 199.329H31.1638C30.0903 199.327 29.0613 198.902 28.3029 198.148C27.5444 197.393 27.1184 196.371 27.1184 195.304V3.9894C27.1278 2.92934 27.5579 1.91574 28.3153 1.16878C29.0728 0.421818 30.0964 0.00181594 31.1638 0H168.204C169.279 0 170.31 0.424024 171.07 1.17879C171.83 1.93356 172.257 2.95724 172.257 4.02464V195.304C172.257 196.372 171.83 197.396 171.07 198.15C170.31 198.905 169.279 199.329 168.204 199.329ZM31.1638 0.140969C30.1373 0.142836 29.1535 0.549117 28.4283 1.27064C27.7031 1.99216 27.2958 2.96995 27.2958 3.9894V195.304C27.2958 196.324 27.7031 197.302 28.4283 198.023C29.1535 198.745 30.1373 199.151 31.1638 199.153H168.204C169.231 199.151 170.216 198.745 170.942 198.024C171.669 197.302 172.077 196.325 172.079 195.304V3.9894C172.077 2.96931 171.669 1.99152 170.942 1.27021C170.216 0.548888 169.231 0.142832 168.204 0.140969H31.1638Z" fill="#EBEBEB"/>
<path d="M321.725 199.329H184.677C183.603 199.327 182.573 198.903 181.814 198.148C181.054 197.394 180.626 196.371 180.625 195.304V3.9894C180.636 2.9287 181.067 1.91511 181.826 1.16834C182.585 0.421572 183.609 0.00179614 184.677 0H321.725C322.791 0.00366834 323.813 0.42449 324.568 1.17125C325.324 1.91802 325.753 2.93056 325.763 3.9894V195.304C325.763 196.369 325.338 197.391 324.581 198.145C323.824 198.9 322.797 199.325 321.725 199.329ZM184.677 0.140969C183.65 0.142832 182.665 0.548888 181.939 1.27021C181.213 1.99152 180.804 2.96931 180.802 3.9894V195.304C180.804 196.325 181.213 197.302 181.939 198.024C182.665 198.745 183.65 199.151 184.677 199.153H321.725C322.752 199.151 323.736 198.745 324.463 198.024C325.189 197.302 325.598 196.325 325.6 195.304V3.9894C325.598 2.96931 325.189 1.99152 324.463 1.27021C323.736 0.548888 322.752 0.142832 321.725 0.140969H184.677Z" fill="#EBEBEB"/>
<path d="M192.165 230.004H288.19V90.1774H192.165V230.004Z" fill="#F0F0F0"/>
<path d="M195.557 120.408L284.798 120.408V94.5827L195.557 94.5827V120.408Z" fill="#E0E0E0"/>
<path d="M279.73 120.408H284.798V98.7624H279.73V120.408Z" fill="#EBEBEB"/>
<path d="M255.216 120.408H260.284V98.7624H255.216V120.408Z" fill="#EBEBEB"/>
<path d="M223.691 119.545L228.685 120.4L232.387 99.069L227.393 98.2142L223.691 119.545Z" fill="#EBEBEB"/>
<path d="M273.449 120.408H278.517V101.617H273.449V120.408Z" fill="#EBEBEB"/>
<path d="M261.795 120.408H266.863V101.617H261.795V120.408Z" fill="#EBEBEB"/>
<path d="M232.384 120.408H237.452V101.617H232.384V120.408Z" fill="#EBEBEB"/>
<path d="M244.465 119.308L249.411 120.4L253.516 102.057L248.57 100.965L244.465 119.308Z" fill="#EBEBEB"/>
<path d="M269.063 120.408H271.597V97.691H269.063V120.408Z" fill="#EBEBEB"/>
<path d="M238.914 120.408H241.448V97.691H238.914V120.408Z" fill="#EBEBEB"/>
<path d="M284.798 124.496H195.557V150.321H284.798V124.496Z" fill="#E0E0E0"/>
<path d="M200.625 128.676H195.557V150.321H200.625V128.676Z" fill="#EBEBEB"/>
<path d="M225.138 128.676H220.071V150.321H225.138V128.676Z" fill="#EBEBEB"/>
<path d="M252.974 128.123L247.98 128.978L251.682 150.309L256.676 149.454L252.974 128.123Z" fill="#EBEBEB"/>
<path d="M206.906 131.53H201.838V150.322H206.906V131.53Z" fill="#EBEBEB"/>
<path d="M218.559 131.53H213.492V150.322H218.559V131.53Z" fill="#EBEBEB"/>
<path d="M247.97 131.53H242.903V150.322H247.97V131.53Z" fill="#EBEBEB"/>
<path d="M231.808 130.871L226.862 131.962L230.967 150.306L235.913 149.214L231.808 130.871Z" fill="#EBEBEB"/>
<path d="M211.292 127.604H208.758V150.321H211.292V127.604Z" fill="#EBEBEB"/>
<path d="M241.441 127.604H238.907V150.321H241.441V127.604Z" fill="#EBEBEB"/>
<path d="M279.73 150.322H284.798V128.676H279.73V150.322Z" fill="#EBEBEB"/>
<path d="M273.449 150.322H278.517V131.53H273.449V150.322Z" fill="#EBEBEB"/>
<path d="M261.795 150.322H266.863V131.53H261.795V150.322Z" fill="#EBEBEB"/>
<path d="M269.063 150.322H271.597V127.605H269.063V150.322Z" fill="#EBEBEB"/>
<path d="M195.557 180.235H284.798V154.41H195.557V180.235Z" fill="#E0E0E0"/>
<path d="M228.509 180.235H233.577V158.589H228.509V180.235Z" fill="#EBEBEB"/>
<path d="M196.985 179.369L201.979 180.224L205.681 158.893L200.688 158.038L196.985 179.369Z" fill="#EBEBEB"/>
<path d="M246.742 180.235H251.81V161.444H246.742V180.235Z" fill="#EBEBEB"/>
<path d="M235.089 180.235H240.156V161.444H235.089V180.235Z" fill="#EBEBEB"/>
<path d="M205.678 180.235H210.745V161.444H205.678V180.235Z" fill="#EBEBEB"/>
<path d="M217.757 179.132L222.703 180.224L226.808 161.88L221.862 160.789L217.757 179.132Z" fill="#EBEBEB"/>
<path d="M242.356 180.235H244.89V157.518H242.356V180.235Z" fill="#EBEBEB"/>
<path d="M212.207 180.235H214.741V157.518H212.207V180.235Z" fill="#EBEBEB"/>
<path d="M255.313 179.371L260.307 180.225L264.009 158.894L259.015 158.039L255.313 179.371Z" fill="#EBEBEB"/>
<path d="M264.003 180.235H269.07V161.444H264.003V180.235Z" fill="#EBEBEB"/>
<path d="M276.087 179.134L281.033 180.226L285.138 161.883L280.192 160.791L276.087 179.134Z" fill="#EBEBEB"/>
<path d="M270.525 180.235H273.059V157.518H270.525V180.235Z" fill="#EBEBEB"/>
<path d="M304.755 90.1844H288.19V230.37H304.755V90.1844Z" fill="#E0E0E0"/>
<path d="M74.1094 60.0807C74.1094 60.0807 73.279 54.6393 77.2747 51.1433C81.2705 47.6473 80.9227 45.575 79.78 45.3072C78.6374 45.0394 77.587 48.5283 75.8269 49.4869C75.8269 49.4869 75.7701 44.5107 77.5586 42.6781C79.3471 40.8456 80.2769 36.1231 78.5806 36.0385C76.8844 35.9539 76.7069 38.8579 76.3521 40.8878C75.9972 42.9178 74.1094 45.8217 74.1094 45.8217C74.1094 45.8217 73.7403 41.3671 72.5835 39.5345C71.4266 37.702 74.5068 33.5082 73.2932 31.6756C72.0795 29.843 70.0001 33.339 70.1704 37.265C70.3407 41.1909 73.0093 45.3847 72.3705 49.4869C72.3705 49.4869 71.2066 46.6041 70.1633 46.3433C69.12 46.0825 68.0341 44.1724 67.3244 43.4676C66.6147 42.7627 65.7417 45.2085 67.3244 47.4781C68.9071 49.7477 72.9525 55.8164 72.3351 60.7291L74.1094 60.0807Z" fill="#E6E6E6"/>
<path d="M76.501 57.6067L77.8069 65.7688C77.9024 66.3611 77.8673 66.9671 77.704 67.5447C77.5407 68.1223 77.2531 68.6578 76.861 69.1142C76.4689 69.5706 75.9817 69.937 75.4331 70.1882C74.8845 70.4393 74.2875 70.5691 73.6834 70.5687H72.2639C71.6592 70.5702 71.0614 70.4411 70.512 70.1904C69.9625 69.9397 69.4744 69.5734 69.0815 69.1169C68.6887 68.6603 68.4004 68.1245 68.2367 67.5464C68.073 66.9683 68.0377 66.3617 68.1333 65.7688L69.4392 57.6067H76.501Z" fill="#E6E6E6"/>
<path d="M56.6855 72.2815L149.262 72.2815V67.559L56.6855 67.559V72.2815Z" fill="#E0E0E0"/>
<path d="M140.923 67.559H145.003V50.1494H140.923V67.559Z" fill="#EBEBEB"/>
<path d="M121.206 67.559H125.287V50.1494H121.206V67.559Z" fill="#EBEBEB"/>
<path d="M95.8341 66.8707L99.8557 67.5591L102.833 50.4025L98.8119 49.7141L95.8341 66.8707Z" fill="#EBEBEB"/>
<path d="M135.869 67.559H139.95V52.4402H135.869V67.559Z" fill="#EBEBEB"/>
<path d="M126.494 67.559H130.575V52.4402H126.494V67.559Z" fill="#EBEBEB"/>
<path d="M102.832 67.559H106.913V52.4402H102.832V67.559Z" fill="#EBEBEB"/>
<path d="M112.549 66.6719L116.532 67.5511L119.835 52.7924L115.851 51.9131L112.549 66.6719Z" fill="#EBEBEB"/>
<path d="M132.349 67.552H134.386V49.2755H132.349V67.552Z" fill="#EBEBEB"/>
<path d="M108.091 67.552H110.128V49.2755H108.091V67.552Z" fill="#EBEBEB"/>
<path d="M149.269 102.822H56.6926V107.545H149.269V102.822Z" fill="#E0E0E0"/>
<path d="M65.0318 85.4127H60.9509V102.822H65.0318V85.4127Z" fill="#EBEBEB"/>
<path d="M84.755 85.4127H80.6741V102.822H84.755V85.4127Z" fill="#EBEBEB"/>
<path d="M107.146 84.9741L103.125 85.6625L106.103 102.819L110.124 102.131L107.146 84.9741Z" fill="#EBEBEB"/>
<path d="M70.0853 87.7034H66.0044V102.822H70.0853V87.7034Z" fill="#EBEBEB"/>
<path d="M79.4605 87.7034H75.3796V102.822H79.4605V87.7034Z" fill="#EBEBEB"/>
<path d="M103.123 87.7034H99.0417V102.822H103.123V87.7034Z" fill="#EBEBEB"/>
<path d="M90.118 87.1751L86.1343 88.0544L89.437 102.813L93.4207 101.934L90.118 87.1751Z" fill="#EBEBEB"/>
<path d="M73.6053 84.5457H71.5684V102.822H73.6053V84.5457Z" fill="#EBEBEB"/>
<path d="M97.8638 84.5457H95.8269V102.822H97.8638V84.5457Z" fill="#EBEBEB"/>
<path d="M140.383 89.0426H120.511V102.667H140.383V89.0426Z" fill="#EBEBEB"/>
<path d="M245.33 59.9538C252.985 59.9538 259.191 53.7908 259.191 46.1882C259.191 38.5857 252.985 32.4227 245.33 32.4227C237.675 32.4227 231.469 38.5857 231.469 46.1882C231.469 53.7908 237.675 59.9538 245.33 59.9538Z" fill="#E0E0E0"/>
<path d="M245.33 57.8957C251.841 57.8957 257.118 52.6541 257.118 46.1882C257.118 39.7224 251.841 34.4808 245.33 34.4808C238.819 34.4808 233.542 39.7224 233.542 46.1882C233.542 52.6541 238.819 57.8957 245.33 57.8957Z" fill="#F0F0F0"/>
<path d="M244.776 38.1601V46.3433L239.312 43.2702" fill="#F0F0F0"/>
<path d="M244.776 47.0482C244.655 47.0463 244.535 47.0148 244.429 46.9565L238.964 43.8834C238.8 43.7916 238.68 43.6392 238.629 43.4595C238.579 43.2798 238.602 43.0875 238.694 42.9248C238.74 42.8435 238.801 42.7719 238.875 42.7144C238.949 42.6568 239.034 42.6143 239.124 42.5894C239.214 42.5645 239.309 42.5577 239.402 42.5693C239.495 42.5809 239.585 42.6107 239.666 42.657L244.067 45.131V38.1601C244.067 37.9732 244.141 37.7939 244.275 37.6617C244.408 37.5295 244.588 37.4553 244.776 37.4553C244.965 37.4553 245.145 37.5295 245.278 37.6617C245.411 37.7939 245.486 37.9732 245.486 38.1601V46.3433C245.486 46.5302 245.411 46.7095 245.278 46.8417C245.145 46.9739 244.965 47.0482 244.776 47.0482Z" fill="#E0E0E0"/>
<path d="M177.431 262.596C253.43 262.596 315.039 259.023 315.039 254.617C315.039 250.21 253.43 246.638 177.431 246.638C101.432 246.638 39.8225 250.21 39.8225 254.617C39.8225 259.023 101.432 262.596 177.431 262.596Z" fill="#F5F5F5"/>
<path d="M299.865 51.2279H158.616V184.048H299.865V51.2279Z" fill="#4FB3B7"/>
<path opacity="0.7" d="M299.865 51.2279H158.616V184.048H299.865V51.2279Z" fill="white"/>
<path d="M299.865 51.2279H158.616V57.9873H299.865V51.2279Z" fill="#4FB3B7"/>
<path opacity="0.2" d="M299.865 57.9944H295.195V184.175H299.865V57.9944Z" fill="black"/>
<path opacity="0.6" d="M297.793 60.9829H297.367C296.708 60.9829 296.175 61.513 296.175 62.167V77.3775C296.175 78.0315 296.708 78.5616 297.367 78.5616H297.793C298.451 78.5616 298.985 78.0315 298.985 77.3775V62.167C298.985 61.513 298.451 60.9829 297.793 60.9829Z" fill="white"/>
<path opacity="0.2" d="M292.108 145.197H161.519C161.425 145.195 161.336 145.158 161.27 145.092C161.204 145.026 161.166 144.938 161.164 144.845C161.164 144.751 161.201 144.662 161.268 144.596C161.334 144.53 161.425 144.492 161.519 144.492H292.108C292.202 144.492 292.292 144.53 292.359 144.596C292.425 144.662 292.463 144.751 292.463 144.845C292.463 144.938 292.425 145.028 292.359 145.094C292.292 145.16 292.202 145.197 292.108 145.197Z" fill="black"/>
<path opacity="0.2" d="M292.108 114.889H161.519C161.425 114.887 161.336 114.85 161.27 114.784C161.204 114.718 161.166 114.63 161.164 114.537C161.164 114.443 161.201 114.354 161.268 114.288C161.334 114.221 161.425 114.184 161.519 114.184H292.108C292.202 114.184 292.292 114.221 292.359 114.288C292.425 114.354 292.463 114.443 292.463 114.537C292.463 114.63 292.425 114.72 292.359 114.786C292.292 114.852 292.202 114.889 292.108 114.889Z" fill="black"/>
<path d="M292.115 60.9758H161.554V80.803H292.115V60.9758Z" fill="#4FB3B7"/>
<path opacity="0.6" d="M298.24 54.6111C298.24 54.9471 298.139 55.2755 297.951 55.5548C297.763 55.8342 297.496 56.0519 297.184 56.1805C296.871 56.309 296.527 56.3427 296.196 56.2771C295.864 56.2116 295.559 56.0498 295.32 55.8122C295.081 55.5747 294.918 55.272 294.852 54.9425C294.786 54.613 294.82 54.2715 294.949 53.9611C295.079 53.6507 295.298 53.3854 295.579 53.1987C295.86 53.0121 296.191 52.9124 296.529 52.9124C296.983 52.9124 297.418 53.0914 297.739 53.41C298.059 53.7285 298.24 54.1606 298.24 54.6111Z" fill="white"/>
<path opacity="0.6" d="M292.207 54.6111C292.207 54.9471 292.107 55.2755 291.919 55.5548C291.731 55.8342 291.464 56.0519 291.151 56.1805C290.839 56.309 290.495 56.3427 290.163 56.2771C289.831 56.2116 289.527 56.0498 289.287 55.8122C289.048 55.5747 288.885 55.272 288.819 54.9425C288.753 54.613 288.787 54.2715 288.917 53.9611C289.046 53.6507 289.265 53.3854 289.547 53.1987C289.828 53.0121 290.159 52.9124 290.497 52.9124C290.95 52.9124 291.385 53.0914 291.706 53.41C292.027 53.7285 292.207 54.1606 292.207 54.6111Z" fill="white"/>
<path opacity="0.6" d="M286.175 54.6111C286.175 54.9471 286.074 55.2755 285.886 55.5548C285.698 55.8342 285.431 56.0519 285.119 56.1805C284.806 56.309 284.462 56.3427 284.13 56.2771C283.799 56.2116 283.494 56.0498 283.255 55.8122C283.015 55.5747 282.853 55.272 282.787 54.9425C282.721 54.613 282.754 54.2715 282.884 53.9611C283.013 53.6507 283.233 53.3854 283.514 53.1987C283.795 53.0121 284.126 52.9124 284.464 52.9124C284.918 52.9124 285.353 53.0914 285.674 53.41C285.994 53.7285 286.175 54.1606 286.175 54.6111Z" fill="white"/>
<path opacity="0.4" d="M167.147 94.0822C166.32 94.0822 165.512 93.8387 164.824 93.3825C164.137 92.9264 163.601 92.278 163.285 91.5194C162.968 90.7608 162.886 89.9261 163.047 89.1208C163.208 88.3155 163.606 87.5757 164.191 86.9951C164.776 86.4145 165.52 86.0191 166.331 85.8589C167.142 85.6988 167.983 85.781 168.747 86.0952C169.51 86.4094 170.163 86.9415 170.623 87.6242C171.082 88.3069 171.327 89.1096 171.327 89.9307C171.325 91.0312 170.884 92.086 170.101 92.8642C169.317 93.6424 168.255 94.0803 167.147 94.0822Z" fill="black"/>
<path d="M167.658 88.3519V91.5025H166.948V88.9369H166.316V88.3519H167.658Z" fill="white"/>
<path opacity="0.4" d="M286.466 85.9061H175.259C174.812 85.9061 174.45 86.2658 174.45 86.7096V87.21C174.45 87.6538 174.812 88.0135 175.259 88.0135H286.466C286.912 88.0135 287.275 87.6538 287.275 87.21V86.7096C287.275 86.2658 286.912 85.9061 286.466 85.9061Z" fill="black"/>
<path opacity="0.4" d="M286.466 91.3827H175.259C174.812 91.3827 174.45 91.7424 174.45 92.1862V92.6866C174.45 93.1304 174.812 93.4901 175.259 93.4901H286.466C286.912 93.4901 287.275 93.1304 287.275 92.6866V92.1862C287.275 91.7424 286.912 91.3827 286.466 91.3827Z" fill="black"/>
<path opacity="0.4" d="M247.999 96.8522H175.259C174.812 96.8522 174.45 97.212 174.45 97.6558V98.1562C174.45 98.6 174.812 98.9597 175.259 98.9597H247.999C248.445 98.9597 248.808 98.6 248.808 98.1562V97.6558C248.808 97.212 248.445 96.8522 247.999 96.8522Z" fill="black"/>
<path opacity="0.2" d="M176.395 109.279C177.465 109.279 178.332 108.417 178.332 107.354C178.332 106.292 177.465 105.43 176.395 105.43C175.324 105.43 174.457 106.292 174.457 107.354C174.457 108.417 175.324 109.279 176.395 109.279Z" fill="black"/>
<path d="M177.729 107.354C177.73 107.618 177.653 107.877 177.506 108.097C177.359 108.317 177.15 108.489 176.904 108.591C176.659 108.692 176.388 108.719 176.128 108.668C175.867 108.617 175.627 108.49 175.439 108.303C175.251 108.117 175.123 107.879 175.072 107.62C175.02 107.36 175.047 107.092 175.15 106.848C175.252 106.605 175.425 106.397 175.647 106.251C175.868 106.105 176.129 106.028 176.395 106.029C176.748 106.029 177.088 106.169 177.338 106.417C177.588 106.666 177.729 107.003 177.729 107.354Z" fill="white"/>
<path opacity="0.4" d="M201.505 106.304H182.725C182.278 106.304 181.916 106.664 181.916 107.108V107.608C181.916 108.052 182.278 108.412 182.725 108.412H201.505C201.951 108.412 202.314 108.052 202.314 107.608V107.108C202.314 106.664 201.951 106.304 201.505 106.304Z" fill="black"/>
<path opacity="0.2" d="M217.7 107.312C217.7 107.693 217.587 108.065 217.374 108.381C217.161 108.698 216.858 108.944 216.504 109.09C216.15 109.235 215.761 109.274 215.385 109.199C215.009 109.125 214.664 108.942 214.393 108.673C214.122 108.404 213.937 108.061 213.862 107.687C213.788 107.314 213.826 106.927 213.973 106.576C214.119 106.224 214.368 105.924 214.686 105.712C215.005 105.501 215.38 105.388 215.763 105.388C216.277 105.388 216.769 105.591 217.133 105.951C217.496 106.312 217.7 106.802 217.7 107.312Z" fill="black"/>
<path d="M217.104 107.312C217.106 107.576 217.028 107.834 216.882 108.054C216.735 108.274 216.526 108.446 216.281 108.548C216.036 108.65 215.766 108.677 215.505 108.627C215.245 108.576 215.005 108.45 214.817 108.264C214.628 108.078 214.5 107.84 214.448 107.582C214.395 107.323 214.422 107.055 214.523 106.811C214.624 106.567 214.796 106.359 215.017 106.212C215.238 106.065 215.497 105.987 215.763 105.987C216.117 105.987 216.457 106.126 216.709 106.375C216.96 106.623 217.102 106.96 217.104 107.312Z" fill="#4FB3B7"/>
<path opacity="0.4" d="M240.887 106.262H222.101C221.654 106.262 221.292 106.622 221.292 107.065V107.566C221.292 108.01 221.654 108.369 222.101 108.369H240.887C241.334 108.369 241.696 108.01 241.696 107.566V107.065C241.696 106.622 241.334 106.262 240.887 106.262Z" fill="black"/>
<path opacity="0.2" d="M257.076 107.27C257.076 107.65 256.962 108.022 256.749 108.339C256.536 108.655 256.234 108.902 255.88 109.048C255.526 109.193 255.136 109.231 254.76 109.157C254.384 109.083 254.039 108.9 253.768 108.63C253.497 108.361 253.313 108.018 253.238 107.645C253.163 107.272 253.202 106.885 253.348 106.533C253.495 106.182 253.743 105.881 254.062 105.67C254.38 105.458 254.755 105.346 255.138 105.346C255.652 105.346 256.145 105.548 256.508 105.909C256.872 106.27 257.076 106.759 257.076 107.27Z" fill="black"/>
<path d="M256.48 107.27C256.48 107.533 256.401 107.791 256.254 108.01C256.106 108.229 255.897 108.4 255.652 108.501C255.406 108.601 255.137 108.628 254.877 108.576C254.616 108.525 254.377 108.398 254.19 108.212C254.002 108.025 253.874 107.788 253.823 107.53C253.771 107.271 253.797 107.003 253.899 106.76C254.001 106.517 254.172 106.309 254.393 106.162C254.614 106.016 254.873 105.938 255.138 105.938C255.494 105.938 255.835 106.078 256.087 106.328C256.338 106.578 256.48 106.916 256.48 107.27Z" fill="white"/>
<path opacity="0.4" d="M280.255 106.213H261.476C261.029 106.213 260.667 106.572 260.667 107.016V107.516C260.667 107.96 261.029 108.32 261.476 108.32H280.255C280.702 108.32 281.064 107.96 281.064 107.516V107.016C281.064 106.572 280.702 106.213 280.255 106.213Z" fill="black"/>
<path opacity="0.4" d="M167.147 129.197C169.456 129.197 171.327 127.339 171.327 125.046C171.327 122.753 169.456 120.894 167.147 120.894C164.838 120.894 162.967 122.753 162.967 125.046C162.967 127.339 164.838 129.197 167.147 129.197Z" fill="black"/>
<path d="M168.353 126.054V126.646H165.962V126.167L167.182 125.018C167.466 124.75 167.516 124.588 167.516 124.44C167.516 124.292 167.345 124.045 167.005 124.045C166.878 124.041 166.752 124.067 166.638 124.123C166.525 124.178 166.426 124.26 166.352 124.362L165.82 124.017C165.965 123.825 166.155 123.671 166.374 123.569C166.593 123.467 166.834 123.42 167.076 123.432C167.786 123.432 168.254 123.791 168.254 124.362C168.25 124.558 168.2 124.749 168.107 124.922C168.015 125.095 167.883 125.243 167.722 125.356L167.012 126.061L168.353 126.054Z" fill="white"/>
<path opacity="0.4" d="M286.466 121.042H175.259C174.812 121.042 174.45 121.402 174.45 121.846V122.346C174.45 122.79 174.812 123.15 175.259 123.15H286.466C286.912 123.15 287.275 122.79 287.275 122.346V121.846C287.275 121.402 286.912 121.042 286.466 121.042Z" fill="black"/>
<path opacity="0.4" d="M196.395 126.512H175.259C174.812 126.512 174.45 126.872 174.45 127.315V127.816C174.45 128.26 174.812 128.619 175.259 128.619H196.395C196.841 128.619 197.204 128.26 197.204 127.816V127.315C197.204 126.872 196.841 126.512 196.395 126.512Z" fill="black"/>
<path opacity="0.2" d="M176.395 138.854C177.465 138.854 178.332 137.992 178.332 136.93C178.332 135.867 177.465 135.005 176.395 135.005C175.324 135.005 174.457 135.867 174.457 136.93C174.457 137.992 175.324 138.854 176.395 138.854Z" fill="black"/>
<path d="M176.395 138.262C177.135 138.262 177.736 137.665 177.736 136.93C177.736 136.194 177.135 135.597 176.395 135.597C175.654 135.597 175.053 136.194 175.053 136.93C175.053 137.665 175.654 138.262 176.395 138.262Z" fill="white"/>
<path opacity="0.4" d="M201.505 135.879H182.725C182.278 135.879 181.916 136.239 181.916 136.683V137.183C181.916 137.627 182.278 137.987 182.725 137.987H201.505C201.951 137.987 202.314 137.627 202.314 137.183V136.683C202.314 136.239 201.951 135.879 201.505 135.879Z" fill="black"/>
<path opacity="0.2" d="M215.763 138.811C216.833 138.811 217.7 137.95 217.7 136.887C217.7 135.825 216.833 134.963 215.763 134.963C214.693 134.963 213.825 135.825 213.825 136.887C213.825 137.95 214.693 138.811 215.763 138.811Z" fill="black"/>
<path d="M215.763 138.219C216.504 138.219 217.104 137.623 217.104 136.887C217.104 136.152 216.504 135.555 215.763 135.555C215.022 135.555 214.421 136.152 214.421 136.887C214.421 137.623 215.022 138.219 215.763 138.219Z" fill="white"/>
<path opacity="0.4" d="M240.887 135.83H222.101C221.654 135.83 221.292 136.19 221.292 136.633V137.134C221.292 137.578 221.654 137.937 222.101 137.937H240.887C241.334 137.937 241.696 137.578 241.696 137.134V136.633C241.696 136.19 241.334 135.83 240.887 135.83Z" fill="black"/>
<path opacity="0.2" d="M257.076 136.845C257.076 137.225 256.962 137.598 256.749 137.914C256.536 138.23 256.234 138.477 255.88 138.623C255.526 138.768 255.136 138.806 254.76 138.732C254.384 138.658 254.039 138.475 253.768 138.206C253.497 137.936 253.313 137.594 253.238 137.22C253.163 136.847 253.202 136.46 253.348 136.109C253.495 135.757 253.743 135.456 254.062 135.245C254.38 135.034 254.755 134.921 255.138 134.921C255.652 134.921 256.145 135.123 256.508 135.484C256.872 135.845 257.076 136.335 257.076 136.845Z" fill="black"/>
<path d="M256.48 136.845C256.48 137.108 256.401 137.366 256.254 137.585C256.106 137.804 255.897 137.975 255.652 138.076C255.406 138.176 255.137 138.203 254.877 138.151C254.616 138.1 254.377 137.973 254.19 137.787C254.002 137.601 253.874 137.363 253.823 137.105C253.771 136.846 253.797 136.579 253.899 136.335C254.001 136.092 254.172 135.884 254.393 135.737C254.614 135.591 254.873 135.513 255.138 135.513C255.494 135.513 255.835 135.653 256.087 135.903C256.338 136.153 256.48 136.492 256.48 136.845Z" fill="#4FB3B7"/>
<path opacity="0.4" d="M280.255 135.788H261.476C261.029 135.788 260.667 136.147 260.667 136.591V137.092C260.667 137.535 261.029 137.895 261.476 137.895H280.255C280.702 137.895 281.064 137.535 281.064 137.092V136.591C281.064 136.147 280.702 135.788 280.255 135.788Z" fill="black"/>
<path opacity="0.4" d="M167.147 159.689C166.32 159.689 165.512 159.445 164.824 158.989C164.137 158.533 163.601 157.885 163.285 157.126C162.968 156.367 162.886 155.533 163.047 154.727C163.208 153.922 163.606 153.182 164.191 152.602C164.776 152.021 165.52 151.626 166.331 151.466C167.142 151.305 167.983 151.388 168.747 151.702C169.51 152.016 170.163 152.548 170.623 153.231C171.082 153.914 171.327 154.716 171.327 155.537C171.327 156.638 170.887 157.694 170.103 158.473C169.319 159.251 168.255 159.689 167.147 159.689Z" fill="black"/>
<path d="M168.325 156.122C168.325 156.651 167.913 157.137 167.012 157.137C166.585 157.147 166.164 157.029 165.805 156.799L166.089 156.242C166.353 156.426 166.668 156.525 166.991 156.524C167.36 156.524 167.587 156.376 167.587 156.122C167.587 155.869 167.409 155.735 166.991 155.735H166.657V155.255L167.31 154.551H165.962V153.966H168.204V154.438L167.495 155.248C167.718 155.264 167.927 155.363 168.081 155.525C168.235 155.687 168.322 155.9 168.325 156.122Z" fill="white"/>
<path opacity="0.4" d="M286.466 151.506H175.259C174.812 151.506 174.45 151.865 174.45 152.309V152.81C174.45 153.253 174.812 153.613 175.259 153.613H286.466C286.912 153.613 287.275 153.253 287.275 152.81V152.309C287.275 151.865 286.912 151.506 286.466 151.506Z" fill="black"/>
<path opacity="0.4" d="M286.466 156.975H175.259C174.812 156.975 174.45 157.335 174.45 157.779V158.279C174.45 158.723 174.812 159.083 175.259 159.083H286.466C286.912 159.083 287.275 158.723 287.275 158.279V157.779C287.275 157.335 286.912 156.975 286.466 156.975Z" fill="black"/>
<path opacity="0.4" d="M230.965 162.452H175.259C174.812 162.452 174.45 162.812 174.45 163.255V163.756C174.45 164.2 174.812 164.559 175.259 164.559H230.965C231.412 164.559 231.774 164.2 231.774 163.756V163.255C231.774 162.812 231.412 162.452 230.965 162.452Z" fill="black"/>
<path opacity="0.4" d="M217.416 171.164H214.109C213.952 171.164 213.825 171.29 213.825 171.446V174.73C213.825 174.886 213.952 175.012 214.109 175.012H217.416C217.573 175.012 217.7 174.886 217.7 174.73V171.446C217.7 171.29 217.573 171.164 217.416 171.164Z" fill="black"/>
<path d="M217.239 174.554V171.629H214.294V174.554H217.239Z" fill="white"/>
<path opacity="0.4" d="M240.887 172.038H222.101C221.654 172.038 221.292 172.397 221.292 172.841V173.342C221.292 173.785 221.654 174.145 222.101 174.145H240.887C241.334 174.145 241.696 173.785 241.696 173.342V172.841C241.696 172.397 241.334 172.038 240.887 172.038Z" fill="black"/>
<path d="M215.607 173.934C215.584 173.934 215.562 173.93 215.541 173.922C215.52 173.913 215.502 173.9 215.486 173.884L214.776 173.222C214.743 173.188 214.725 173.142 214.725 173.095C214.725 173.048 214.743 173.002 214.776 172.968C214.793 172.951 214.813 172.937 214.835 172.928C214.857 172.919 214.88 172.914 214.904 172.914C214.928 172.914 214.951 172.919 214.973 172.928C214.995 172.937 215.015 172.951 215.032 172.968L215.635 173.511L216.664 172.298C216.694 172.262 216.738 172.239 216.785 172.234C216.832 172.23 216.879 172.244 216.916 172.274C216.953 172.304 216.976 172.347 216.981 172.394C216.985 172.441 216.971 172.488 216.941 172.524L215.756 173.87C215.724 173.905 215.681 173.927 215.635 173.934H215.607Z" fill="#4FB3B7"/>
<path opacity="0.4" d="M256.792 171.121H253.485C253.328 171.121 253.201 171.248 253.201 171.403V174.688C253.201 174.844 253.328 174.97 253.485 174.97H256.792C256.949 174.97 257.076 174.844 257.076 174.688V171.403C257.076 171.248 256.949 171.121 256.792 171.121Z" fill="black"/>
<path d="M256.607 174.512V171.587H253.662V174.512H256.607Z" fill="white"/>
<path opacity="0.4" d="M280.255 171.988H261.476C261.029 171.988 260.667 172.348 260.667 172.792V173.292C260.667 173.736 261.029 174.096 261.476 174.096H280.255C280.702 174.096 281.064 173.736 281.064 173.292V172.792C281.064 172.348 280.702 171.988 280.255 171.988Z" fill="black"/>
<path d="M254.982 173.891C254.938 173.889 254.895 173.872 254.862 173.842L254.152 173.172C254.131 173.158 254.114 173.139 254.101 173.117C254.088 173.095 254.08 173.071 254.078 173.046C254.076 173.021 254.078 172.996 254.087 172.972C254.095 172.948 254.108 172.926 254.126 172.908C254.143 172.889 254.164 172.875 254.188 172.866C254.211 172.856 254.236 172.852 254.262 172.853C254.287 172.854 254.312 172.86 254.335 172.872C254.357 172.883 254.377 172.899 254.393 172.919L254.989 173.461L256.025 172.249C256.039 172.228 256.057 172.211 256.079 172.198C256.1 172.184 256.123 172.176 256.148 172.172C256.173 172.169 256.198 172.17 256.222 172.177C256.246 172.184 256.268 172.196 256.288 172.212C256.307 172.228 256.322 172.248 256.333 172.27C256.344 172.292 256.35 172.317 256.351 172.342C256.351 172.366 256.347 172.391 256.337 172.414C256.328 172.437 256.313 172.458 256.295 172.475L255.145 173.828C255.111 173.863 255.066 173.885 255.018 173.891H254.982Z" fill="#4FB3B7"/>
<path opacity="0.4" d="M178.041 171.206H174.734C174.577 171.206 174.45 171.332 174.45 171.488V174.772C174.45 174.928 174.577 175.054 174.734 175.054H178.041C178.198 175.054 178.325 174.928 178.325 174.772V171.488C178.325 171.332 178.198 171.206 178.041 171.206Z" fill="black"/>
<path d="M177.864 174.596V171.671H174.918V174.596H177.864Z" fill="white"/>
<path opacity="0.4" d="M201.505 172.08H182.725C182.278 172.08 181.916 172.44 181.916 172.883V173.384C181.916 173.828 182.278 174.187 182.725 174.187H201.505C201.951 174.187 202.314 173.828 202.314 173.384V172.883C202.314 172.44 201.951 172.08 201.505 172.08Z" fill="black"/>
<path d="M167.814 70.2586C167.783 69.7188 167.915 69.1822 168.195 68.7182C168.474 68.2541 168.887 67.8841 169.381 67.656C169.874 67.4279 170.426 67.3522 170.963 67.4388C171.5 67.5253 171.999 67.7701 172.395 68.1415C172.79 68.5128 173.065 68.9936 173.182 69.5215C173.299 70.0494 173.255 70.6002 173.053 71.1025C172.852 71.6047 172.503 72.0353 172.052 72.3385C171.602 72.6417 171.07 72.8036 170.525 72.803C170.176 72.8232 169.827 72.7724 169.499 72.6536C169.171 72.5348 168.87 72.3505 168.616 72.1122C168.362 71.8739 168.16 71.5865 168.022 71.2677C167.884 70.949 167.813 70.6055 167.814 70.2586ZM172.072 70.2586C172.067 69.9545 171.971 69.6589 171.797 69.4088C171.623 69.1587 171.378 68.9652 171.093 68.8527C170.809 68.7402 170.497 68.7136 170.198 68.7763C169.898 68.839 169.624 68.9882 169.409 69.2052C169.195 69.4222 169.05 69.6972 168.992 69.9958C168.934 70.2945 168.967 70.6034 169.085 70.8838C169.203 71.1642 169.403 71.4037 169.658 71.5721C169.913 71.7405 170.212 71.8303 170.518 71.8304C170.727 71.8364 170.934 71.7996 171.128 71.7225C171.321 71.6454 171.497 71.5294 171.643 71.382C171.79 71.2345 171.904 71.0586 171.979 70.8654C172.054 70.6721 172.088 70.4655 172.08 70.2586H172.072Z" fill="white"/>
<path d="M177.913 70.5546V72.7185H176.813V70.7238C176.813 70.1106 176.529 69.8286 176.04 69.8286C175.55 69.8286 175.124 70.1529 175.124 70.8507V72.7185H174.024V68.9335H175.074V69.3775C175.238 69.211 175.435 69.0804 175.653 68.9942C175.87 68.908 176.104 68.8681 176.338 68.8771C176.558 68.8625 176.779 68.8969 176.985 68.9777C177.191 69.0585 177.376 69.1838 177.526 69.3444C177.677 69.505 177.79 69.6969 177.857 69.9062C177.924 70.1155 177.943 70.337 177.913 70.5546Z" fill="white"/>
<path d="M178.914 67.5027H180.014V72.7185H178.914V67.5027Z" fill="white"/>
<path d="M180.908 67.7987C180.91 67.7105 180.93 67.6237 180.967 67.5437C181.005 67.4638 181.058 67.3925 181.125 67.3347C181.192 67.2768 181.271 67.2336 181.356 67.2079C181.441 67.1822 181.53 67.1746 181.618 67.1855C181.705 67.1724 181.793 67.1779 181.878 67.2015C181.962 67.225 182.041 67.2662 182.108 67.3222C182.175 67.3782 182.229 67.4478 182.267 67.5263C182.305 67.6048 182.326 67.6905 182.328 67.7775C182.287 67.9268 182.198 68.0587 182.074 68.1526C181.95 68.2466 181.799 68.2975 181.643 68.2975C181.487 68.2975 181.336 68.2466 181.212 68.1526C181.088 68.0587 180.999 67.9268 180.958 67.7775L180.908 67.7987ZM181.043 68.9335H182.15V72.7185H181.043V68.9335Z" fill="white"/>
<path d="M187.069 70.5546V72.7185H185.947V70.7238C185.947 70.1106 185.664 69.8286 185.174 69.8286C184.684 69.8286 184.265 70.1529 184.265 70.8507V72.7185H183.158V68.9335H184.216V69.3775C184.378 69.2108 184.573 69.0801 184.79 68.9938C185.006 68.9076 185.239 68.8678 185.472 68.8771C185.694 68.8605 185.917 68.8933 186.125 68.9731C186.332 69.053 186.519 69.1778 186.672 69.3385C186.825 69.4991 186.94 69.6917 187.009 69.9021C187.077 70.1125 187.098 70.3354 187.069 70.5546Z" fill="white"/>
<path d="M191.817 71.1396H188.935C188.994 71.3744 189.136 71.5802 189.336 71.7189C189.535 71.8575 189.779 71.9197 190.021 71.8938C190.197 71.9003 190.372 71.8718 190.537 71.8101C190.701 71.7484 190.852 71.6546 190.979 71.5343L191.568 72.1616C191.367 72.3719 191.121 72.5358 190.849 72.6418C190.577 72.7477 190.284 72.7931 189.993 72.7749C189.719 72.8013 189.442 72.7708 189.181 72.6852C188.92 72.5996 188.679 72.4609 188.475 72.2779C188.27 72.0948 188.107 71.8715 187.994 71.6221C187.882 71.3727 187.823 71.1028 187.821 70.8295C187.818 70.5662 187.869 70.305 187.971 70.0621C188.073 69.8191 188.224 69.5994 188.415 69.4166C188.606 69.2337 188.832 69.0915 189.08 68.9987C189.328 68.906 189.593 68.8646 189.858 68.8771C190.121 68.8639 190.385 68.9058 190.631 69C190.877 69.0942 191.101 69.2386 191.287 69.4239C191.474 69.6092 191.619 69.8312 191.714 70.0758C191.809 70.3203 191.851 70.5819 191.838 70.8436C191.838 70.9282 191.824 71.048 191.817 71.1396ZM188.921 70.4982H190.795C190.756 70.2792 190.641 70.0808 190.47 69.9377C190.298 69.7947 190.082 69.7163 189.858 69.7163C189.634 69.7163 189.417 69.7947 189.246 69.9377C189.075 70.0808 188.96 70.2792 188.921 70.4982Z" fill="white"/>
<path d="M195.678 68.722H194.095V67.7987H198.41V68.722H196.827V72.7185H195.678V68.722Z" fill="white"/>
<path d="M202.271 71.1396H199.39C199.448 71.3744 199.591 71.5802 199.79 71.7189C199.99 71.8575 200.233 71.9197 200.475 71.8938C200.651 71.9003 200.826 71.8718 200.991 71.8101C201.156 71.7484 201.306 71.6546 201.434 71.5343L202.023 72.1616C201.821 72.3719 201.576 72.5358 201.303 72.6418C201.031 72.7477 200.739 72.7931 200.447 72.7749C200.173 72.8013 199.897 72.7708 199.635 72.6852C199.374 72.5996 199.133 72.4609 198.929 72.2779C198.725 72.0948 198.561 71.8715 198.449 71.6221C198.336 71.3727 198.277 71.1028 198.275 70.8295C198.272 70.5668 198.323 70.3063 198.425 70.0638C198.526 69.8213 198.677 69.602 198.867 69.4192C199.057 69.2365 199.282 69.0941 199.53 69.0009C199.777 68.9077 200.041 68.8656 200.305 68.8771C200.569 68.8629 200.833 68.904 201.08 68.9978C201.328 69.0915 201.552 69.2357 201.739 69.4211C201.927 69.6065 202.073 69.829 202.168 70.074C202.263 70.3191 202.306 70.5812 202.292 70.8436C202.271 70.9282 202.271 71.048 202.271 71.1396ZM199.375 70.4982H201.249C201.21 70.2792 201.095 70.0808 200.924 69.9377C200.753 69.7947 200.536 69.7163 200.312 69.7163C200.088 69.7163 199.872 69.7947 199.7 69.9377C199.529 70.0808 199.414 70.2792 199.375 70.4982Z" fill="white"/>
<path d="M202.654 72.3661L203.023 71.5837C203.427 71.816 203.884 71.9399 204.351 71.9432C204.862 71.9432 205.06 71.8092 205.06 71.6048C205.06 70.9846 202.754 71.6048 202.754 70.1035C202.754 69.3987 203.407 68.8771 204.521 68.8771C205.028 68.8674 205.53 68.9811 205.983 69.2084L205.614 69.9908C205.282 69.8008 204.904 69.7034 204.521 69.7088C204.024 69.7088 203.811 69.8639 203.811 70.0612C203.811 70.7097 206.111 70.0612 206.111 71.5766C206.111 72.2815 205.451 72.7749 204.315 72.7749C203.735 72.787 203.162 72.6459 202.654 72.3661Z" fill="white"/>
<path d="M209.24 72.5352C208.971 72.7033 208.657 72.7868 208.339 72.7749C208.151 72.8015 207.96 72.7854 207.78 72.7276C207.599 72.6699 207.434 72.5721 207.297 72.4417C207.161 72.3113 207.055 72.1517 206.99 71.9749C206.925 71.7982 206.9 71.6089 206.92 71.4216V69.8639H206.331V69.0181H206.92V68.1018H208.02V69.0181H208.971V69.8639H208.02V71.4075C208.011 71.4725 208.017 71.5387 208.037 71.601C208.058 71.6634 208.092 71.7204 208.138 71.7678C208.184 71.8152 208.239 71.8518 208.301 71.8748C208.363 71.8978 208.429 71.9067 208.495 71.9009C208.656 71.9029 208.812 71.8535 208.942 71.7599L209.24 72.5352Z" fill="white"/>
<path d="M284.517 74.9208C286.715 72.738 286.715 69.199 284.517 67.0162C282.319 64.8334 278.756 64.8334 276.558 67.0162C274.36 69.199 274.36 72.738 276.558 74.9208C278.756 77.1036 282.319 77.1036 284.517 74.9208Z" fill="white"/>
<path opacity="0.2" d="M285.522 68.3696L280.553 70.9775V65.3881C281.576 65.3899 282.579 65.6684 283.454 66.1937C284.33 66.719 285.044 67.4712 285.522 68.3696Z" fill="black"/>
<path d="M269.971 243.015C269.971 243.015 273.037 228.615 267.452 220.82C261.866 213.024 272.498 220.728 273.726 228.03C273.726 228.03 275.557 214.977 270.135 205.8C264.712 196.623 274.854 204.15 275.72 213.616C275.72 213.616 277.381 201.972 274.89 195.424C272.399 188.876 276.728 193.091 278.396 197.193C280.064 201.296 277.878 211.452 277.878 211.452C277.878 211.452 282.221 192.668 286.338 194.163C290.454 195.657 280.184 207.963 278.765 214.363C278.765 214.363 283.612 205.75 287.281 207.548C290.951 209.345 281.604 210.233 277.289 223.054L275.791 229.073C275.791 229.073 280.255 220.573 283.172 223.258C286.089 225.944 274.521 230.568 271.817 243.452L269.971 243.015Z" fill="#263238"/>
<path d="M270.575 243.875C270.575 243.875 271.213 225.725 280.248 218.043C289.283 210.36 274.23 216.443 270.575 224.823C270.575 224.823 272.292 208.647 281.533 199.252C290.773 189.856 276.373 195.889 272.505 206.963C272.505 206.963 274.01 192.527 278.956 185.43C283.903 178.332 277.452 182.082 274.23 186.501C271.008 190.92 270.575 203.699 270.575 203.699C270.575 203.699 271 179.918 265.607 180.496C260.213 181.074 268.829 198.822 268.616 206.927C268.616 206.927 265.387 195.178 260.447 196.235C255.507 197.292 266.465 201.169 267.757 217.789V225.451C267.757 225.451 264.961 213.948 260.66 216.288C256.359 218.628 268.829 227.607 268.183 243.833L270.575 243.875Z" fill="#263238"/>
<path opacity="0.2" d="M270.575 243.875C270.575 243.875 271.213 225.725 280.248 218.043C289.283 210.36 274.23 216.443 270.575 224.823C270.575 224.823 272.292 208.647 281.533 199.252C290.773 189.856 276.373 195.889 272.505 206.963C272.505 206.963 274.01 192.527 278.956 185.43C283.903 178.332 277.452 182.082 274.23 186.501C271.008 190.92 270.575 203.699 270.575 203.699C270.575 203.699 271 179.918 265.607 180.496C260.213 181.074 268.829 198.822 268.616 206.927C268.616 206.927 265.387 195.178 260.447 196.235C255.507 197.292 266.465 201.169 267.757 217.789V225.451C267.757 225.451 264.961 213.948 260.66 216.288C256.359 218.628 268.829 227.607 268.183 243.833L270.575 243.875Z" fill="white"/>
<path d="M275.032 256.626H264.088C262.017 256.626 260.032 255.809 258.567 254.355C257.103 252.901 256.281 250.929 256.281 248.872V247.413H282.832V248.872C282.832 250.927 282.01 252.898 280.547 254.352C279.085 255.806 277.101 256.624 275.032 256.626Z" fill="#4FB3B7"/>
<path d="M255.798 250.339H283.321C284.971 250.339 286.309 249.01 286.309 247.371V245.059C286.309 243.42 284.971 242.092 283.321 242.092H255.798C254.148 242.092 252.81 243.42 252.81 245.059V247.371C252.81 249.01 254.148 250.339 255.798 250.339Z" fill="#4FB3B7"/>
<path opacity="0.2" d="M255.798 250.339H283.321C284.971 250.339 286.309 249.01 286.309 247.371V245.059C286.309 243.42 284.971 242.092 283.321 242.092H255.798C254.148 242.092 252.81 243.42 252.81 245.059V247.371C252.81 249.01 254.148 250.339 255.798 250.339Z" fill="white"/>
<path d="M121.866 157.511C121.767 157.715 121.724 157.941 121.742 158.166C121.76 158.392 121.838 158.609 121.968 158.794C122.098 158.98 122.275 159.128 122.482 159.224C122.689 159.319 122.917 159.358 123.144 159.336H156.756C157.315 159.31 157.854 159.123 158.309 158.799C158.763 158.475 159.114 158.028 159.319 157.511L166.416 137.141C166.486 136.951 166.522 136.751 166.522 136.549C166.521 136.375 166.483 136.203 166.412 136.045C166.34 135.886 166.235 135.744 166.105 135.628C165.975 135.512 165.821 135.424 165.655 135.37C165.488 135.316 165.312 135.298 165.138 135.315H131.547C130.988 135.342 130.449 135.529 129.995 135.853C129.54 136.176 129.189 136.624 128.985 137.141L121.866 157.511Z" fill="#263238"/>
<path d="M157.012 158.314C157.286 158.302 157.55 158.21 157.773 158.052C157.996 157.893 158.168 157.673 158.268 157.419L165.365 137.049C165.395 136.968 165.409 136.882 165.408 136.796C165.408 136.514 165.202 136.337 164.876 136.337H131.299C131.024 136.35 130.76 136.441 130.537 136.6C130.314 136.759 130.142 136.979 130.042 137.233L122.945 157.603C122.909 157.685 122.893 157.774 122.899 157.864C122.905 157.954 122.933 158.04 122.981 158.117C123.034 158.185 123.103 158.239 123.182 158.273C123.262 158.308 123.349 158.322 123.435 158.314H157.012Z" fill="#4FB3B7"/>
<path opacity="0.8" d="M157.012 158.314C157.286 158.302 157.55 158.21 157.773 158.052C157.996 157.893 158.168 157.673 158.268 157.419L165.365 137.049C165.395 136.968 165.409 136.882 165.408 136.796C165.408 136.514 165.202 136.337 164.876 136.337H131.299C131.024 136.35 130.76 136.441 130.537 136.6C130.314 136.759 130.142 136.979 130.042 137.233L122.945 157.603C122.909 157.685 122.893 157.774 122.899 157.864C122.905 157.954 122.933 158.04 122.981 158.117C123.034 158.185 123.103 158.239 123.182 158.273C123.262 158.308 123.349 158.322 123.435 158.314H157.012Z" fill="white"/>
<path d="M107.48 157.828V158.765L114.137 160.464H156.6C156.914 160.464 157.216 160.34 157.438 160.119C157.661 159.899 157.785 159.599 157.785 159.287V157.828H107.48Z" fill="#263238"/>
<path opacity="0.2" d="M143.009 157.828V158.765L149.673 160.464H114.137L107.48 158.765V157.828H143.009Z" fill="white"/>
<g opacity="0.2">
<path d="M163.25 141.123H129.276L130.596 137.444H164.57L163.25 141.123Z" fill="#4FB3B7"/>
</g>
<g opacity="0.1">
<path d="M161.547 145.86H127.573C127.473 145.86 127.423 145.782 127.459 145.677C127.478 145.627 127.511 145.584 127.554 145.551C127.596 145.519 127.647 145.499 127.7 145.493H161.682C161.774 145.493 161.824 145.578 161.788 145.677C161.771 145.728 161.739 145.772 161.696 145.805C161.653 145.838 161.601 145.857 161.547 145.86Z" fill="black"/>
</g>
<g opacity="0.1">
<path d="M159.688 151.026H125.713C125.614 151.026 125.564 150.942 125.6 150.843C125.619 150.792 125.653 150.748 125.697 150.716C125.741 150.683 125.793 150.664 125.848 150.66H159.822C159.922 150.66 159.971 150.737 159.936 150.843C159.916 150.894 159.882 150.938 159.838 150.97C159.794 151.003 159.742 151.022 159.688 151.026Z" fill="black"/>
</g>
<g opacity="0.1">
<path d="M157.835 156.193H123.861C123.761 156.193 123.712 156.108 123.747 156.01C123.764 155.958 123.796 155.912 123.839 155.878C123.882 155.844 123.934 155.824 123.989 155.819H157.963C158.062 155.819 158.112 155.904 158.077 156.01C158.058 156.06 158.025 156.104 157.983 156.136C157.94 156.168 157.889 156.188 157.835 156.193Z" fill="black"/>
</g>
<path d="M146.536 256.541H150.234L156.884 164.602H151.973L146.536 256.541Z" fill="#263238"/>
<path opacity="0.2" d="M146.529 256.541H150.234L156.558 169.169L156.884 164.75H151.973L151.71 169.169L146.529 256.541Z" fill="white"/>
<path opacity="0.2" d="M151.71 168.95H156.558L156.884 164.75H151.973L151.71 168.95Z" fill="black"/>
<path d="M119.375 256.541H123.073L123.676 164.602H118.772L119.375 256.541Z" fill="#263238"/>
<path opacity="0.3" d="M118.765 164.75L118.864 179.579L119.368 256.541H123.073L123.584 179.579L123.676 164.75H118.765Z" fill="white"/>
<path opacity="0.2" d="M118.765 164.75L118.864 179.749H123.584L123.676 164.75H118.765Z" fill="black"/>
<path d="M80.085 256.541H83.7826L90.4327 164.602H85.5214L80.085 256.541Z" fill="#263238"/>
<path opacity="0.3" d="M80.085 256.541H83.7826L90.1133 169.169L90.4327 164.75H85.5214L85.2588 169.169L80.085 256.541Z" fill="white"/>
<path opacity="0.2" d="M85.2588 168.95H90.1133L90.4327 164.75H85.5214L85.2588 168.95Z" fill="black"/>
<path d="M188.871 256.541H192.569L187.132 164.602H182.221L188.871 256.541Z" fill="#263238"/>
<path opacity="0.3" d="M182.221 164.75L182.548 169.169L188.871 256.541H192.569L187.395 169.169L187.132 164.75H182.221Z" fill="white"/>
<path opacity="0.2" d="M187.132 164.75H182.221L182.548 168.95H187.395L187.132 164.75Z" fill="black"/>
<path d="M189.489 166.906H83.1583C82.9569 166.906 82.7576 166.867 82.5716 166.791C82.3856 166.714 82.2166 166.602 82.0743 166.46C81.9319 166.319 81.819 166.151 81.742 165.967C81.6649 165.782 81.6253 165.584 81.6253 165.384V162.304H191.036V165.384C191.036 165.585 190.996 165.784 190.918 165.97C190.84 166.155 190.726 166.324 190.582 166.466C190.438 166.607 190.268 166.719 190.08 166.795C189.892 166.87 189.691 166.908 189.489 166.906Z" fill="#4FB3B7"/>
<path opacity="0.2" d="M81.6321 164.602H191.022V162.297H81.6321V164.602Z" fill="black"/>
<path d="M79.3398 162.896H193.314C193.661 162.896 193.993 162.759 194.238 162.516C194.483 162.273 194.62 161.943 194.62 161.599C194.62 161.255 194.483 160.925 194.238 160.682C193.993 160.439 193.661 160.302 193.314 160.302H79.3398C78.9935 160.302 78.6613 160.439 78.4164 160.682C78.1715 160.925 78.0339 161.255 78.0339 161.599C78.0339 161.943 78.1715 162.273 78.4164 162.516C78.6613 162.759 78.9935 162.896 79.3398 162.896Z" fill="#4FB3B7"/>
<path d="M189.673 157.039C189.723 158.158 189.517 159.274 189.07 160.302H163.101V159.689H163.627V154.36H163.101V153.747H189.07C189.514 154.786 189.721 155.911 189.673 157.039Z" fill="#263238"/>
<path opacity="0.2" d="M189.673 157.039C189.723 158.158 189.517 159.274 189.07 160.302H163.101V159.689H163.627V154.36H163.101V153.747H189.07C189.514 154.786 189.721 155.911 189.673 157.039Z" fill="white"/>
<path opacity="0.2" d="M175.777 157.039C175.827 158.158 175.621 159.274 175.174 160.302H163.108V159.689H163.634V154.36H163.108V153.747H175.174C175.618 154.786 175.824 155.911 175.777 157.039Z" fill="black"/>
<path opacity="0.8" d="M174.499 157.039C174.54 157.947 174.373 158.854 174.01 159.689H163.626V154.36H174.01C174.37 155.206 174.537 156.121 174.499 157.039Z" fill="white"/>
<path opacity="0.6" d="M185.443 157.039C185.493 158.158 185.287 159.274 184.84 160.302H180.007C180.454 159.274 180.66 158.158 180.61 157.039C180.654 155.918 180.448 154.801 180.007 153.768H184.84C185.281 154.801 185.487 155.918 185.443 157.039Z" fill="white"/>
<path d="M191.987 150.505C192.037 151.624 191.831 152.74 191.384 153.768H165.415V153.155H165.94V147.847H165.415V147.234H191.384C191.824 148.267 192.03 149.384 191.987 150.505Z" fill="#4FB3B7"/>
<path opacity="0.2" d="M178.091 150.505C178.141 151.624 177.934 152.74 177.487 153.768H165.422V153.155H165.947V147.847H165.422V147.234H177.487C177.927 148.267 178.133 149.384 178.091 150.505Z" fill="black"/>
<path opacity="0.8" d="M176.813 150.505C176.854 151.414 176.687 152.32 176.323 153.155H165.94V147.848H176.323C176.681 148.687 176.848 149.594 176.813 150.505Z" fill="white"/>
<path opacity="0.2" d="M187.757 150.505C187.807 151.624 187.601 152.74 187.154 153.768H182.321C182.768 152.74 182.974 151.624 182.924 150.505C182.966 149.384 182.76 148.267 182.321 147.234H187.154C187.594 148.267 187.8 149.384 187.757 150.505Z" fill="black"/>
<path d="M104.861 240.823L102.576 251.325L97.1609 251.234L99.4249 240.823H104.861Z" fill="#EBB376"/>
<path opacity="0.2" d="M104.868 240.823L103.733 246.018L98.3674 245.658L99.4249 240.823H104.868Z" fill="black"/>
<path d="M103.392 251.057H103.506C103.506 251.057 103.627 251.1 103.641 251.114C103.647 251.117 103.655 251.119 103.662 251.119C103.669 251.119 103.677 251.117 103.683 251.114C104.144 251.261 104.62 251.355 105.103 251.396C105.46 251.461 105.828 251.388 106.132 251.191C106.232 251.107 106.304 250.995 106.34 250.869C106.375 250.743 106.372 250.61 106.331 250.486C106.321 250.406 106.291 250.329 106.244 250.263C106.197 250.196 106.134 250.142 106.061 250.106C105.542 250.021 105.01 250.118 104.556 250.381C104.878 250.05 105.067 249.614 105.089 249.154C105.069 249.046 105.013 248.947 104.931 248.873C104.849 248.8 104.745 248.755 104.634 248.746C104.529 248.727 104.422 248.73 104.318 248.754C104.214 248.778 104.117 248.823 104.031 248.886C103.463 249.373 103.371 250.895 103.371 251.001L103.392 251.057ZM103.974 250.747L103.868 250.811C103.834 250.229 103.993 249.652 104.322 249.168C104.359 249.134 104.402 249.107 104.45 249.09C104.498 249.073 104.548 249.066 104.599 249.07H104.663C104.84 249.07 104.883 249.19 104.883 249.267C104.767 249.852 104.445 250.377 103.974 250.747ZM104.052 251.015C104.705 250.656 105.635 250.268 105.983 250.423C106.018 250.441 106.048 250.466 106.07 250.498C106.093 250.53 106.106 250.568 106.111 250.606C106.13 250.684 106.13 250.766 106.108 250.844C106.087 250.922 106.047 250.993 105.99 251.05C105.749 251.276 105.039 251.262 104.052 251.015Z" fill="#4FB3B7"/>
<path d="M103.265 250.402L97.1965 250.028C97.1462 250.022 97.0951 250.027 97.0463 250.04C96.9976 250.054 96.9521 250.078 96.9125 250.109C96.8728 250.141 96.8399 250.18 96.8156 250.224C96.7912 250.268 96.776 250.317 96.7707 250.367L96.1745 255.124C96.1608 255.374 96.2459 255.619 96.4116 255.808C96.5774 255.996 96.8106 256.112 97.0617 256.132C99.1909 256.224 100.199 256.168 102.867 256.308C105.238 256.559 107.624 256.644 110.007 256.562C112.271 256.344 111.994 254.123 111.015 254.018C108.701 253.757 105.635 252.065 104.18 250.783C103.926 250.559 103.604 250.425 103.265 250.402Z" fill="#263238"/>
<path d="M136.565 240.823L134.279 251.325L128.857 251.234L131.128 240.823H136.565Z" fill="#EBB376"/>
<path opacity="0.2" d="M136.565 240.823L135.429 246.018L130.064 245.658L131.121 240.823H136.565Z" fill="black"/>
<path d="M135.089 251.057H135.202C135.202 251.057 135.323 251.1 135.344 251.114C135.351 251.117 135.358 251.119 135.365 251.119C135.373 251.119 135.38 251.117 135.387 251.114C135.848 251.26 136.324 251.355 136.806 251.396C137.165 251.463 137.536 251.389 137.842 251.191C137.941 251.106 138.012 250.993 138.046 250.868C138.08 250.742 138.076 250.61 138.034 250.486C138.026 250.405 137.997 250.328 137.95 250.261C137.902 250.194 137.839 250.141 137.764 250.106C137.246 250.021 136.714 250.118 136.26 250.381C136.58 250.048 136.771 249.614 136.799 249.154C136.777 249.046 136.72 248.948 136.637 248.874C136.553 248.8 136.449 248.755 136.338 248.746C136.233 248.727 136.125 248.73 136.022 248.755C135.918 248.779 135.82 248.824 135.734 248.886C135.167 249.373 135.074 250.895 135.074 251.001L135.089 251.057ZM135.671 250.747L135.564 250.811C135.534 250.229 135.693 249.653 136.018 249.168C136.055 249.134 136.099 249.108 136.146 249.091C136.194 249.074 136.245 249.066 136.295 249.07H136.359C136.536 249.07 136.579 249.19 136.586 249.267C136.464 249.851 136.14 250.375 135.671 250.747ZM135.749 251.015C136.402 250.656 137.331 250.268 137.679 250.423C137.714 250.441 137.744 250.466 137.767 250.498C137.789 250.531 137.803 250.568 137.807 250.606C137.827 250.684 137.828 250.765 137.808 250.843C137.788 250.921 137.749 250.992 137.693 251.05C137.417 251.276 136.707 251.262 135.749 251.015Z" fill="#4FB3B7"/>
<path d="M134.961 250.402L128.893 250.028C128.842 250.022 128.791 250.027 128.742 250.04C128.694 250.054 128.648 250.078 128.608 250.109C128.569 250.141 128.536 250.18 128.512 250.224C128.487 250.268 128.472 250.317 128.467 250.367L127.871 255.124C127.857 255.374 127.942 255.619 128.108 255.808C128.273 255.996 128.507 256.112 128.758 256.132C130.887 256.224 131.895 256.168 134.563 256.308C136.932 256.552 139.316 256.629 141.696 256.541C143.96 256.323 143.683 254.102 142.711 253.997C140.39 253.736 137.324 252.044 135.876 250.761C135.619 250.545 135.297 250.419 134.961 250.402Z" fill="#263238"/>
<path d="M114.578 220.834C112.515 228.734 109.877 236.475 106.685 243.995L96.7919 243.248C96.7919 243.248 100.852 227.502 102.321 213.081C103.229 204.178 103.151 196.813 100.525 196.242C98.8714 195.875 95.0105 195.889 90.0566 196.002V177.676C103.953 180.496 117.778 185.853 118.829 190.138C120.298 196.178 117.729 208.95 114.578 220.834Z" fill="#4FB3B7"/>
<path opacity="0.4" d="M114.578 220.834C112.515 228.734 109.877 236.475 106.685 243.995L96.7919 243.248C96.7919 243.248 100.852 227.502 102.321 213.081C103.229 204.178 103.151 196.813 100.525 196.242C98.8714 195.875 95.0105 195.889 90.0566 196.002V177.676C103.953 180.496 117.778 185.853 118.829 190.138C120.298 196.178 117.729 208.95 114.578 220.834Z" fill="white"/>
<path opacity="0.2" d="M114.578 220.834C110.887 218.508 106.565 215.78 102.321 213.081C103.229 204.178 103.151 196.813 100.525 196.242C98.8714 195.875 95.0105 195.889 90.0566 196.002V177.676C103.953 180.496 117.778 185.853 118.829 190.138C120.298 196.178 117.729 208.95 114.578 220.834Z" fill="black"/>
<path d="M109.17 175.879L110.042 168.922L81.7245 164.291C81.7245 164.291 72.4626 182.554 76.9978 191.449C81.1497 199.639 125.408 194.762 132.221 196.235C139.035 197.708 128.46 243.241 128.46 243.241L138.396 243.995C138.396 243.995 153.683 203.03 150.539 190.145C149.155 184.527 125.82 177.084 109.17 175.879Z" fill="#4FB3B7"/>
<path opacity="0.6" d="M109.17 175.879L110.042 168.922L81.7245 164.291C81.7245 164.291 72.4626 182.554 76.9978 191.449C81.1497 199.639 125.408 194.762 132.221 196.235C139.035 197.708 128.46 243.241 128.46 243.241L138.396 243.995C138.396 243.995 153.683 203.03 150.539 190.145C149.155 184.527 125.82 177.084 109.17 175.879Z" fill="white"/>
<path d="M124.748 119.287C124.507 119.703 124.535 120.175 124.812 120.331C125.089 120.486 125.521 120.274 125.741 119.851C125.961 119.428 125.954 118.97 125.685 118.808C125.415 118.646 125.01 118.886 124.748 119.287Z" fill="#263238"/>
<path d="M124.301 117.039C124.243 117.011 124.193 116.967 124.159 116.912C124.132 116.843 124.132 116.766 124.16 116.696C124.187 116.627 124.24 116.571 124.308 116.538C124.721 116.351 125.173 116.265 125.626 116.287C126.079 116.309 126.52 116.439 126.913 116.665C126.975 116.705 127.019 116.766 127.036 116.837C127.053 116.908 127.042 116.983 127.005 117.046C126.962 117.108 126.896 117.15 126.822 117.165C126.748 117.179 126.671 117.164 126.607 117.124C126.296 116.95 125.948 116.852 125.591 116.839C125.235 116.825 124.88 116.896 124.556 117.046C124.516 117.065 124.472 117.074 124.428 117.073C124.383 117.071 124.34 117.06 124.301 117.039Z" fill="#263238"/>
<path d="M125.145 118.752C124.912 120.319 124.896 121.91 125.096 123.481C124.689 123.519 124.278 123.47 123.893 123.336C123.507 123.202 123.155 122.987 122.86 122.706L125.145 118.752Z" fill="#DE5753"/>
<path d="M122.604 124.644C122.434 124.849 122.264 125.046 122.079 125.229C121.044 126.307 119.702 127.045 118.233 127.344C117.861 127.421 117.483 127.47 117.104 127.492C116.108 127.558 115.109 127.402 114.181 127.036C113.253 126.671 112.418 126.104 111.739 125.377C111.129 124.715 110.658 123.939 110.355 123.093C109.035 119.569 110.355 116.75 112.278 111.879C112.702 110.728 113.416 109.704 114.352 108.904C115.287 108.105 116.414 107.556 117.623 107.311C118.832 107.066 120.085 107.132 121.261 107.504C122.438 107.875 123.499 108.54 124.343 109.434C128.19 113.423 125.621 120.817 122.604 124.644Z" fill="#E4897B"/>
<path opacity="0.2" d="M118.233 127.33C117.861 127.407 117.484 127.456 117.104 127.478C116.108 127.544 115.109 127.388 114.181 127.022C113.253 126.656 112.418 126.09 111.739 125.363C112.216 124.886 112.753 124.472 113.336 124.13C115.242 124.711 116.941 125.821 118.233 127.33Z" fill="black"/>
<path d="M102.243 127.513C102.725 130.967 110.319 132.256 110.319 132.256C110.319 132.256 114.067 133.948 114.223 132.475C112.669 130.692 112.498 129.134 113.038 127.774C113.394 126.949 113.912 126.204 114.563 125.582C114.914 125.224 115.283 124.885 115.671 124.567L113.35 115.122C111.682 118.709 105.976 127.005 102.243 127.513Z" fill="#E4897B"/>
<path d="M123.91 106.727C123.91 106.727 125.536 106.523 126.749 109.546C127.8 112.077 125.33 112.627 125.436 115.319C125.543 118.012 123.073 119.499 123.073 119.499C123.073 119.499 120.986 121.282 119.219 120.316C119.219 120.316 116.905 121.444 116.295 123.411C115.685 125.377 112.101 121.825 108.871 122.367C108.871 122.367 106.692 120.338 106.849 115.418C106.973 113.281 107.5 111.187 108.403 109.243C108.832 108.215 109.462 107.281 110.258 106.497C111.053 105.713 111.998 105.094 113.037 104.676C116.756 103.027 123.222 104.267 123.91 106.727Z" fill="#263238"/>
<path d="M118.8 118.85C118.691 119.338 118.691 119.844 118.801 120.331C118.912 120.819 119.13 121.276 119.439 121.67C120.227 122.523 121.49 121.437 122.008 119.943C122.448 118.611 122.604 116.524 121.448 116.292C120.291 116.059 119.049 117.412 118.8 118.85Z" fill="#E4897B"/>
<path d="M113.35 128.775C111.259 126.94 108.678 125.745 105.919 125.335C104.713 125.187 103.493 125.446 102.453 126.07C101.413 126.694 100.614 127.646 100.184 128.775L112.917 131.333L113.35 128.775Z" fill="#4FB3B7"/>
<path d="M111.185 155.46L116.373 156.228C117.553 155.863 118.765 155.605 119.993 155.46C121.327 155.348 122.668 155.348 124.003 155.46C124.003 155.46 126.331 156.334 126.331 158.589C126.331 158.589 120.851 160.048 118.751 159.174L111.185 158.589V155.46Z" fill="#E4897B"/>
<path opacity="0.2" d="M111.185 155.46L116.373 156.228C117.553 155.863 118.765 155.605 119.993 155.46C121.327 155.348 122.668 155.348 124.003 155.46C124.003 155.46 126.331 156.334 126.331 158.589C126.331 158.589 120.851 160.048 118.751 159.174L111.185 158.589V155.46Z" fill="black"/>
<path d="M119.617 130.396C118.561 133.328 117.615 136.147 116.778 138.854C116.238 140.531 115.749 142.174 115.301 143.788C114.918 145.12 114.592 146.41 114.244 147.664C114.088 148.263 113.932 148.862 113.783 149.455C112.966 152.697 112.306 155.664 111.788 158.272C110.925 162.377 110.286 166.525 109.872 170.698L80.7734 167.083C81.7812 162.113 82.569 157.779 83.6691 153.099C84.2724 150.533 84.9679 147.869 85.8551 144.944C86.4796 142.829 87.2035 140.609 88.0694 138.184C90.9864 129.86 93.6833 127.555 93.6833 127.555C104.854 125.73 119.617 130.396 119.617 130.396Z" fill="#4FB3B7"/>
<path d="M129.297 155.995L134.485 156.771C135.665 156.401 136.877 156.141 138.105 155.995C139.439 155.887 140.781 155.887 142.115 155.995C142.115 155.995 144.464 156.869 144.464 159.104C144.464 159.104 138.985 160.563 136.877 159.689L129.297 159.104V155.995Z" fill="#E4897B"/>
<path d="M95.7415 243.706L107.523 244.481L109.255 239.428L96.2737 238.821L95.7415 243.706Z" fill="#4FB3B7"/>
<path opacity="0.2" d="M95.7415 243.706L107.523 244.481L109.255 239.428L96.2737 238.821L95.7415 243.706Z" fill="white"/>
<path d="M127.438 243.706L139.219 244.481L140.951 239.428L127.97 238.821L127.438 243.706Z" fill="#4FB3B7"/>
<path opacity="0.2" d="M127.438 243.706L139.219 244.481L140.951 239.428L127.97 238.821L127.438 243.706Z" fill="white"/>
<path d="M80.6812 167.456L93.8039 169.169L94.2298 167.245L81.0857 165.349L80.6812 167.456Z" fill="black"/>
<path d="M95.3229 167.259L95.1597 169.169L107.289 170.825V168.936L95.3229 167.259Z" fill="black"/>
<path d="M108.041 169.042V170.825L109.801 171.058V169.331L108.041 169.042Z" fill="black"/>
<path opacity="0.2" d="M116.771 138.854C116.231 140.531 115.741 142.174 115.294 143.788C114.911 145.12 114.585 146.41 114.237 147.664C113.328 142.73 114.947 136.831 114.947 136.831L116.771 138.854Z" fill="black"/>
<path d="M118.737 132.059C121.107 132.531 122.335 148.884 122.86 151.047C123.321 152.936 134.485 156.771 134.485 156.771V159.428C134.485 159.428 122.136 158.589 119.233 157.405C116.331 156.221 114.578 140.073 114.578 140.073L118.737 132.059Z" fill="#E4897B"/>
<g opacity="0.2">
<path d="M119.617 130.396C118.561 133.328 117.615 136.147 116.778 138.854C116.238 140.531 115.749 142.174 115.301 143.788C114.918 145.12 114.592 146.41 114.244 147.664C114.088 148.263 113.932 148.862 113.783 149.455C112.966 152.697 112.306 155.664 111.788 158.272C110.925 162.377 110.286 166.525 109.872 170.698L80.7734 167.083C81.7812 162.113 82.569 157.779 83.6691 153.099C84.2724 150.533 84.9679 147.869 85.8551 144.944C86.4796 142.829 87.2035 140.609 88.0694 138.184C90.9864 129.86 93.6833 127.555 93.6833 127.555C104.854 125.73 119.617 130.396 119.617 130.396Z" fill="white"/>
</g>
<path d="M119.617 130.396C121.788 131.1 122.86 145.197 122.86 145.197L114.975 146.233L113.343 140.44C113.343 140.44 113.996 137.705 114.933 134.836C116.295 130.678 119.617 130.396 119.617 130.396Z" fill="#4FB3B7"/>
<path d="M68.7508 254.138C68.7508 253.647 68.6041 253.167 68.3293 252.758C68.0545 252.35 67.6639 252.032 67.207 251.845C66.7501 251.657 66.2474 251.608 65.7626 251.705C65.2778 251.801 64.8327 252.038 64.4836 252.386C64.1345 252.733 63.8971 253.176 63.8015 253.658C63.7059 254.14 63.7564 254.639 63.9466 255.092C64.1368 255.545 64.4581 255.932 64.8698 256.204C65.2816 256.476 65.7653 256.62 66.2597 256.619C66.5875 256.619 66.912 256.554 67.2147 256.43C67.5174 256.305 67.7923 256.122 68.0237 255.891C68.2551 255.661 68.4385 255.387 68.5633 255.086C68.688 254.785 68.7518 254.463 68.7508 254.138Z" fill="#263238"/>
<path opacity="0.2" d="M68.7508 254.138C68.7508 253.647 68.6041 253.167 68.3293 252.758C68.0545 252.35 67.6639 252.032 67.207 251.845C66.7501 251.657 66.2474 251.608 65.7626 251.705C65.2778 251.801 64.8327 252.038 64.4836 252.386C64.1345 252.733 63.8971 253.176 63.8015 253.658C63.7059 254.14 63.7564 254.639 63.9466 255.092C64.1368 255.545 64.4581 255.932 64.8698 256.204C65.2816 256.476 65.7653 256.62 66.2597 256.619C66.5875 256.619 66.912 256.554 67.2147 256.43C67.5174 256.305 67.7923 256.122 68.0237 255.891C68.2551 255.661 68.4385 255.387 68.5633 255.086C68.688 254.785 68.7518 254.463 68.7508 254.138Z" fill="white"/>
<path d="M128.8 254.138C128.8 253.647 128.654 253.167 128.379 252.759C128.105 252.351 127.715 252.033 127.258 251.845C126.802 251.658 126.299 251.608 125.815 251.704C125.33 251.8 124.885 252.036 124.536 252.383C124.186 252.73 123.948 253.172 123.852 253.654C123.756 254.135 123.805 254.634 123.994 255.087C124.183 255.54 124.503 255.928 124.914 256.2C125.325 256.473 125.808 256.619 126.302 256.619C126.631 256.619 126.956 256.556 127.259 256.432C127.563 256.307 127.839 256.125 128.071 255.894C128.303 255.663 128.487 255.39 128.612 255.088C128.737 254.787 128.801 254.464 128.8 254.138Z" fill="#263238"/>
<path opacity="0.2" d="M128.8 254.138C128.8 253.647 128.654 253.167 128.379 252.759C128.105 252.351 127.715 252.033 127.258 251.845C126.802 251.658 126.299 251.608 125.815 251.704C125.33 251.8 124.885 252.036 124.536 252.383C124.186 252.73 123.948 253.172 123.852 253.654C123.756 254.135 123.805 254.634 123.994 255.087C124.183 255.54 124.503 255.928 124.914 256.2C125.325 256.473 125.808 256.619 126.302 256.619C126.631 256.619 126.956 256.556 127.259 256.432C127.563 256.307 127.839 256.125 128.071 255.894C128.303 255.663 128.487 255.39 128.612 255.088C128.737 254.787 128.801 254.464 128.8 254.138Z" fill="white"/>
<path opacity="0.2" d="M67.5016 254.138C67.5016 253.892 67.4282 253.652 67.2906 253.448C67.1531 253.243 66.9576 253.084 66.7289 252.991C66.5002 252.897 66.2487 252.873 66.0062 252.921C65.7637 252.97 65.5412 253.089 65.3668 253.263C65.1924 253.437 65.074 253.659 65.0266 253.9C64.9792 254.141 65.0049 254.391 65.1006 254.617C65.1962 254.844 65.3574 255.037 65.5637 255.172C65.7701 255.308 66.0123 255.379 66.2596 255.378C66.4233 255.378 66.5854 255.346 66.7366 255.283C66.8877 255.221 67.025 255.13 67.1404 255.014C67.2558 254.899 67.3471 254.762 67.4091 254.612C67.4711 254.461 67.5026 254.3 67.5016 254.138Z" fill="white"/>
<path opacity="0.2" d="M126.302 255.378C126.992 255.378 127.551 254.823 127.551 254.138C127.551 253.452 126.992 252.897 126.302 252.897C125.612 252.897 125.053 253.452 125.053 254.138C125.053 254.823 125.612 255.378 126.302 255.378Z" fill="white"/>
<path d="M98.3463 243.269V216.619H94.2157V243.269C78.1476 243.678 68.3818 249.26 66.423 250.479C66.3114 250.551 66.2197 250.649 66.1564 250.765C66.0931 250.88 66.0603 251.01 66.061 251.142V253.355C66.061 253.563 66.144 253.762 66.2918 253.908C66.4395 254.055 66.6399 254.138 66.8488 254.138C66.9921 254.142 67.1339 254.108 67.259 254.038C67.384 253.969 67.4876 253.867 67.5586 253.743L68.5096 252.079C76.8348 249.444 85.5006 248.019 94.237 247.85V252.234C94.2389 252.502 94.3474 252.759 94.5389 252.948C94.7303 253.136 94.9892 253.242 95.259 253.242H97.3456C97.6155 253.242 97.8743 253.136 98.0658 252.948C98.2573 252.759 98.3658 252.502 98.3676 252.234V247.85C107.104 248.019 115.77 249.444 124.095 252.079L125.046 253.743C125.117 253.867 125.221 253.969 125.346 254.038C125.471 254.108 125.613 254.142 125.756 254.138C125.965 254.138 126.165 254.055 126.313 253.908C126.461 253.762 126.544 253.563 126.544 253.355V251.142C126.544 251.01 126.512 250.88 126.448 250.765C126.385 250.649 126.293 250.551 126.182 250.479C124.202 249.26 114.414 243.678 98.3463 243.269Z" fill="#263238"/>
<path opacity="0.2" d="M98.3463 243.269V216.619H94.2157V243.269C78.1476 243.678 68.3818 249.26 66.423 250.479C66.3114 250.551 66.2197 250.649 66.1564 250.765C66.0931 250.88 66.0603 251.01 66.061 251.142V253.355C66.061 253.563 66.144 253.762 66.2918 253.908C66.4395 254.055 66.6399 254.138 66.8488 254.138C66.9921 254.142 67.1339 254.108 67.259 254.038C67.384 253.969 67.4876 253.867 67.5586 253.743L68.5096 252.079C76.8348 249.444 85.5006 248.019 94.237 247.85V252.234C94.2389 252.502 94.3474 252.759 94.5389 252.948C94.7303 253.136 94.9892 253.242 95.259 253.242H97.3456C97.6155 253.242 97.8743 253.136 98.0658 252.948C98.2573 252.759 98.3658 252.502 98.3676 252.234V247.85C107.104 248.019 115.77 249.444 124.095 252.079L125.046 253.743C125.117 253.867 125.221 253.969 125.346 254.038C125.471 254.108 125.613 254.142 125.756 254.138C125.965 254.138 126.165 254.055 126.313 253.908C126.461 253.762 126.544 253.563 126.544 253.355V251.142C126.544 251.01 126.512 250.88 126.448 250.765C126.385 250.649 126.293 250.551 126.182 250.479C124.202 249.26 114.414 243.678 98.3463 243.269Z" fill="black"/>
<path d="M97.0902 251.664H95.472C95.1702 251.664 94.9255 251.907 94.9255 252.206V256.076C94.9255 256.376 95.1702 256.619 95.472 256.619H97.0902C97.392 256.619 97.6367 256.376 97.6367 256.076V252.206C97.6367 251.907 97.392 251.664 97.0902 251.664Z" fill="#263238"/>
<path opacity="0.2" d="M97.0902 251.664H95.472C95.1702 251.664 94.9255 251.907 94.9255 252.206V256.076C94.9255 256.376 95.1702 256.619 95.472 256.619H97.0902C97.392 256.619 97.6367 256.376 97.6367 256.076V252.206C97.6367 251.907 97.392 251.664 97.0902 251.664Z" fill="white"/>
<path d="M69.2336 190.385H123.336C124.825 190.385 126.253 190.972 127.305 192.018C128.358 193.063 128.95 194.481 128.95 195.96V199.329H63.6125V195.946C63.6163 194.468 64.2104 193.053 65.2643 192.01C66.3183 190.967 67.7459 190.383 69.2336 190.385Z" fill="#4FB3B7"/>
<path d="M86.9126 168.239H122.881C123.322 168.225 123.76 168.313 124.161 168.496C124.561 168.68 124.913 168.953 125.189 169.295C125.464 169.637 125.656 170.038 125.748 170.467C125.84 170.895 125.831 171.339 125.72 171.763L119.233 199.336H117.75L123.229 175.146C123.325 174.725 123.323 174.289 123.224 173.869C123.125 173.449 122.932 173.057 122.659 172.722C122.386 172.387 122.04 172.118 121.647 171.935C121.254 171.751 120.824 171.659 120.39 171.664H87.6507L86.9126 168.239Z" fill="#263238"/>
<path d="M100.525 200.302V223.618C100.523 223.976 100.379 224.319 100.124 224.573C99.8688 224.826 99.5233 224.969 99.1625 224.971H93.4066C93.2274 224.972 93.0498 224.938 92.8841 224.87C92.7183 224.802 92.5677 224.703 92.441 224.577C92.3143 224.451 92.2139 224.302 92.1458 224.137C92.0776 223.972 92.043 223.796 92.044 223.618V200.302H100.525Z" fill="#263238"/>
<path opacity="0.2" d="M100.532 200.302H92.0439V209.986H100.532V200.302Z" fill="black"/>
<path d="M130.731 197.898V200.718C130.731 201.092 130.582 201.45 130.315 201.714C130.049 201.979 129.688 202.127 129.312 202.127H63.3074C62.9309 202.127 62.5699 201.979 62.3037 201.714C62.0375 201.45 61.8879 201.092 61.8879 200.718V197.898C61.8879 197.524 62.0375 197.166 62.3037 196.901C62.5699 196.637 62.9309 196.489 63.3074 196.489H129.312C129.688 196.489 130.049 196.637 130.315 196.901C130.582 197.166 130.731 197.524 130.731 197.898Z" fill="#263238"/>
<path d="M100.355 199.336H61.8311C61.8311 199.336 49.5955 179.121 49.5955 145.719V133.448C49.5955 131.017 50.5675 128.687 52.2978 126.968C54.0281 125.25 56.3749 124.285 58.8219 124.285H75.1455C77.5461 124.273 79.856 125.195 81.5805 126.853C83.305 128.512 84.307 130.775 84.3719 133.159C84.7906 150.399 87.3456 187.671 100.355 199.336Z" fill="#263238"/>
<path opacity="0.2" d="M91.8807 199.336H63.5769C63.0401 199.337 62.5133 199.192 62.054 198.916C61.5947 198.64 61.2205 198.244 60.9723 197.771C58.1902 192.436 49.6167 173.701 49.6167 145.719V133.448C49.6167 131.017 50.5888 128.687 52.319 126.968C54.0493 125.25 56.3961 124.285 58.8431 124.285H72.9595C75.3569 124.283 77.6606 125.209 79.3828 126.865C81.1049 128.522 82.1103 130.779 82.1859 133.159C82.6117 148.531 84.6912 179.918 94.4073 194.755C94.7192 195.2 94.8998 195.723 94.9288 196.265C94.9579 196.807 94.8343 197.346 94.5718 197.822C94.3093 198.298 93.9185 198.692 93.4431 198.959C92.9677 199.227 92.4267 199.357 91.8807 199.336Z" fill="white"/>
<path opacity="0.2" d="M130.731 197.898V200.718C130.731 201.091 130.581 201.45 130.315 201.714C130.049 201.979 129.688 202.127 129.312 202.127H99.7161C99.2028 202.125 98.7111 201.922 98.3481 201.562C97.9852 201.201 97.7804 200.713 97.7786 200.203V198.42C97.7786 197.91 97.9827 197.42 98.3461 197.059C98.7094 196.698 99.2022 196.496 99.7161 196.496H129.304C129.491 196.495 129.676 196.53 129.848 196.6C130.021 196.67 130.178 196.773 130.31 196.904C130.443 197.034 130.548 197.189 130.62 197.359C130.692 197.53 130.73 197.713 130.731 197.898Z" fill="black"/>
</svg>
