<svg width="339" height="297" viewBox="0 0 339 297" fill="none" xmlns="http://www.w3.org/2000/svg">
<path d="M49.6337 264.426C115.83 306.902 223.154 306.902 289.35 264.426C355.546 221.95 355.553 153.079 289.35 110.603C223.147 68.1267 115.83 68.1196 49.6337 110.603C-16.5624 153.086 -16.5267 221.95 49.6337 264.426Z" fill="#C4C6CB"/>
<path d="M304.976 221.893L301.674 220.01C301.674 220.01 300.091 211.281 301.274 203.778C302.936 193.223 310.125 189.579 312.735 190.634C315.345 191.69 315.958 194.806 311.244 200.904C308.463 204.491 304.89 212.101 304.976 221.893Z" fill="#37474F"/>
<path d="M303.778 217.699H303.813C303.875 217.69 303.93 217.658 303.967 217.608C304.005 217.559 304.021 217.497 304.013 217.435C302.651 207.551 306.623 196.753 311.088 192.367C311.132 192.323 311.157 192.263 311.157 192.2C311.157 192.137 311.132 192.077 311.088 192.032C311.043 191.988 310.983 191.963 310.92 191.963C310.857 191.963 310.797 191.988 310.752 192.032C306.21 196.475 302.159 207.472 303.549 217.499C303.556 217.555 303.583 217.606 303.626 217.643C303.668 217.679 303.722 217.7 303.778 217.699Z" fill="white"/>
<path d="M314.14 227.184C314.66 227.484 315.737 226.828 316.151 226.557C316.856 226.074 317.426 225.418 317.806 224.652C318.233 223.784 318.378 222.804 318.219 221.85C318.138 221.345 318.021 220.847 317.87 220.359L317.449 218.933C317.286 218.476 317.216 217.991 317.242 217.507C317.363 216.522 318.248 215.823 319.046 215.224C319.845 214.625 320.844 213.691 320.844 212.5C320.776 211.577 320.405 210.702 319.788 210.011C319.225 209.298 318.547 208.649 318.034 207.872C317.627 207.343 317.416 206.691 317.435 206.025C317.489 205.614 317.624 205.219 317.834 204.862C318.319 204.125 318.744 203.35 319.103 202.544C319.276 202.137 319.33 201.688 319.258 201.252C319.186 200.815 318.991 200.407 318.697 200.077C318.406 199.861 318.076 199.705 317.724 199.618C317.373 199.531 317.008 199.515 316.65 199.57C315.972 199.651 315.319 199.88 314.739 200.241C312.849 201.289 311.772 203.528 309.747 204.341C308.952 204.59 308.142 204.788 307.322 204.933C306.91 205.01 306.519 205.172 306.174 205.409C305.829 205.646 305.537 205.953 305.318 206.31C304.605 207.779 305.946 209.59 305.432 211.152C304.969 212.536 303.628 213.064 302.872 214.312C302.564 214.862 302.441 215.497 302.522 216.123C302.585 217.181 302.844 218.219 303.285 219.182C303.774 220.141 304.334 221.061 304.961 221.935C304.961 221.935 314.061 227.141 314.14 227.184Z" fill="#455A64"/>
<path d="M308.777 224.332C308.808 224.331 308.84 224.323 308.868 224.31C308.897 224.297 308.923 224.278 308.944 224.255C308.965 224.232 308.982 224.204 308.992 224.175C309.003 224.145 309.007 224.113 309.005 224.082C308.62 214.732 313.027 204.413 316.23 201.41C316.252 201.388 316.269 201.362 316.281 201.334C316.293 201.305 316.3 201.274 316.3 201.243C316.3 201.212 316.293 201.181 316.281 201.152C316.269 201.123 316.252 201.097 316.23 201.075C316.208 201.053 316.183 201.036 316.155 201.024C316.126 201.012 316.096 201.006 316.065 201.006C316.035 201.006 316.005 201.012 315.976 201.024C315.948 201.036 315.923 201.053 315.901 201.075C312.628 204.135 308.135 214.625 308.527 224.11C308.533 224.172 308.562 224.23 308.608 224.271C308.655 224.312 308.715 224.334 308.777 224.332Z" fill="white"/>
<path d="M310.182 213.285H310.253C312.467 212.675 314.742 212.309 317.035 212.193C317.098 212.19 317.157 212.162 317.2 212.115C317.243 212.068 317.265 212.007 317.264 211.944C317.263 211.913 317.255 211.882 317.242 211.853C317.229 211.825 317.21 211.8 317.187 211.779C317.163 211.758 317.136 211.743 317.106 211.733C317.076 211.723 317.045 211.72 317.014 211.723C314.679 211.84 312.364 212.213 310.11 212.835C310.051 212.853 310.001 212.894 309.972 212.949C309.942 213.004 309.936 213.068 309.954 213.128C309.971 213.174 310.002 213.214 310.043 213.242C310.084 213.27 310.132 213.285 310.182 213.285Z" fill="white"/>
<path d="M84.3151 118.918L68.4971 128.054L255.689 245.263L287.332 226.999L84.3151 118.918Z" fill="#4FB3B7"/>
<path d="M60.5879 114.347L57.9492 134.137L94.8627 112.828L60.5879 114.347Z" fill="#4FB3B7"/>
<path d="M266.237 239.173L242.51 252.872L217.463 238.417C191.789 223.618 159.526 213.513 124.038 209.177C97.7593 206.018 71.191 206.109 44.9341 209.448L40.5837 198.679L56.7726 196.169C86.1704 191.696 116.039 191.231 145.562 194.785C181.869 199.207 214.932 209.548 241.169 224.695L266.237 239.173Z" fill="#4FB3B7"/>
<path d="M36.0979 188.944L50.5966 220.181L21.3496 208.007L36.0979 188.944Z" fill="#4FB3B7"/>
<path d="M300.511 219.389L276.784 233.089L251.738 218.626C225.501 203.479 207.586 184.394 199.926 163.427C193.765 146.554 194.592 128.824 202.33 112.165L206.666 102.822L227.191 100.911C219.638 117.185 218.825 134.508 224.852 150.99C232.333 171.472 249.812 190.121 275.486 204.919L300.511 219.389Z" fill="#4FB3B7"/>
<path d="M187.795 102.252L241.896 110.624L220.815 93.7365L187.795 102.252Z" fill="#4FB3B7"/>
<path d="M234.601 248.308L260.966 263.534L318.968 230.044L292.602 214.818L234.601 248.308Z" fill="#4FB3B7"/>
<path opacity="0.1" d="M266.971 248.087C282.32 248.087 294.763 240.903 294.763 232.041C294.763 223.179 282.32 215.995 266.971 215.995C251.622 215.995 239.179 223.179 239.179 232.041C239.179 240.903 251.622 248.087 266.971 248.087Z" fill="black"/>
<path opacity="0.1" d="M138.608 164.319C142.732 164.319 146.075 162.39 146.075 160.011C146.075 157.632 142.732 155.704 138.608 155.704C134.484 155.704 131.141 157.632 131.141 160.011C131.141 162.39 134.484 164.319 138.608 164.319Z" fill="black"/>
<path d="M148.143 94.4925L141.497 90.6557C139.913 89.7428 137.653 89.9425 134.743 91.6256C128.367 95.3126 125.122 102.259 125.122 108.82C125.122 112.3 126.035 114.868 127.847 115.952L134.486 119.803C136.084 120.766 138.38 120.573 141.354 118.854C147.772 115.174 150.868 108.157 150.868 101.581C150.868 98.094 149.948 95.548 148.143 94.4925Z" fill="#37474F"/>
<path d="M163.705 5.4822L156.944 1.59545C152.159 -1.14311 145.205 -0.486996 136.419 4.58362C120.53 13.7549 109.568 31.2774 106.209 49.777L112.82 53.5995L130.5 49.6557C132.525 41.9321 135.535 36.455 142.509 32.447C143.416 31.9169 144.371 31.4751 145.362 31.1277C145.494 31.9172 145.558 32.7164 145.555 33.5168C145.555 39.486 141.525 46.2896 125.415 62.3073V87.6675L132.026 91.4829L150.939 80.5715V66.5435C160.267 56.495 171.036 41.49 171.036 23.1331C171.036 14.5038 168.469 8.28495 163.705 5.4822Z" fill="#37474F"/>
<path d="M131.955 66.1227C148.072 50.105 152.102 43.3014 152.102 37.3393C152.102 32.1118 149.748 28.2465 142.474 32.447C135.535 36.455 132.489 41.9321 130.5 49.6557L112.82 53.5995C116.179 35.1 127.148 17.5775 143.037 8.40617C160.717 -1.78497 171.036 5.83164 171.036 23.1331C171.036 41.49 160.296 56.495 150.896 66.5435V80.5715L131.983 91.4829L131.955 66.1227Z" fill="#455A64"/>
<path d="M131.733 112.643C131.733 106.074 134.978 99.1281 141.354 95.4481C147.623 91.8324 150.868 95.0274 150.868 101.596C150.868 108.164 147.737 115.189 141.354 118.869C134.971 122.548 131.733 119.204 131.733 112.643Z" fill="#455A64"/>
<path d="M152.102 37.3393C152.102 43.3085 148.072 50.105 131.955 66.1227L125.344 62.3073C141.461 46.2824 145.483 39.486 145.483 33.5168C145.49 32.7186 145.426 31.9214 145.291 31.1348C150.354 29.3804 152.102 32.8606 152.102 37.3393Z" fill="#263238"/>
<path d="M277.84 120.808C280.643 120.145 283.723 122.135 285.528 126.514C287.332 130.892 290.934 142.125 291.682 145.056C292.018 146.368 282.033 158.014 282.411 157.843C282.518 157.793 279.159 152.138 279.159 152.138L284.002 144.678L280.971 136.584L277.84 120.808Z" fill="#FFA8A7"/>
<path d="M284.301 225.002C284.679 225.145 284.772 225.865 284.829 227.305C284.872 228.389 285.107 230.294 283.837 230.672C282.568 231.05 280.692 230.857 279.879 229.83C278.86 228.553 278.168 227.427 276.713 225.865C275.451 224.51 274.088 223.248 273.582 221.343C273.119 219.632 273.504 218.883 274.673 218.384C276.285 217.671 278.817 219.938 280.079 220.295C281.163 220.63 283.916 224.888 284.301 225.002Z" fill="#263238"/>
<path d="M284.301 223.697V225.465C283.638 225.888 282.872 226.123 282.086 226.144C281.299 226.165 280.522 225.973 279.837 225.587C279.765 225.416 279.373 222.021 279.373 222.021L284.301 223.697Z" fill="#FFA8A7"/>
<path d="M271.165 234.409C271.165 234.409 271.671 235.942 271.949 237.261C272.163 238.331 272.477 240.114 272.099 240.913C271.721 241.711 270.266 242.232 268.012 242.218C266.55 242.218 264.268 243.202 262.706 244.072C261.137 244.849 259.359 245.099 257.636 244.785C255.625 244.543 253.542 243.359 253.221 242.546C252.9 241.733 253.314 241.312 258.049 239.294C258.092 239.294 263.042 237.04 265.338 234.508L271.165 234.409Z" fill="#263238"/>
<path d="M271.165 232.497C271.165 232.497 271.165 233.81 271.165 234.558C271.165 235.307 270.287 236.42 268.005 236.341C266.393 236.284 265.274 235.849 265.338 234.523V232.619L271.165 232.497Z" fill="#FFA8A7"/>
<path d="M286.034 199.235C285.663 196.138 284.946 193.093 283.895 190.157C283.895 190.157 284.893 182.355 285.471 174.852C286.505 161.409 285.67 157.023 283.032 150.982C283.032 150.982 260.474 148.7 259.782 158.071C258.927 169.746 260.068 192.303 260.374 196.432C260.681 200.562 261.088 202.416 262.514 211.031C263.626 217.585 265.367 232.618 265.367 232.618C266.273 233.079 267.279 233.31 268.295 233.288C269.311 233.267 270.307 232.995 271.193 232.497C271.193 232.497 273.04 213.727 272.848 208.963C272.688 205.449 272.072 201.97 271.015 198.615C271.015 198.615 272.441 179.587 272.819 176.557C272.819 176.557 273.532 182.597 273.832 186.719C274.131 190.841 275.365 194.785 276.563 202.444C277.597 209.084 279.516 223.939 279.516 223.939C282.511 225.558 284.422 223.761 284.422 223.761C284.422 223.761 286.847 205.033 286.034 199.235Z" fill="#37474F"/>
<path d="M266.286 117.77L267.349 126.485L275.016 125.793L274.138 116.123L266.286 117.77Z" fill="#FFA8A7"/>
<path d="M283.424 125.159C282.582 122.869 279.715 120.316 276.77 120.88C276 121.022 275.344 121.136 274.631 121.279C274.566 123.29 270.779 124.331 267.014 123.112C265.88 123.433 264.839 123.768 263.897 124.103C261.202 125.066 260.118 129.545 260.053 137.04C259.989 144.535 259.198 163.235 259.198 163.235L262.35 164.226L263.826 158.756L264.418 165.303C268.002 166.142 271.732 166.125 275.308 165.253C283.417 163.484 285.934 159.105 285.934 159.105C284.953 154.052 282.99 149.24 280.158 144.942C284.187 134.13 284.672 128.575 283.424 125.159Z" fill="#4FB3B7"/>
<path opacity="0.2" d="M259.961 140.77L264.732 135.35L259.847 145.106L259.961 140.77Z" fill="black"/>
<path d="M265.367 123.561C265.367 123.561 260.681 123.932 258.677 126.97C256.673 130.008 248.814 141.233 248.814 141.233C248.814 141.233 236.312 134.979 235.699 134.237C235.085 133.496 235.435 131.998 235.599 131.171C235.763 130.343 236.048 128.511 236.234 127.997C236.555 127.098 235.221 127.341 234.444 128.182C233.666 129.024 233.31 130.664 232.917 130.95C232.525 131.235 229.551 127.812 228.111 126.157C226.67 124.503 225.971 123.354 225.023 124.018C224.31 124.51 224.773 125.494 225.807 126.906C226.293 127.501 226.738 128.128 227.141 128.782C227.269 129.031 226.884 129.231 226.734 129.366C226.456 129.623 225.957 130.03 225.921 130.422C225.939 130.635 225.939 130.85 225.921 131.064C225.786 131.534 225.208 131.777 225.037 132.219C224.916 132.547 225.037 132.932 224.98 133.267C224.937 133.496 224.816 133.695 224.773 133.923C224.758 134.148 224.792 134.373 224.872 134.584C224.952 134.794 225.076 134.985 225.237 135.143C226.249 136.348 227.64 136.812 228.967 137.546C230.072 138.16 231.213 138.424 232.482 138.973C233.752 139.522 248.778 151.054 251.117 149.77C253.457 148.486 265.174 134.872 265.174 134.872C269.125 128.525 265.367 123.561 265.367 123.561Z" fill="#FFA8A7"/>
<path d="M261.986 107.023C261.986 107.023 258.991 103.65 261.173 100.219C263.748 96.1827 268.704 95.4909 274.581 97.067C276.631 97.6968 278.437 98.9434 279.753 100.637C281.068 102.33 281.83 104.389 281.933 106.531C282.211 110.81 270.195 114.019 270.473 116.971L261.986 107.023Z" fill="#263238"/>
<path d="M260.339 108.335C260.339 108.335 258.706 110.952 258.912 111.188C259.318 111.439 259.765 111.617 260.232 111.715L260.339 108.335Z" fill="#F28F8F"/>
<path d="M265.309 100.055C263.683 100.954 260.866 102.608 260.317 108.713C259.733 114.982 261.187 117.114 262.057 117.913C262.649 118.448 265.623 118.569 267.157 118.048C269.075 117.392 273.218 115.196 275.094 111.929C277.305 108.071 277.647 103.001 274.923 101.089C271.072 98.4006 266.693 99.2921 265.309 100.055Z" fill="#FFA8A7"/>
<path d="M264.832 100.326C264.832 100.326 263.548 106.032 265.366 109.597C265.366 109.597 266.315 107.344 268.219 107.929C270.123 108.513 270.052 111.088 268.576 112.443C268.199 112.83 267.721 113.103 267.196 113.229C266.67 113.356 266.12 113.33 265.609 113.156C266.254 114.779 267.225 116.252 268.462 117.485C268.462 117.485 274.167 120.031 279.116 114.447C283.602 109.383 282.768 100.547 275.9 98.4648C269.032 96.3824 264.832 100.326 264.832 100.326Z" fill="#263238"/>
<path d="M265.637 113.185V121.029L274.859 119.767C276.819 119.498 278.615 118.529 279.915 117.038C281.216 115.548 281.933 113.637 281.933 111.658V106.509L274.616 111.195L271.157 114.254L267.656 113.969L265.637 113.185Z" fill="#263238"/>
<path d="M260.374 97.88C257.907 100.533 257.964 107.986 265.367 109.626L269.824 96.2968C266.971 94.5495 262.578 95.5194 260.374 97.88Z" fill="#263238"/>
<path d="M264.682 111.687C264.501 111.627 264.333 111.532 264.189 111.407C264.044 111.282 263.926 111.131 263.84 110.96C263.754 110.789 263.703 110.604 263.689 110.413C263.675 110.223 263.698 110.032 263.758 109.851C263.818 109.669 263.913 109.502 264.038 109.357C264.163 109.213 264.315 109.094 264.485 109.008C264.656 108.923 264.842 108.871 265.032 108.857C265.222 108.843 265.414 108.867 265.595 108.927L264.682 111.687Z" fill="#263238"/>
<path d="M272.819 176.507L273.247 171.949C275.707 171.598 278.061 170.72 280.15 169.375C280.15 169.375 278.688 171.721 274.666 172.791L274.245 178.596L273.996 188.103L272.819 176.507Z" fill="#263238"/>
</svg>
